<?xml version="1.0" encoding="utf-8"?>
<!-- Generator: Adobe Illustrator 16.0.4, SVG Export Plug-In . SVG Version: 6.00 Build 0)  -->
<!DOCTYPE svg PUBLIC "-//W3C//DTD SVG 1.1//EN" "http://www.w3.org/Graphics/SVG/1.1/DTD/svg11.dtd">
<svg version="1.1" id="Layer_1" xmlns="http://www.w3.org/2000/svg" xmlns:xlink="http://www.w3.org/1999/xlink" x="0px" y="0px"
	 width="1390.689px" height="124.516px" viewBox="0 0 1390.689 124.516" enable-background="new 0 0 1390.689 124.516"
	 xml:space="preserve">
<g>
	<g>
		<g>
			<polygon fill="#D8AF3B" points="0.888,27.603 30.935,5.326 122.627,10.508 128.326,103.754 99.833,121.885 12.804,120.849 
				5.031,113.079 			"/>
		</g>
		<g>
			<g id="XMLID_53_">
				<g>
					<path fill="#C01E62" d="M131.354,99.898c0,3.17-0.187,5.471-0.684,6.962c-0.56-0.435-0.933-0.684-1.119-0.684
						c-0.311,0-0.808,0.125-1.43,0.373c-0.684,0.249-1.181,0.311-1.554,0.311c-5.905,0-14.733-0.062-26.544-0.311
						c-11.812-0.187-20.701-0.311-26.669-0.311c-1.305,0-3.294-0.124-5.905-0.311s-4.538-0.311-5.906-0.311
						c-2.238,0-3.917,0.187-4.973,0.56c-0.373-0.373-0.808-0.56-1.243-0.56c-0.311,0-0.746,0.062-1.368,0.249
						c-0.622,0.187-1.119,0.311-1.492,0.311s-0.622-0.062-0.746-0.187c-2.611-0.249-4.601-0.373-5.781-0.373
						c-1.368,0-3.357,0-6.092,0c-2.673,0-4.663,0-6.03,0h-1.865c-0.249-0.87-0.87-1.927-1.803-3.294L27.415,5.222
						c0-1.43,0.933-2.673,2.735-3.667c2.735,0.373,8.89,0.559,18.463,0.559c1.243,0,2.922,0.062,4.973,0.249
						c2.487,0.187,4.165,0.311,5.16,0.311l65.957,2.114c1.678,0.124,2.673,1.554,2.859,4.414c0.062,3.73,0.249,5.719,0.56,6.092
						c0.622,14.173,1.368,28.223,2.114,42.271C130.98,74.411,131.354,88.522,131.354,99.898z M121.407,92.812l-2.238-64.278
						c-0.497-1.119-0.684-3.046-0.56-5.595c0.062-2.611-0.187-4.476-0.808-5.657c-0.622-1.119-1.616-1.927-2.922-2.362l-0.311,0.373
						l-0.808-0.125l-0.746-0.56c-41.401-1.305-63.594-1.989-66.516-1.989c-1.057,0-2.735,0.062-4.973,0.311
						c-2.3,1.368-3.419,4.911-3.419,10.63c0,4.725,0.622,24.431,1.865,59.056c0.249,6.714,1.617,10.941,4.103,12.744l75.654,0.559
						L121.407,92.812z"/>
					<path fill="#C01E62" d="M130.98,108.601c-2.984,0.871-7.086,2.673-12.308,5.533c-5.284,2.859-9.263,4.725-12.06,5.533
						c-2.797,1.989-6.03,3.108-9.511,3.295h-5.843h-42.21c-14.608,0-24.058-0.062-28.409-0.125
						c-3.792,0.062-8.765-0.187-14.795-0.746c0.746-0.373,3.046-1.741,6.962-4.103c2.176-1.43,5.408-3.543,9.822-6.278
						c3.357-2.176,6.092-3.481,8.082-3.979c1.43-0.249,4.476-0.435,9.262-0.435c10.009,0,25.177,0.249,45.38,0.684
						C105.618,108.415,120.786,108.601,130.98,108.601z M94.552,121.096l22.628-10.941c-0.87-0.187-1.616-0.249-2.3-0.249
						c-24.182-0.622-47.68-0.871-70.494-0.871c-3.17,0-5.471,0.187-7.025,0.56l0.187,0.125l-0.995,0.187l-17.779,10.63
						c1.865,0.498,5.595,0.684,11.251,0.684l56.445,0.311C91.258,121.531,93.993,121.407,94.552,121.096z"/>
					<path fill="#050505" d="M108.042,73.603l-0.125,5.408c-0.87,0.373-2.3,0.498-4.351,0.373c-2.052-0.124-3.543,0.062-4.476,0.622
						h-1.554c-1.243,0-3.108-0.187-5.595-0.559c-2.549-0.373-4.476-0.56-5.781-0.56c-1.616,0-2.984,0.187-4.103,0.56
						c-0.808-3.046-1.181-4.725-1.181-5.098c0-0.808,0.062-1.368,0.187-1.741c1.306-0.062,2.611-0.187,3.792-0.249
						c1.989-0.187,2.984-0.746,2.984-1.616c0-0.808-0.311-1.927-0.995-3.295c-0.622-1.368-0.995-2.424-0.995-3.232
						c-1.119-0.995-4.973-1.554-11.5-1.554c-2.051,0-3.667,0.062-4.662,0.125c-0.497,0.684-0.808,1.43-0.995,2.3
						c0.187,0.187,0.249,0.56,0.249,1.119c0,0.497-0.187,1.119-0.56,1.865c-0.373,0.746-0.622,1.306-0.684,1.679
						c0.187,1.554,0.746,2.424,1.678,2.735c0.311,0.062,1.43,0.187,3.419,0.311c1.119,0.062,1.865,0.435,2.3,1.119l-0.187,5.408
						c-1.492-0.311-3.17-0.435-4.973-0.435c-1.057,0-2.611,0.062-4.849,0.187c-2.176,0.187-3.792,0.249-4.973,0.249
						c-2.735,0-5.098-0.373-7.087-1.181l0.125-5.346c2.797,0,4.787-1.057,6.154-3.046c0.808-1.181,1.616-3.419,2.424-6.652
						c0.746-3.232,1.492-5.47,2.238-6.714l-0.249-1.243c0.373-0.684,0.87-1.741,1.554-3.294c0.187-1.244,0.56-3.108,1.119-5.657
						c1.119-3.357,2.735-8.33,4.849-15.106l-0.125-1.119l0.56-0.871c0.56-0.373,1.181-0.56,1.803-0.56
						c0.995,0.498,2.176,0.746,3.73,0.746c0.746,0,1.803-0.125,3.17-0.249c1.368-0.125,2.424-0.187,3.108-0.187
						c2.362,0,3.917,0.622,4.663,1.803c0.497,0.87,0.684,2.611,0.684,5.284c0,3.232,1.803,7.957,5.409,14.235
						c0.808,1.43,1.554,3.73,2.362,7.025c0.809,3.294,1.679,5.657,2.611,7.211c0,2.984,1.74,5.843,5.16,8.517L108.042,73.603z
						 M79.633,56.01c0.87,0,1.679,0.124,2.549,0.373c-0.933-1.865-1.927-4.476-2.859-7.771c-1.244-4.289-2.052-6.9-2.425-7.833
						c-1.119,1.492-1.616,2.859-1.43,4.103c-0.933,0.932-1.554,2.673-1.989,5.16c-0.435,2.735-0.933,4.6-1.368,5.532
						c0.808,0.436,1.803,0.684,2.984,0.684c0.56,0,1.306-0.062,2.3-0.125C78.39,56.01,79.136,56.01,79.633,56.01z"/>
					<path fill="#C01E62" d="M96.231,111.709c0.684,0,1.181,0,1.43,0c-0.373,0.311-0.933,0.684-1.679,1.181
						c-1.368,0.497-3.17,1.368-5.532,2.673l-6.714,0.125l1.119-0.56v-0.249c-0.932-0.249-1.678-0.311-2.238-0.311
						c-5.968,0-9.511,0.871-10.692,2.549c4.228,0.311,6.279,0.435,6.279,0.435c0.684,0,1.554-0.124,2.673-0.311
						c1.057-0.56,2.176-0.808,3.419-0.808c0.497,0,1.181,0,2.175,0.124c0.809,0,1.492,0,1.99,0c-1.741,0.746-3.419,1.554-5.16,2.425
						c-1.244,0.497-3.419,0.684-6.652,0.684c0.187-0.062,0.249-0.187,0.249-0.435v-0.249c-2.735-0.933-6.589-1.43-11.625-1.43
						c-1.43,0-3.543,0.062-6.403,0.125c-2.86,0.125-4.973,0.187-6.403,0.187c-5.035,0-8.889-0.498-11.687-1.43l-0.125-0.187
						c0.933-0.622,2.486-1.368,4.538-2.114c0.56-0.062,3.419-0.125,8.517-0.125c3.357,0,8.33-0.186,15.043-0.559
						c6.652-0.373,11.687-0.56,14.982-0.56c1.243,0,3.046-0.249,5.47-0.684c2.424-0.435,4.228-0.622,5.471-0.622
						C95.05,111.585,95.609,111.647,96.231,111.709z M67.946,115.563l1.306-0.311c-4.849,0.373-10.257,0.622-16.225,0.622
						c1.927,0.435,5.284,0.684,10.257,0.684C65.833,116.558,67.386,116.248,67.946,115.563z"/>
					<path fill="#C01E62" d="M28.596,102.198c0,1.678-0.187,3.17-0.622,4.414c-0.933,0.249-2.114,0.995-3.605,2.052
						c-1.492,1.119-2.673,1.803-3.605,2.051l-15.914,9.822c-0.871-1.616-1.679-15.976-2.424-43.08
						c-0.56-21.882-0.871-37.983-0.871-48.178c0-1.181,0.125-2.859,0.311-5.16h0.249C2.797,23,6.776,19.271,14.049,13.054
						c0.498-0.87,1.368-1.803,2.673-2.859c1.244-1.057,2.114-1.865,2.487-2.424l0.249,0.124c0.498-0.808,1.43-1.865,2.86-3.046
						c1.43-1.181,2.362-2.114,2.859-2.735c0.56,1.865,1.181,11.252,1.803,28.161C28.036,56.88,28.596,80.876,28.596,102.198z
						 M25.612,88.708c0-9.387-0.249-22.379-0.746-38.977c-0.684-21.633-1.43-33.134-2.424-34.563L4.538,31.642
						c-0.311,2.051-0.435,3.108-0.435,3.295L5.657,96.23c0,2.176,0,4.352,0,6.527c0.187,3.232,0.56,5.222,1.181,5.968l0.124-0.435
						h0.249l0.187,0.435l16.909-10.817C25.177,96.479,25.612,93.433,25.612,88.708z"/>
					<path fill="#C01E62" d="M20.639,34.066l0.125,5.408c-1.43,1.927-2.3,9.325-2.549,22.193c-0.373,14.609-0.87,23.063-1.43,25.487
						l-0.187,0.373c-0.062-0.062-0.187-0.124-0.373-0.124c-0.435,0-0.87,0.311-1.368,0.995c-0.497,0.684-0.933,0.995-1.243,0.995
						c-0.56,0-0.871-1.306-0.995-3.979c-0.062-1.617-0.125-3.233-0.125-4.849c-1.305-16.847-2.673-26.917-4.103-30.15H7.398v-5.097
						c0.622-0.56,1.367-1.492,2.113-2.86c0.933-0.187,2.3-1.243,3.979-3.108c0.311,1.43,0.435,3.605,0.435,6.527l-0.995,0.87
						c-0.373,0.746-0.559,1.678-0.559,2.859c0,0.56,0.062,1.43,0.249,2.673s0.311,2.176,0.311,2.859l0.311,0.249
						c0.933,0,2.114-0.808,3.543-2.548c0.187-0.622,0.249-1.679,0.249-3.108c0-2.859-0.125-4.973-0.435-6.403l-0.808,0.684
						c-0.373-0.435-0.56-1.368-0.56-2.797V37.92c0.746,0,1.616-0.622,2.549-1.927C18.711,34.75,19.644,34.066,20.639,34.066z
						 M16.35,60.672l-0.56-0.311l-1.306,1.43h-0.56c0.373,3.17,0.871,7.895,1.554,14.235c0.311-1.678,0.435-4.289,0.498-7.646
						C16.039,64.962,16.163,62.413,16.35,60.672z"/>
				</g>
			</g>
		</g>
	</g>
	<g>
		<polygon fill="#D8AF3B" points="267.101,115.705 264.685,26.267 239.71,2.733 151.125,15.686 153.2,99.608 179.791,122.531 		"/>
		<g>
			<path fill="#0E783D" d="M244.201,86.983c0,3.126-0.277,5.64-0.851,7.534l-0.992-0.282c-8.062,1.613-19.575,2.75-34.556,3.412
				c-3.128,0.093-7.818,0.333-14.075,0.71c-1.042,0.191-2.608,0.475-4.696,0.853c-3.317-0.095-8.243,0.286-14.788,1.138
				l-0.996-0.285l-20.894,2.133l-1.42-2.701l-0.998-85.601c0.656-1.707,1.511-2.89,2.555-3.554c2.37,0,10.715-0.805,25.029-2.417
				l61.138-6.826c1.231,0,1.943,1.281,2.131,3.84c0.196,1.799,0.336,3.602,0.428,5.403c0,0.094,0.62,12.845,1.852,38.248
				C243.826,63.947,244.201,76.745,244.201,86.983z M267.101,115.705c-0.767,0.285-4.979,0.853-12.658,1.705
				c-11.093,1.138-25.26,2.323-42.513,3.554c-16.593,1.138-27.305,1.71-32.14,1.71v-0.143c-1.795-1.045-5.168-3.412-10.094-7.109
				c-4.269-3.129-7.82-5.312-10.665-6.542v-0.285l-1.139-0.428c-1.33-1.42-3.37-2.75-6.114-3.979
				c1.799-0.57,5.306-1.138,10.521-1.706c2.657-0.285,9.248-0.901,19.769-1.847c14.599-1.328,27.445-2.324,38.529-2.988
				c11.947-0.759,19.345-1.139,22.185-1.139c1.23,0,2.187,0.049,2.841,0.144c2.283,2.75,5.692,6.022,10.242,9.811
				C259.658,109.591,263.396,112.669,267.101,115.705z M234.538,82.43c-0.096-2.082-0.572-13.03-1.421-32.845
				c-0.573-13.271-0.855-24.22-0.855-32.846c0-2.939-1.137-4.596-3.412-4.979l-0.433,0.286l-1.274-0.568
				c-11.57,1.139-23.079,2.273-34.553,3.412c-19.147,1.992-29.294,3.321-30.428,3.982c-2.088,1.326-3.13,5.023-3.13,11.092
				c0,0.282,0.236,17.253,0.714,50.903c0.091,6.066,1.274,9.719,3.551,10.948l69.527-6.255L234.538,82.43z M255.578,114.426
				l-0.569-0.143l0.432-0.285l-16.497-13.935c-0.474-0.377-1.761-0.568-3.837-0.568h-1.424c-7.96,0-17.816,0.568-29.572,1.706
				c-9.865,1.045-19.715,2.04-29.577,2.986c-1.711,0.095-3.464,0.237-5.26,0.425c-2.094,0.191-3.701,0.616-4.839,1.281l21.33,14.217
				c0.284,0,0.664,0.049,1.137,0.143c0.471,0,0.809,0,0.996,0h0.992l55.458-4.265c1.995-0.098,3.936-0.237,5.828-0.427
				C252.924,115.37,254.729,114.994,255.578,114.426z M239.091,112.717c-5.22,1.045-11.049,1.566-17.497,1.566l-1.708-0.853
				l-0.136-0.428c2.562-0.286,4.261-0.474,5.115-0.567c2.182-0.38,3.841-0.902,4.979-1.568c-0.662-1.988-5.312-2.983-13.933-2.983
				c-11.948,0-19.34,1.087-22.185,3.27v0.71c1.515,1.232,4.117,1.943,7.819,2.134c-1.043-0.094,1.75-0.142,8.392-0.142v0.285
				l1.423,0.853c-1.707,0.285-4.269,0.428-7.683,0.428c-7.776,0-13.504-1.518-17.206-4.554l-0.282-1.134
				c1.891-2.468,7.06-3.889,15.498-4.268c5.878-0.192,11.751-0.38,17.634-0.568l6.399,0.71c3.128,0.286,5.022,0.759,5.681,1.423
				l0.996,0.282c0.574,0.379,1.233,0.663,1.996,0.853l0.565,0.856l-0.144,0.853l-1.562,1.706c0.951,0.092,2.417,0.143,4.41,0.143
				l0.992,0.992H239.091z M268.662,109.591c0,2.18-0.093,3.791-0.286,4.835c-1.42-1.99-6.87-6.969-16.354-14.931
				c-1.325-0.947-3.123-2.417-5.403-4.408c-0.662-0.759-1.562-14.837-2.694-42.231c-1.044-24.932-1.566-40.904-1.566-47.918
				c0-1.707,0.046-2.989,0.146-3.84l0.278,0.852l0.568,0.144c1.327,1.897,3.984,5.117,7.965,9.667
				c4.168,4.835,6.922,7.728,8.245,8.676l0.286,0.709l0.423,0.143c0.86,1.233,2.329,2.893,4.417,4.979
				c0.75,2.464,1.462,10.617,2.125,24.456C268.046,75.088,268.662,94.708,268.662,109.591z M266.245,97.647
				c0-7.203-0.287-16.209-0.855-27.018c-0.565-9.003-1.087-18.008-1.563-27.014c-0.097-2.654-0.52-6.493-1.279-11.521l-17.06-18.624
				c-0.29,1.42-0.431,2.179-0.431,2.273l2.277,58.3c0.093,2.273,0.188,4.598,0.277,6.966c0.198,3.035,0.574,5.169,1.142,6.398
				v-0.142l0.428,0.852l16.067,14.503h0.431C266.057,101.201,266.245,99.545,266.245,97.647z M261.697,66.649
				c0,1.8-0.097,3.127-0.289,3.979c0,0.097,0.046,0.285,0.145,0.571c0,0.282,0,0.522,0,0.711c0,0.567-0.074,1.444-0.213,2.631
				c-0.14,1.184-0.212,2.109-0.212,2.771c-0.195,1.233-0.809,3.082-1.849,5.545l-0.995-0.143l-0.146,0.286l-0.847-0.571
				l-0.296,0.285c-0.749-0.755-1.988-3.457-3.687-8.104l-0.429,3.27l-0.568-0.283l-0.567-0.853l-0.151,0.143
				c-0.559-4.644-0.846-10.523-0.846-17.633v-0.571l1.141,0.429l0.424,0.71c0.278,2.844,0.518,5.688,0.707,8.533
				c0.668,3.791,1.758,6.21,3.275,7.251h0.853c0.749-1.139,1.138-4.078,1.138-8.815c0-4.171-0.292-8.818-0.858-13.936
				c-0.853-7.203-2.039-11.469-3.555-12.797l-0.854,0.14l-0.707,0.855c-0.38,1.897-0.567,4.742-0.567,8.53l-0.287-0.712l-0.71-0.284
				l-0.423-0.425c0-1.138,0.088-3.032,0.277-5.688c0.192-2.368,0.244-4.265,0.146-5.689l1.274-2.558l0.859-0.568
				c2.749,1.136,5.016,6.114,6.829,14.928C261.032,55.416,261.697,61.435,261.697,66.649z"/>
			<g id="XMLID_52_">
				<g>
					<path fill="#050505" d="M217.638,55.575c0,0.249,0,0.498,0,0.684c0,0.56-0.187,1.678-0.622,3.294
						c-0.373,1.617-0.435,2.798-0.249,3.543c-0.56,0.933-1.243,2.487-1.989,4.663c-5.595,4.227-8.765,6.465-9.511,6.838
						c-1.74,0.684-5.719,0.995-11.998,0.995c-9.636,0-16.163-5.346-19.458-16.039c0.311-0.559,0.435-1.243,0.435-1.989
						c0-0.311-0.124-0.746-0.311-1.305l-0.56-0.684c0.187-0.932,0.311-2.424,0.311-4.414c0-1.741,0.249-3.046,0.871-3.979v-1.305
						c0-0.871,0.373-1.927,1.181-3.233c0.808-1.368,1.181-2.362,1.181-3.17c0.124-0.062,1.989-2.113,5.595-6.092
						c2.238-2.487,4.6-3.73,6.962-3.73c0.435-0.435,1.368-0.746,2.735-0.808c1.368-0.125,2.362-0.435,2.921-0.995
						c0.56-0.125,1.492-0.187,2.735-0.187c2.362,0,6.154,1.181,11.376,3.419c0.373-0.933,0.995-2.238,1.989-3.979
						c0.249-0.062,0.684-0.187,1.244-0.311c0.559-0.187,0.995-0.311,1.305-0.373l1.679,0.249l0.87-0.373
						c0.498,1.119,0.684,2.176,0.684,3.232c0,0.498,0,1.181-0.124,2.052c-0.062,0.932-0.125,1.616-0.125,2.113
						c0,0.933,0.125,1.803,0.435,2.673c-0.124,0.373-0.187,0.87-0.187,1.554c0,0.497,0.125,1.243,0.249,2.238
						c0.124,0.995,0.187,1.741,0.187,2.3c0,0.498-0.062,1.119-0.249,1.865c-2.735,0.746-4.352,1.119-4.849,1.119
						c-0.125,0-0.249,0-0.435-0.124c-0.249,0-0.498,0-0.56,0c-0.87-2.673-1.741-5.346-2.673-8.082
						c-1.368-2.486-3.73-3.73-7.149-3.73c-4.165,0-7.211,0.808-9.076,2.425c-1.243,0.932-2.176,2.548-2.735,4.787
						c-0.56,2.238-1.119,3.543-1.678,4.041c0,0.062,0.062,0.249,0.124,0.435c0,0.249,0,0.435,0,0.56
						c0,1.057-0.311,2.114-0.995,3.295c0.498,0.932,0.746,2.548,0.746,4.849c0,2.362,0.249,3.979,0.808,4.911
						c0.311,3.046,1.368,5.595,3.295,7.708c1.865,2.052,4.352,3.108,7.397,3.108c4.414,0,7.459-1.43,9.076-4.227
						c1.181-3.357,2.362-6.589,3.543-9.822c0.684,0,1.617-0.124,2.797-0.311c1.181-0.187,2.052-0.249,2.611-0.249
						C217.452,55.078,217.514,55.264,217.638,55.575z"/>
				</g>
			</g>
		</g>
	</g>
	<g>
		<polygon fill="#D8AF3B" points="410.055,105.274 410.625,4.318 319.2,2.044 287.378,12.572 281.375,114.659 380.103,120.324 		"/>
		<g>
			<path fill="#2B338F" d="M381.912,27.973l-0.719,77.779c0,4.929-0.046,7.822-0.137,8.674c-0.189,3.315-0.564,6.159-1.137,8.53
				c-0.383-0.282-0.858-0.425-1.422-0.425c-0.29,0-0.738,0.07-1.353,0.212c-0.616,0.143-1.116,0.213-1.493,0.213
				c-5.787,0-14.505-0.541-26.157-1.612c-11.671-1.078-20.438-1.615-26.313-1.615c-1.42,0-3.606-0.221-6.545-0.661
				c-2.938-0.44-5.158-0.661-6.678-0.661c-0.764,0-1.802,0.093-3.131,0.285c-0.376-0.285-8.055-0.759-23.032-1.42
				c-0.287-0.665-0.809-1.708-1.567-3.129l-1.273-96.549c0.471-1.042,1.466-2.321,2.985-3.84c2.555,0.379,5.446,0.571,8.668,0.571
				c1.141,0,2.793-0.048,4.979-0.143c2.182,0,3.791,0,4.834,0c1.143,0,2.723,0.119,4.764,0.355c2.036,0.237,3.527,0.355,4.481,0.355
				l67.395,1.706c1.806,0,2.704,1.563,2.704,4.692c0,0.568,0,1.329,0,2.277c-0.098,0.947-0.14,1.658-0.14,2.13
				C381.625,26.741,381.714,27.499,381.912,27.973z M411.488,3.799c-0.954,0.287-6.498,2.468-16.64,6.542
				c-7.581,3.035-12.937,4.55-16.067,4.55c-10.712,0-26.831-0.428-48.348-1.282c-21.517-0.852-37.676-1.277-48.481-1.277
				c2.554-0.094,7.012-1.375,13.364-3.84c6.917-2.559,11.657-4.074,14.219-4.55c3.219-1.612,6.726-2.417,10.52-2.417
				c3.316,0,23.174,0.38,59.58,1.137l20.193,0.427C402.756,3.088,406.65,3.325,411.488,3.799z M371.957,42.076
				c-0.377-0.856-0.573-1.9-0.573-3.136c0-0.663,0.075-1.636,0.221-2.917c0.139-1.285,0.204-2.209,0.204-2.781
				c0-2.847-1.226-4.745-3.689-5.698l-0.285,0.428l-0.856-0.142l-0.709-0.71c-38.681-1.233-60.958-1.849-66.832-1.849
				c-2.183,0-3.838,0.048-4.98,0.143c-2.271,1.896-3.413,5.983-3.413,12.247c0,7.505,0.195,26.731,0.575,57.686
				c0.092,6.55,1.278,10.775,3.552,12.672l73.797,3.706l1.992-2.85L371.957,42.076z M397.973,4.825
				c-1.616-0.483-5.355-0.768-11.228-0.865c-35.65-0.865-55.744-1.298-60.291-1.298c-3.419,0-8.488,1.092-15.221,3.271
				c-5.018,1.801-10.088,3.604-15.213,5.403c0.287,0,0.668,0,1.144,0c0.567,0.095,0.944,0.143,1.132,0.143
				c38.306,1.326,62.281,1.992,71.953,1.992c1.134,0,2.941-0.095,5.402-0.286l-0.141-0.142h0.141h0.139h0.857l10.943-3.75
				C391.861,7.854,395.322,6.364,397.973,4.825z M378.498,5.648l-1.139,0.143c-0.67,0.568-2.091,1.09-4.264,1.563l-0.293,0.428
				c-1.223,0.379-3.074,0.947-5.539,1.705l-0.14,0.286c-2.661,0.662-3.796,0.996-3.414,0.996l-0.425,0.282
				c-2.085,0-5.195-0.071-9.318-0.212c-4.121-0.143-7.23-0.213-9.311-0.213l1.421-0.143l0.28-0.428
				c0.666-0.188,1.751-0.282,3.271-0.282c0.764,0,1.92,0.048,3.482,0.139c1.565,0.097,2.783,0.143,3.63,0.143
				c3.128,0,4.98-0.33,5.547-0.995c-4.55-0.756-10.522-1.136-17.919-1.136c-1.705,0-4.217,0-7.54,0
				c-3.409,0.094-5.924,0.14-7.526,0.14c-0.862,0-2.187,0.143-3.982,0.428c-1.809,0.286-3.183,0.429-4.128,0.429
				c-0.277,0-0.761-0.05-1.418-0.144c-0.673,0-1.194,0-1.57,0l0.716-0.144c0.28-0.187,2.467-0.9,6.537-2.133V6.358
				c1.041-0.474,2.418-0.71,4.123-0.71c0.477,0,1.187,0,2.14,0c0.848,0.096,1.512,0.143,1.99,0.143l-1.143,0.424V6.5
				c2.938,0.571,7.396,0.853,13.367,0.853h21.329c0-0.091,0.049-0.234,0.137-0.424c0-0.662-2.27-0.997-6.822-0.997
				c-1.134,0-1.988-0.048-2.562-0.142l1.288-0.143l0.423-0.426c2.084,0,5.211,0.071,9.386,0.213
				C373.279,5.578,376.41,5.648,378.498,5.648z M413.332,11.051c0,19.624-0.335,41.378-0.992,65.266
				c-0.097,8.533-0.573,18.012-1.422,28.439l-27.163,17.489c-0.945-1.043-1.419-3.316-1.419-6.823v-1.139
				c0-6.067,0.328-27.491,0.995-64.271c0-6.827,0.146-17.017,0.424-30.572c0.1-2.369,0.9-3.6,2.417-3.697l0.855-0.853l21.611-8.39
				h1.285c0.846-0.568,1.745-0.853,2.698-0.853c0.286,0,0.518,0.048,0.71,0.143c-0.094,0.379-0.146,0.946-0.146,1.706
				c0,0.38,0.053,0.951,0.146,1.706C413.332,10.055,413.332,10.674,413.332,11.051z M409.204,16.453l-18.26,7.112
				c-0.378,0.568-0.888,0.923-1.542,1.065c-0.655,0.143-1.265,0.546-1.824,1.208c-1.127,1.232-1.684,27.585-1.684,79.059
				c0,1.327,0.277,2.56,0.852,3.697l0.992,0.285c3.413-1.044,7.584-3.223,12.513-6.54c5.977-3.983,8.953-7.204,8.953-9.671V16.453z
				 M406.084,44.467v6.684c0,2.465-0.1,6.162-0.29,11.088c-0.188,4.932-0.279,8.63-0.279,11.091l-1.714,0.142
				c0.099-0.566,0.146-1.42,0.146-2.558c0-2.651-0.473-3.982-1.422-3.982c-0.667,0-1.636,0.594-2.91,1.779
				c-1.283,1.186-2.587,1.775-3.914,1.775c-1.235,0.761-2.04,1.709-2.418,2.844c0.096,1.616,0.186,3.225,0.284,4.835
				c0.283,2.183,0.759,3.651,1.421,4.408l0.992-0.567h0.574c0.096,0,0.234,0.047,0.423,0.142v0.854
				c0.098,1.611-0.188,3.602-0.848,5.97l-1.569,0.57l-0.848,0.854h-0.573c-0.377,0.191-0.846,0.568-1.42,1.138h-0.569
				c0.376-2.371,0.569-5.072,0.569-8.108c0-1.326-0.047-3.269-0.146-5.828c-0.097-2.558-0.136-4.456-0.136-5.687
				c0-2.56,0.089-6.375,0.282-11.448c0.188-5.068,0.279-8.886,0.279-11.446c0-1.799-0.091-4.5-0.279-8.104
				c0.279-0.191,0.662-0.523,1.138-0.996c0.472-0.473,0.855-0.805,1.134-0.995l0.714-0.144l0.574-0.428l1.419,0.428l0.703-0.852
				c-0.188,0.476-0.278,1.281-0.278,2.416c0,0.38,0.05,0.996,0.141,1.85c0,0.852,0,1.518,0,1.99v0.711h-0.709
				c-2.187,3.98-3.271,7.394-3.271,10.237c0,0.666,0.096,1.567,0.284,2.702l0.424,0.142l0.856-0.853l0.287,0.285l6.679-3.697h0.712
				l0.573-0.286c0.753-1.325,1.133-4.122,1.133-8.389h0.856C405.843,44.658,406.173,44.467,406.084,44.467z"/>
			<g id="XMLID_51_">
				<g>
					<path fill="#050505" d="M355.892,52.715c0,0.56-0.125,1.306-0.312,2.3c0.125,0.249,0.187,0.746,0.187,1.367
						c0,0.684-0.187,1.679-0.621,2.922c-0.373,1.306-0.56,2.3-0.56,2.922c0,0.746,0.187,1.492,0.56,2.176
						c-0.373-0.622-0.933-0.871-1.679-0.871c-0.56,0-1.367,0.125-2.486,0.373c-1.119,0.187-1.928,0.311-2.486,0.311
						c-0.187-0.187-0.312-0.498-0.312-0.995c0-0.56,0.187-1.243,0.622-1.989c-1.989-7.024-5.284-10.506-9.822-10.506
						c-0.373,0-0.87,0.062-1.43,0.311c-0.187,0.249-0.311,0.746-0.311,1.367c0,0.311,0.062,0.746,0.187,1.368
						c0.062,0.622,0.124,1.119,0.124,1.492c0,0.56-0.124,1.119-0.436,1.554l0.436,23.747c0,0.498-0.062,1.181-0.124,2.176
						c-0.125,0.933-0.187,1.616-0.187,2.114c0,1.678,0.621,3.046,1.864,3.979c1.492,0.497,3.481,0.684,5.844,0.684
						c-0.187,0.684-0.311,2.86-0.311,6.589c-0.746-0.187-1.243-0.311-1.555-0.311c-0.372,0-0.994,0.062-1.864,0.187
						c-0.809,0.187-1.492,0.249-1.989,0.249c-0.809,0-1.616-0.311-2.425-0.87l-12.06-0.871c-0.497,0.498-1.243,0.746-2.3,0.746
						c-0.622,0-1.617-0.187-2.984-0.498c-1.306-0.311-2.362-0.497-3.108-0.497l0.684-6.092c0.436,0,0.933,0,1.616,0
						c0.622,0.062,1.119,0.125,1.431,0.125c2.921,0,4.352-2.673,4.352-7.957c0-1.554-0.125-3.792-0.498-6.714
						c-0.311-2.922-0.497-5.098-0.497-6.527c0-1.243,0.124-3.046,0.373-5.408s0.373-4.103,0.373-5.284
						c0-2.175-0.436-4.227-1.306-6.216c-5.595,1.243-8.89,3.232-9.946,6.092v3.419c0,1.492-0.249,2.735-0.684,3.73
						c-0.995-0.498-1.989-0.746-2.984-0.746c-0.87,0-1.678,0.125-2.424,0.435c-0.498-0.932-0.746-2.113-0.746-3.543
						c0-0.497,0.062-1.243,0.187-2.362c0.062-1.057,0.124-1.927,0.124-2.487c0-1.057-0.124-2.051-0.435-2.984
						c0.311-0.56,0.435-1.243,0.435-1.989c0-0.56-0.124-1.43-0.311-2.487c-0.187-1.119-0.249-1.865-0.249-2.362
						c0-0.746,0.125-1.43,0.436-1.989c0.746,0.373,1.616,0.559,2.549,0.559c0.435,0,1.181-0.062,2.176-0.187
						c0.994-0.124,1.74-0.249,2.237-0.249c0.933,0,1.803,0.249,2.549,0.622c0.746-0.187,1.368-0.311,1.865-0.311
						c0.622,0,1.554,0.124,2.735,0.311c1.181,0.187,2.052,0.249,2.673,0.249c0.933,0,1.554-0.062,1.989-0.249
						c0.809,0.249,1.74,0.373,2.673,0.373c0.498,0,1.119,0,1.989-0.124c0.871-0.062,1.492-0.125,1.865-0.125
						c0.933,0,1.865,0.125,2.673,0.435c0.746-0.187,1.368-0.311,1.865-0.311c0.56,0,1.43,0.124,2.549,0.311s1.989,0.249,2.549,0.249
						c0.87,0,1.492-0.062,1.864-0.249c0.871,0.249,2.487,0.311,4.85,0.125c2.051-0.062,3.605,0.124,4.538,0.684l2.3-0.373
						c0,0.808,0.187,2.176,0.56,3.979S355.892,51.783,355.892,52.715z"/>
				</g>
			</g>
		</g>
	</g>
	<polygon fill="#D8AF3B" points="980.416,104.756 980.983,3.799 889.558,1.525 857.738,12.052 851.73,114.141 950.461,119.805 	"/>
	<polygon fill="#D8AF3B" points="553.112,114.626 560.88,25.008 524.623,4.285 445.359,3.25 440.875,5.313 431.376,89.76 
		465.615,120.773 	"/>
	<g>
		<path fill="#E71E25" d="M951.406,27.973l-0.709,77.779c0,4.929-0.048,7.822-0.137,8.674c-0.198,3.315-0.573,6.159-1.143,8.53
			c-0.378-0.282-0.85-0.425-1.42-0.425c-0.287,0-0.738,0.07-1.351,0.212c-0.619,0.143-1.118,0.213-1.489,0.213
			c-5.789,0-14.511-0.541-26.167-1.612c-11.661-1.078-20.436-1.615-26.313-1.615c-1.42,0-3.598-0.221-6.535-0.661
			c-2.939-0.44-5.168-0.661-6.685-0.661c-0.759,0-1.797,0.093-3.126,0.285c-0.384-0.285-8.055-0.759-23.039-1.42
			c-0.28-0.665-0.8-1.708-1.562-3.129l-1.277-96.549c0.475-1.042,1.467-2.321,2.985-3.84c2.561,0.379,5.453,0.571,8.671,0.571
			c1.143,0,2.798-0.048,4.975-0.143c2.186,0,3.793,0,4.842,0c1.133,0,2.723,0.119,4.764,0.355c2.032,0.237,3.528,0.355,4.48,0.355
			l67.398,1.706c1.794,0,2.694,1.563,2.694,4.692c0,0.568,0,1.329,0,2.277c-0.092,0.947-0.135,1.658-0.135,2.13
			C951.127,26.741,951.214,27.499,951.406,27.973z M980.983,3.799c-0.945,0.287-6.493,2.468-16.633,6.542
			c-7.588,3.035-12.944,4.55-16.069,4.55c-10.712,0-26.828-0.428-48.348-1.282c-21.521-0.852-37.679-1.277-48.486-1.277
			c2.562-0.094,7.018-1.375,13.368-3.84c6.922-2.559,11.653-4.074,14.217-4.55c3.218-1.612,6.729-2.417,10.526-2.417
			c3.314,0,23.174,0.38,59.582,1.137l20.189,0.427C972.261,3.088,976.154,3.325,980.983,3.799z M941.452,42.076
			c-0.374-0.856-0.563-1.9-0.563-3.136c0-0.663,0.067-1.636,0.212-2.917c0.146-1.285,0.213-2.209,0.213-2.781
			c0-2.847-1.234-4.745-3.697-5.698l-0.28,0.428l-0.862-0.142l-0.701-0.71c-38.683-1.233-60.958-1.849-66.837-1.849
			c-2.178,0-3.84,0.048-4.975,0.143c-2.279,1.896-3.414,5.983-3.414,12.247c0,7.505,0.189,26.731,0.569,57.686
			c0.094,6.55,1.282,10.775,3.554,12.672l73.797,3.706l1.99-2.85L941.452,42.076z M967.478,4.825
			c-1.616-0.483-5.363-0.768-11.237-0.865c-35.642-0.865-55.735-1.298-60.282-1.298c-3.418,0-8.488,1.092-15.222,3.271
			c-5.019,1.801-10.096,3.604-15.211,5.403c0.282,0,0.66,0,1.134,0c0.572,0.095,0.945,0.143,1.144,0.143
			c38.295,1.326,62.271,1.992,71.949,1.992c1.136,0,2.937-0.095,5.405-0.286l-0.151-0.142h0.151h0.136h0.856l10.947-3.75
			C961.366,7.854,964.827,6.364,967.478,4.825z M947.998,5.648l-1.142,0.143c-0.663,0.568-2.085,1.09-4.263,1.563l-0.285,0.428
			c-1.23,0.379-3.08,0.947-5.545,1.705l-0.144,0.286c-2.653,0.662-3.786,0.996-3.411,0.996l-0.426,0.282
			c-2.09,0-5.192-0.071-9.312-0.212c-4.127-0.143-7.234-0.213-9.314-0.213l1.425-0.143l0.278-0.428
			c0.667-0.188,1.754-0.282,3.272-0.282c0.756,0,1.922,0.048,3.483,0.139c1.559,0.097,2.775,0.143,3.622,0.143
			c3.136,0,4.979-0.33,5.554-0.995c-4.557-0.756-10.529-1.136-17.926-1.136c-1.698,0-4.213,0-7.532,0
			c-3.41,0.094-5.924,0.14-7.533,0.14c-0.856,0-2.187,0.143-3.981,0.428c-1.803,0.286-3.184,0.429-4.129,0.429
			c-0.279,0-0.755-0.05-1.422-0.144c-0.66,0-1.185,0-1.562,0l0.713-0.144c0.286-0.187,2.463-0.9,6.543-2.133V6.358
			c1.041-0.474,2.418-0.71,4.117-0.71c0.475,0,1.188,0,2.139,0c0.847,0.096,1.518,0.143,1.988,0.143l-1.142,0.424V6.5
			c2.938,0.571,7.396,0.853,13.369,0.853h21.331c0-0.091,0.052-0.234,0.143-0.424c0-0.662-2.275-0.997-6.831-0.997
			c-1.131,0-1.985-0.048-2.554-0.142l1.278-0.143l0.427-0.426c2.088,0,5.215,0.071,9.387,0.213
			C942.783,5.578,945.907,5.648,947.998,5.648z M982.832,11.051c0,19.624-0.328,41.378-0.997,65.266
			c-0.09,8.533-0.564,18.012-1.419,28.439l-27.159,17.489c-0.951-1.043-1.426-3.316-1.426-6.823v-1.139
			c0-6.067,0.337-27.491,0.997-64.271c0-6.827,0.144-17.017,0.429-30.572c0.093-2.369,0.901-3.6,2.419-3.697l0.855-0.853
			l21.611-8.39h1.275c0.855-0.568,1.755-0.853,2.709-0.853c0.277,0,0.517,0.048,0.705,0.143c-0.093,0.379-0.141,0.946-0.141,1.706
			c0,0.38,0.048,0.951,0.141,1.706C982.832,10.055,982.832,10.674,982.832,11.051z M978.707,16.453l-18.26,7.112
			c-0.378,0.568-0.891,0.923-1.549,1.065c-0.655,0.143-1.261,0.546-1.82,1.208c-1.127,1.232-1.688,27.585-1.688,79.059
			c0,1.327,0.286,2.56,0.852,3.697l0.997,0.285c3.409-1.044,7.589-3.223,12.518-6.54c5.972-3.983,8.951-7.204,8.951-9.671V16.453z
			 M975.581,44.467v6.684c0,2.465-0.1,6.162-0.287,11.088c-0.183,4.932-0.28,8.63-0.28,11.091l-1.709,0.142
			c0.09-0.566,0.143-1.42,0.143-2.558c0-2.651-0.476-3.982-1.42-3.982c-0.665,0-1.637,0.594-2.916,1.779
			c-1.274,1.186-2.586,1.775-3.912,1.775c-1.231,0.761-2.037,1.709-2.412,2.844c0.093,1.616,0.188,3.225,0.281,4.835
			c0.287,2.183,0.762,3.651,1.422,4.408l0.995-0.567h0.564c0.1,0,0.244,0.047,0.433,0.142v0.854c0.09,1.611-0.188,3.602-0.854,5.97
			l-1.566,0.57l-0.852,0.854h-0.569c-0.377,0.191-0.852,0.568-1.424,1.138h-0.569c0.384-2.371,0.569-5.072,0.569-8.108
			c0-1.326-0.047-3.269-0.137-5.828c-0.1-2.558-0.142-4.456-0.142-5.687c0-2.56,0.093-6.375,0.278-11.448
			c0.195-5.068,0.285-8.886,0.285-11.446c0-1.799-0.09-4.5-0.285-8.104c0.285-0.191,0.67-0.523,1.142-0.996
			c0.474-0.473,0.852-0.805,1.139-0.995l0.709-0.144l0.567-0.428l1.422,0.428l0.712-0.852c-0.188,0.476-0.283,1.281-0.283,2.416
			c0,0.38,0.048,0.996,0.144,1.85c0,0.852,0,1.518,0,1.99v0.711h-0.718c-2.178,3.98-3.263,7.394-3.263,10.237
			c0,0.666,0.093,1.567,0.281,2.702l0.429,0.142l0.854-0.853l0.28,0.285l6.689-3.697h0.707l0.566-0.286
			c0.759-1.325,1.144-4.122,1.144-8.389h0.847C975.346,44.658,975.679,44.467,975.581,44.467z"/>
		<g id="XMLID_50_">
			<g>
				<path fill="#050505" d="M925.38,52.715c0,0.56-0.062,1.306-0.249,2.3c0.062,0.249,0.125,0.746,0.125,1.367
					c0,0.684-0.187,1.679-0.56,2.922c-0.373,1.306-0.56,2.3-0.56,2.922c0,0.746,0.187,1.492,0.56,2.176
					c-0.373-0.622-0.995-0.871-1.74-0.871c-0.56,0-1.368,0.125-2.487,0.373c-1.057,0.187-1.927,0.311-2.486,0.311
					c-0.187-0.187-0.249-0.498-0.249-0.995c0-0.56,0.187-1.243,0.56-1.989c-1.989-7.024-5.284-10.506-9.821-10.506
					c-0.373,0-0.871,0.062-1.431,0.311c-0.186,0.249-0.311,0.746-0.311,1.367c0,0.311,0.062,0.746,0.187,1.368
					c0.062,0.622,0.124,1.119,0.124,1.492c0,0.56-0.124,1.119-0.435,1.554l0.435,23.747c0,0.498-0.062,1.181-0.124,2.176
					c-0.124,0.933-0.187,1.616-0.187,2.114c0,1.678,0.622,3.046,1.865,3.979c1.554,0.497,3.481,0.684,5.844,0.684
					c-0.187,0.684-0.312,2.86-0.312,6.589c-0.746-0.187-1.243-0.311-1.554-0.311c-0.373,0-0.995,0.062-1.803,0.187
					c-0.87,0.187-1.555,0.249-2.052,0.249c-0.808,0-1.616-0.311-2.362-0.87l-12.122-0.871c-0.435,0.498-1.243,0.746-2.237,0.746
					c-0.685,0-1.679-0.187-2.984-0.498c-1.367-0.311-2.424-0.497-3.17-0.497l0.746-6.092c0.372,0,0.87,0,1.554,0
					c0.621,0.062,1.119,0.125,1.43,0.125c2.922,0,4.414-2.673,4.414-7.957c0-1.554-0.187-3.792-0.498-6.714
					c-0.373-2.922-0.497-5.098-0.497-6.527c0-1.243,0.062-3.046,0.311-5.408c0.249-2.362,0.373-4.103,0.373-5.284
					c0-2.175-0.435-4.227-1.305-6.216c-5.596,1.243-8.89,3.232-9.946,6.092v3.419c0,1.492-0.249,2.735-0.685,3.73
					c-0.933-0.498-1.927-0.746-2.983-0.746c-0.87,0-1.679,0.125-2.425,0.435c-0.497-0.932-0.684-2.113-0.684-3.543
					c0-0.497,0-1.243,0.124-2.362c0.062-1.057,0.125-1.927,0.125-2.487c0-1.057-0.125-2.051-0.436-2.984
					c0.311-0.56,0.436-1.243,0.436-1.989c0-0.56-0.062-1.43-0.249-2.487c-0.249-1.119-0.311-1.865-0.311-2.362
					c0-0.746,0.124-1.43,0.435-1.989c0.746,0.373,1.616,0.559,2.549,0.559c0.497,0,1.182-0.062,2.176-0.187
					c0.995-0.124,1.741-0.249,2.238-0.249c0.933,0,1.803,0.249,2.549,0.622c0.746-0.187,1.367-0.311,1.864-0.311
					c0.622,0,1.555,0.124,2.735,0.311c1.182,0.187,2.114,0.249,2.674,0.249c0.932,0,1.616-0.062,1.989-0.249
					c0.808,0.249,1.74,0.373,2.673,0.373c0.497,0,1.181,0,1.989-0.124c0.87-0.062,1.492-0.125,1.864-0.125
					c0.933,0,1.865,0.125,2.674,0.435c0.808-0.187,1.367-0.311,1.864-0.311c0.56,0,1.43,0.124,2.549,0.311
					c1.182,0.187,1.989,0.249,2.611,0.249c0.808,0,1.43-0.062,1.803-0.249c0.87,0.249,2.486,0.311,4.849,0.125
					c2.113-0.062,3.605,0.124,4.538,0.684l2.3-0.373c0,0.808,0.187,2.176,0.56,3.979S925.38,51.783,925.38,52.715z"/>
			</g>
		</g>
	</g>
	<g>
		<path fill="#E6E51F" d="M473.204,27.831c-0.099,0.284-0.237,1.991-0.426,5.117c-0.286,3.697-2.367,25.879-6.257,66.548
			c-0.095,4.834-0.664,12.038-1.707,21.612l-0.285,0.285l-0.566-0.143l-0.289,0.287l-31.849-28.581
			c-0.476-1.229-0.709-3.078-0.709-5.546c0-3.221,0.517-11.325,1.56-24.313c1.045-12.988,2.233-26.451,3.556-40.383
			c0.571-5.781,1.372-12.277,2.416-19.481l0.855,0.283c0.762,0.762,1.471,1.186,2.131,1.281c5.599,3.603,11.144,7.252,16.635,10.949
			C465.759,20.77,470.739,24.798,473.204,27.831z M468.509,35.51l-0.996-2.562l-22.181-16.352c-0.563,0-1.185-0.331-1.851-0.996
			c-0.657-0.662-1.229-0.996-1.7-0.996l-0.286,0.143c-0.287,0.476-0.621,1.186-0.996,2.135c0,0.093,0.043,0.19,0.142,0.285
			c0,0.192,0,0.331,0,0.425c0,0.097-0.054,0.238-0.142,0.428c-0.101,0.192-0.137,0.331-0.137,0.425l-5.267,62.708v0.995
			c0,2.845,1.232,5.403,3.696,7.677c3.691,3.416,7.349,6.827,10.954,10.239c5.583,4.929,9.38,7.536,11.366,7.821
			c0.664-0.285,0.998-0.709,0.998-1.282L468.509,35.51z M564.774,24.561c-2.651,0.568-8.814,0.854-18.483,0.854h-2.704
			c-5.682,0-14.267,0.118-25.741,0.355c-11.465,0.237-20.092,0.354-25.873,0.354c-10.616,0-16.631-0.285-18.06-0.852
			c-1.518-1.515-5.116-4.268-10.806-8.247c-4.928-3.225-12.324-8.154-22.184-14.788l0.572-0.571
			c9.378-0.376,19.904-0.568,31.562-0.568c5.027,0,12.568,0.048,22.612,0.143c10.051,0.093,17.582,0.143,22.607,0.143
			c3.321,0,5.781,0.093,7.397,0.282l0.138,0.284c2.75,0.76,7.466,3.465,14.152,8.105c6.682,4.647,11.586,7.492,14.714,8.533
			l0.143,0.429C555.111,19.11,558.425,20.958,564.774,24.561z M461.113,54.988c-0.183,5.879-1.082,14.697-2.698,26.45l-1.422-0.855
			l-0.57-0.71c0-0.568,0.052-1.42,0.147-2.56c0.092-1.138,0.14-1.991,0.14-2.56c0-1.611-0.999-3.174-2.988-4.692
			c-1.705-1.138-3.37-2.276-4.972-3.412c-0.854-1.992-1.992-2.986-3.417-2.986c-0.188,0-0.476,0.094-0.854,0.284
			c-0.095,1.234-0.282,3.083-0.565,5.547l-2.279-1.849c0.573-5.689,1.471-14.221,2.703-25.598c0.286,0.57,0.855,1.138,1.705,1.708
			c0,0.095,0.048,0.238,0.147,0.425c0,0.286,0,0.477,0,0.57c0,0.38-0.048,0.972-0.147,1.776c-0.094,0.807-0.14,1.449-0.14,1.918
			c0,0.192,0.046,0.522,0.14,0.996c0,0.477,0,0.854,0,1.138c0.378,0.191,1.19,0.997,2.418,2.42c0.946,1.043,1.942,1.562,2.986,1.562
			c0.472,0,1.354,0.854,2.633,2.56c1.275,1.706,2.197,2.56,2.771,2.56c1.232,0,1.853-1.992,1.853-5.971l0.563-0.286l1.287,1.424
			L461.113,54.988z M550.981,21.574L521.126,4.085c-0.667-0.381-11.194-0.572-31.57-0.572c-23.224,0-35.222,0.383-35.975,1.138
			c0.281,0.098,0.427,0.192,0.427,0.287l-0.146,0.143l25.029,16.918c1.232,0.854,9.287,1.282,24.174,1.282
			C533.302,23.281,549.274,22.712,550.981,21.574z M564.628,29.112c0,0.378-0.134,1.444-0.425,3.199
			c-0.278,1.755-0.33,2.915-0.141,3.481l-7.393,66.973c-0.762,6.826-1.608,11.895-2.558,15.215l-1.143-0.285
			c-0.847,0.188-1.989,0.332-3.41,0.428c-0.376,0-9.238,0.567-26.59,1.707c-10.615,0.755-19.438,1.134-26.445,1.134
			c-3.229,0-5.596,0.192-7.113,0.572l-1.135-0.287c-2.561,0.572-6.021,0.947-10.38,1.139c-5.218,0.188-8.677,0.376-10.384,0.568
			c-0.471-0.947-0.855-1.849-1.135-2.702l8.104-89.58c0.859-1.801,1.895-2.988,3.128-3.555c2.275,0.19,3.935,0.282,4.978,0.282
			c1.609,0,4.058-0.115,7.322-0.356c3.271-0.233,5.705-0.355,7.321-0.355c7.299,0,18.227-0.07,32.783-0.211
			c14.545-0.144,25.424-0.213,32.63-0.213C563.972,26.267,564.628,27.215,564.628,29.112z M528.659,16.453h-0.709
			c-0.286,0-0.766,0-1.421,0c-0.666,0.097-1.193,0.143-1.566,0.143c-0.851,0-2.067-0.307-3.631-0.923
			c-1.56-0.615-2.769-0.925-3.619-0.925c-2.184,0-5.501-0.045-9.954-0.143c-4.456-0.091-7.82-0.142-10.103-0.142
			c-3.218,0-5.878,0.24-7.957,0.713l-0.143,0.282c0.185,0.191,0.754,0.522,1.699,0.995l0.293,0.286
			c-0.947,0.192-1.615,0.285-1.992,0.285c-0.38,0-1.02-0.049-1.919-0.142c-0.902-0.095-1.589-0.143-2.062-0.143
			c-1.421-0.853-3.555-2.226-6.399-4.122c-0.569-0.665-1.467-1.566-2.706-2.705h2.281c2.372,0,3.692,0.383,3.982,1.139l0.424,0.428
			c1.798,0.282,6.303,0.425,13.503,0.425h11.947c3.7,0,5.548-0.331,5.548-0.995c-0.569-0.567-1.044-0.944-1.421-1.135
			c0.473-0.095,1.137-0.143,1.992-0.143c0.378,0,0.999,0,1.844,0c0.754,0.095,1.327,0.143,1.707,0.143
			C520.931,11.099,524.39,13.327,528.659,16.453z M555.111,39.646c0-1.9-0.856-3.187-2.562-3.854l-0.425,0.71l-1.143-0.71
			c-20.95,0.191-42.423,0.71-64.409,1.566c-2.275,1.326-3.752,5.402-4.407,12.227l-4.979,52.044
			c-0.098,0.947-0.146,2.37-0.146,4.265c0,3.505,0.857,5.831,2.562,6.966l66.264-3.837l1.848-2.855l6.678-57.955
			c-0.093-0.379-0.137-0.95-0.137-1.711c0-0.762,0.137-1.903,0.424-3.427C554.964,41.549,555.111,40.409,555.111,39.646z"/>
		<g id="XMLID_49_">
			<g>
				<path fill="#050505" d="M530.76,52.156c-0.187,0.249-0.373,1.243-0.621,2.922c-0.249,1.616-0.746,2.486-1.616,2.486
					c-0.312,0-0.809-0.062-1.492-0.249c-0.746-0.124-1.243-0.187-1.616-0.187c-0.809,0-1.306,0.435-1.616,1.243l-0.373,0.187
					c0,0.062,0,0.249,0.124,0.56c0,0.311,0,0.498,0,0.684c0,1.181-0.311,2.859-0.87,5.097c-0.56,2.176-0.87,3.854-0.87,5.036
					c0,0.559,0.062,1.368,0.187,2.486c0.062,1.057,0.124,1.927,0.124,2.487c0,1.305-0.373,3.232-1.119,5.843
					c-0.808,2.549-1.181,4.538-1.181,5.968c0,2.922,1.989,4.414,5.843,4.414l0.312-0.311c0.373,0.373,0.56,0.87,0.56,1.43
					c0,0.497-0.125,1.181-0.436,2.176s-0.311,1.865-0.124,2.486c-0.995-0.062-2.362-0.124-4.29-0.124
					c-2.673,0-4.849,0.249-6.651,0.746c-0.436-0.125-0.994-0.187-1.74-0.187c-4.849,0-6.9,0.062-6.279,0.187
					c-0.559,0.249-1.181,0.373-1.989,0.373c-0.435,0-1.181-0.062-2.113-0.249s-1.679-0.311-2.113-0.311v-2.673
					c0-1.989,1.181-3.046,3.543-3.17c2.362-0.062,3.73-0.995,3.979-2.797c0.311-1.803,0.497-6.527,0.746-14.111
					c0.187-5.968,0.809-10.443,1.989-13.49c0-2.486-0.994-3.73-2.859-3.73c-0.311,0-0.746,0.125-1.306,0.311S505.833,58,505.459,58
					s-0.622-0.125-0.746-0.311c-0.187-0.187-0.248-0.497-0.248-0.995c0-0.062,0.311-1.865,0.87-5.284
					c1.43,0.373,3.046,0.622,4.849,0.622c1.243,0,3.046-0.187,5.532-0.498c2.487-0.373,4.29-0.497,5.533-0.497
					c1.181,0,2.735,0.187,4.849,0.559C528.211,51.969,529.766,52.156,530.76,52.156z"/>
			</g>
		</g>
	</g>
	<polygon fill="#D8AF3B" points="1120.431,117.695 1126.077,24.486 1093.267,1.949 1008.951,1.666 999.283,92.955 1032.271,121.107 
			"/>
	<polygon fill="#D8AF3B" points="829.742,114.108 837.514,24.488 801.251,3.766 721.994,2.731 717.509,4.794 708.006,89.242 
		742.246,120.254 	"/>
	<g>
		<path fill="#782987" d="M749.076,27.831c-0.09,0.284-0.234,1.991-0.431,5.117c-0.278,3.697-2.368,25.879-6.251,66.548
			c-0.099,4.834-0.673,12.038-1.707,21.612l-0.287,0.285l-0.568-0.143l-0.281,0.287l-31.854-28.581
			c-0.479-1.229-0.711-3.078-0.711-5.546c0-3.221,0.521-11.325,1.566-24.313c1.041-12.988,2.225-26.451,3.555-40.383
			c0.568-5.781,1.377-12.277,2.421-19.481l0.848,0.283c0.752,0.762,1.472,1.186,2.134,1.281c5.592,3.603,11.141,7.252,16.639,10.949
			C741.632,20.77,746.611,24.798,749.076,27.831z M744.383,35.51l-0.997-2.562l-22.18-16.352c-0.573,0-1.186-0.331-1.85-0.996
			c-0.666-0.662-1.233-0.996-1.709-0.996l-0.28,0.143c-0.284,0.476-0.618,1.186-0.996,2.135c0,0.093,0.052,0.19,0.142,0.285
			c0,0.192,0,0.331,0,0.425c0,0.097-0.051,0.238-0.142,0.428c-0.099,0.192-0.145,0.331-0.145,0.425l-5.259,62.708v0.995
			c0,2.845,1.229,5.403,3.697,7.677c3.699,3.416,7.34,6.827,10.945,10.239c5.6,4.929,9.387,7.536,11.379,7.821
			c0.66-0.285,0.994-0.709,0.994-1.282L744.383,35.51z M840.646,24.561c-2.653,0.568-8.812,0.854-18.484,0.854h-2.703
			c-5.687,0-14.263,0.118-25.732,0.355c-11.471,0.237-20.101,0.354-25.879,0.354c-10.617,0-16.64-0.285-18.062-0.852
			c-1.519-1.515-5.115-4.268-10.806-8.247c-4.928-3.225-12.326-8.154-22.18-14.788l0.567-0.571
			c9.387-0.376,19.905-0.568,31.567-0.568c5.021,0,12.555,0.048,22.607,0.143c10.041,0.093,17.581,0.143,22.607,0.143
			c3.315,0,5.781,0.093,7.398,0.282l0.145,0.284c2.742,0.76,7.456,3.465,14.143,8.105c6.685,4.647,11.587,7.492,14.715,8.533
			l0.144,0.429C830.979,19.11,834.296,20.958,840.646,24.561z M736.99,54.988c-0.195,5.879-1.094,14.697-2.702,26.45l-1.421-0.855
			l-0.568-0.71c0-0.568,0.046-1.42,0.139-2.56c0.096-1.138,0.143-1.991,0.143-2.56c0-1.611-0.992-3.174-2.985-4.692
			c-1.706-1.138-3.362-2.276-4.978-3.412c-0.85-1.992-1.99-2.986-3.41-2.986c-0.195,0-0.475,0.094-0.852,0.284
			c-0.099,1.234-0.287,3.083-0.569,5.547l-2.276-1.849c0.571-5.689,1.468-14.221,2.701-25.598c0.285,0.57,0.854,1.138,1.71,1.708
			c0,0.095,0.042,0.238,0.135,0.425c0,0.286,0,0.477,0,0.57c0,0.38-0.05,0.972-0.135,1.776c-0.095,0.807-0.146,1.449-0.146,1.918
			c0,0.192,0.052,0.522,0.146,0.996c0,0.477,0,0.854,0,1.138c0.376,0.191,1.181,0.997,2.416,2.42
			c0.95,1.043,1.942,1.562,2.986,1.562c0.476,0,1.35,0.854,2.626,2.56c1.286,1.706,2.208,2.56,2.777,2.56
			c1.228,0,1.848-1.992,1.848-5.971l0.569-0.286l1.275,1.424L736.99,54.988z M826.855,21.574L796.993,4.085
			c-0.659-0.381-11.184-0.572-31.566-0.572c-23.229,0-35.211,0.383-35.977,1.138c0.291,0.098,0.432,0.192,0.432,0.287l-0.141,0.143
			l25.022,16.918c1.227,0.854,9.289,1.282,24.176,1.282C809.17,23.281,825.148,22.712,826.855,21.574z M840.507,29.112
			c0,0.378-0.143,1.444-0.426,3.199c-0.29,1.755-0.337,2.915-0.146,3.481l-7.39,66.973c-0.762,6.826-1.617,11.895-2.564,15.215
			l-1.137-0.285c-0.855,0.188-1.989,0.332-3.41,0.428c-0.384,0-9.245,0.567-26.59,1.707c-10.618,0.755-19.435,1.134-26.449,1.134
			c-3.219,0-5.593,0.192-7.111,0.572l-1.132-0.287c-2.564,0.572-6.024,0.947-10.385,1.139c-5.213,0.188-8.672,0.376-10.381,0.568
			c-0.473-0.947-0.847-1.849-1.141-2.702l8.113-89.58c0.849-1.801,1.892-2.988,3.123-3.555c2.279,0.19,3.936,0.282,4.979,0.282
			c1.607,0,4.049-0.115,7.322-0.356c3.272-0.233,5.713-0.355,7.325-0.355c7.296,0,18.222-0.07,32.771-0.211
			c14.554-0.144,25.434-0.213,32.637-0.213C839.839,26.267,840.507,27.215,840.507,29.112z M804.533,16.453h-0.719
			c-0.277,0-0.754,0-1.419,0c-0.659,0.097-1.183,0.143-1.559,0.143c-0.859,0-2.064-0.307-3.624-0.923
			c-1.566-0.615-2.775-0.925-3.631-0.925c-2.182,0-5.5-0.045-9.957-0.143c-4.455-0.091-7.82-0.142-10.088-0.142
			c-3.229,0-5.878,0.24-7.967,0.713l-0.144,0.282c0.191,0.191,0.765,0.522,1.71,0.995l0.277,0.286
			c-0.946,0.192-1.607,0.285-1.987,0.285c-0.377,0-1.021-0.049-1.919-0.142c-0.899-0.095-1.594-0.143-2.061-0.143
			c-1.424-0.853-3.555-2.226-6.397-4.122c-0.573-0.665-1.475-1.566-2.701-2.705h2.272c2.364,0,3.699,0.383,3.981,1.139l0.425,0.428
			c1.799,0.282,6.308,0.425,13.512,0.425h11.939c3.699,0,5.545-0.331,5.545-0.995c-0.565-0.567-1.043-0.944-1.422-1.135
			c0.476-0.095,1.144-0.143,1.992-0.143c0.377,0,0.994,0,1.852,0c0.76,0.095,1.328,0.143,1.705,0.143
			C796.802,11.099,800.265,13.327,804.533,16.453z M830.979,39.646c0-1.9-0.853-3.187-2.56-3.854l-0.431,0.71l-1.134-0.71
			c-20.949,0.191-42.422,0.71-64.418,1.566c-2.27,1.326-3.742,5.402-4.408,12.227l-4.972,52.044c-0.097,0.947-0.14,2.37-0.14,4.265
			c0,3.505,0.85,5.831,2.558,6.966l66.263-3.837l1.845-2.855l6.689-57.955c-0.098-0.379-0.146-0.95-0.146-1.711
			c0-0.762,0.146-1.903,0.424-3.427C830.836,41.549,830.979,40.409,830.979,39.646z"/>
		<g id="XMLID_48_">
			<g>
				<path fill="#050505" d="M806.646,52.156c-0.187,0.249-0.373,1.243-0.621,2.922c-0.249,1.616-0.809,2.486-1.616,2.486
					c-0.312,0-0.809-0.062-1.492-0.249c-0.746-0.124-1.306-0.187-1.679-0.187c-0.746,0-1.243,0.435-1.554,1.243l-0.436,0.187
					c0,0.062,0.062,0.249,0.187,0.56c0,0.311,0,0.498,0,0.684c0,1.181-0.311,2.859-0.87,5.097c-0.56,2.176-0.87,3.854-0.87,5.036
					c0,0.559,0.062,1.368,0.124,2.486c0.124,1.057,0.187,1.927,0.187,2.487c0,1.305-0.373,3.232-1.181,5.843
					c-0.746,2.549-1.119,4.538-1.119,5.968c0,2.922,1.927,4.414,5.844,4.414l0.311-0.311c0.373,0.373,0.56,0.87,0.56,1.43
					c0,0.497-0.187,1.181-0.436,2.176c-0.311,0.995-0.373,1.865-0.124,2.486c-0.995-0.062-2.425-0.124-4.289-0.124
					c-2.674,0-4.911,0.249-6.714,0.746c-0.373-0.125-0.933-0.187-1.679-0.187c-4.849,0-6.9,0.062-6.278,0.187
					c-0.56,0.249-1.244,0.373-1.989,0.373c-0.436,0-1.182-0.062-2.114-0.249s-1.678-0.311-2.113-0.311v-2.673
					c0-1.989,1.181-3.046,3.543-3.17c2.362-0.062,3.668-0.995,3.979-2.797c0.249-1.803,0.498-6.527,0.685-14.111
					c0.187-5.968,0.87-10.443,1.989-13.49c0-2.486-0.933-3.73-2.798-3.73c-0.311,0-0.746,0.125-1.306,0.311S781.718,58,781.345,58
					s-0.621-0.125-0.746-0.311c-0.187-0.187-0.248-0.497-0.248-0.995c0-0.062,0.311-1.865,0.87-5.284
					c1.43,0.373,3.046,0.622,4.849,0.622c1.182,0,3.046-0.187,5.533-0.498c2.424-0.373,4.289-0.497,5.532-0.497
					c1.119,0,2.735,0.187,4.849,0.559C804.036,51.969,805.589,52.156,806.646,52.156z"/>
			</g>
		</g>
	</g>
	<g>
		<path fill="#354FA2" d="M1040.659,27.831c-0.094,0.284-0.235,1.991-0.425,5.117c-0.285,3.697-2.366,25.879-6.258,66.548
			c-0.09,4.834-0.662,12.038-1.705,21.612l-0.287,0.285l-0.566-0.143l-0.289,0.287l-31.846-28.581
			c-0.475-1.229-0.713-3.078-0.713-5.546c0-3.221,0.517-11.325,1.561-24.313c1.044-12.988,2.238-26.451,3.561-40.383
			c0.568-5.781,1.369-12.277,2.416-19.481l0.855,0.283c0.758,0.762,1.469,1.186,2.131,1.281c5.595,3.603,11.139,7.252,16.633,10.949
			C1033.216,20.77,1038.195,24.798,1040.659,27.831z M1035.966,35.51l-0.992-2.562l-22.184-16.352c-0.566,0-1.186-0.331-1.854-0.996
			c-0.655-0.662-1.223-0.996-1.699-0.996l-0.287,0.143c-0.281,0.476-0.619,1.186-0.996,2.135c0,0.093,0.043,0.19,0.141,0.285
			c0,0.192,0,0.331,0,0.425c0,0.097-0.046,0.238-0.141,0.428c-0.095,0.192-0.136,0.331-0.136,0.425l-5.267,62.708v0.995
			c0,2.845,1.235,5.403,3.7,7.677c3.687,3.416,7.345,6.827,10.95,10.239c5.584,4.929,9.378,7.536,11.371,7.821
			c0.658-0.285,0.995-0.709,0.995-1.282L1035.966,35.51z M1132.233,24.561c-2.657,0.568-8.817,0.854-18.489,0.854h-2.698
			c-5.68,0-14.267,0.118-25.739,0.355c-11.471,0.237-20.097,0.354-25.877,0.354c-10.618,0-16.631-0.285-18.06-0.852
			c-1.516-1.515-5.116-4.268-10.807-8.247c-4.928-3.225-12.325-8.154-22.181-14.788l0.568-0.571
			c9.383-0.376,19.91-0.568,31.564-0.568c5.024,0,12.564,0.048,22.615,0.143c10.043,0.093,17.577,0.143,22.604,0.143
			c3.324,0,5.779,0.093,7.396,0.282l0.137,0.284c2.751,0.76,7.47,3.465,14.152,8.105c6.686,4.647,11.592,7.492,14.718,8.533
			l0.138,0.429C1122.566,19.11,1125.88,20.958,1132.233,24.561z M1028.574,54.988c-0.188,5.879-1.086,14.697-2.702,26.45
			l-1.421-0.855l-0.57-0.71c0-0.568,0.047-1.42,0.146-2.56c0.09-1.138,0.14-1.991,0.14-2.56c0-1.611-0.996-3.174-2.989-4.692
			c-1.703-1.138-3.366-2.276-4.971-3.412c-0.855-1.992-1.988-2.986-3.416-2.986c-0.189,0-0.477,0.094-0.856,0.284
			c-0.091,1.234-0.279,3.083-0.565,5.547l-2.275-1.849c0.569-5.689,1.468-14.221,2.699-25.598c0.285,0.57,0.855,1.138,1.707,1.708
			c0,0.095,0.048,0.238,0.145,0.425c0,0.286,0,0.477,0,0.57c0,0.38-0.047,0.972-0.145,1.776c-0.099,0.807-0.138,1.449-0.138,1.918
			c0,0.192,0.039,0.522,0.138,0.996c0,0.477,0,0.854,0,1.138c0.376,0.191,1.188,0.997,2.418,2.42
			c0.944,1.043,1.941,1.562,2.985,1.562c0.474,0,1.353,0.854,2.637,2.56c1.273,1.706,2.196,2.56,2.766,2.56
			c1.233,0,1.853-1.992,1.853-5.971l0.562-0.286l1.29,1.424L1028.574,54.988z M1118.439,21.574l-29.857-17.489
			c-0.664-0.381-11.193-0.572-31.564-0.572c-23.229,0-35.223,0.383-35.977,1.138c0.277,0.098,0.424,0.192,0.424,0.287l-0.146,0.143
			l25.03,16.918c1.232,0.854,9.288,1.282,24.173,1.282C1100.762,23.281,1116.731,22.712,1118.439,21.574z M1132.084,29.112
			c0,0.378-0.135,1.444-0.425,3.199c-0.278,1.755-0.324,2.915-0.141,3.481l-7.393,66.973c-0.758,6.826-1.607,11.895-2.555,15.215
			l-1.141-0.285c-0.852,0.188-1.992,0.332-3.414,0.428c-0.378,0-9.239,0.567-26.59,1.707c-10.619,0.755-19.438,1.134-26.441,1.134
			c-3.23,0-5.601,0.192-7.119,0.572l-1.135-0.287c-2.56,0.572-6.021,0.947-10.381,1.139c-5.214,0.188-8.676,0.376-10.377,0.568
			c-0.477-0.947-0.859-1.849-1.139-2.702l8.107-89.58c0.855-1.801,1.896-2.988,3.128-3.555c2.274,0.19,3.929,0.282,4.974,0.282
			c1.607,0,4.057-0.115,7.321-0.356c3.272-0.233,5.708-0.355,7.321-0.355c7.298,0,18.225-0.07,32.783-0.211
			c14.543-0.144,25.426-0.213,32.628-0.213C1131.428,26.267,1132.084,27.215,1132.084,29.112z M1096.115,16.453h-0.71
			c-0.284,0-0.765,0-1.421,0c-0.666,0.097-1.188,0.143-1.563,0.143c-0.853,0-2.065-0.307-3.632-0.923
			c-1.559-0.615-2.768-0.925-3.617-0.925c-2.185,0-5.499-0.045-9.958-0.143c-4.458-0.091-7.819-0.142-10.1-0.142
			c-3.219,0-5.878,0.24-7.96,0.713l-0.137,0.282c0.18,0.191,0.748,0.522,1.699,0.995l0.29,0.286
			c-0.944,0.192-1.617,0.285-1.989,0.285c-0.385,0-1.021-0.049-1.92-0.142c-0.906-0.095-1.592-0.143-2.063-0.143
			c-1.419-0.853-3.559-2.226-6.399-4.122c-0.573-0.665-1.47-1.566-2.707-2.705h2.279c2.369,0,3.692,0.383,3.983,1.139l0.427,0.428
			c1.796,0.282,6.302,0.425,13.502,0.425h11.946c3.697,0,5.548-0.331,5.548-0.995c-0.571-0.567-1.043-0.944-1.419-1.135
			c0.472-0.095,1.135-0.143,1.989-0.143c0.377,0,0.996,0,1.848,0c0.748,0.095,1.322,0.143,1.703,0.143
			C1088.389,11.099,1091.849,13.327,1096.115,16.453z M1122.566,39.646c0-1.9-0.855-3.187-2.563-3.854l-0.423,0.71l-1.141-0.71
			c-20.949,0.191-42.422,0.71-64.413,1.566c-2.275,1.326-3.751,5.402-4.406,12.227l-4.978,52.044
			c-0.095,0.947-0.146,2.37-0.146,4.265c0,3.505,0.854,5.831,2.562,6.966l66.264-3.837l1.851-2.855l6.681-57.955
			c-0.102-0.379-0.143-0.95-0.143-1.711c0-0.762,0.143-1.903,0.427-3.427C1122.42,41.549,1122.566,40.409,1122.566,39.646z"/>
		<g id="XMLID_47_">
			<g>
				<path fill="#050505" d="M1098.26,52.156c-0.187,0.249-0.436,1.243-0.622,2.922c-0.249,1.616-0.808,2.486-1.679,2.486
					c-0.248,0-0.746-0.062-1.491-0.249c-0.685-0.124-1.244-0.187-1.616-0.187c-0.746,0-1.306,0.435-1.555,1.243l-0.436,0.187
					c0,0.062,0.062,0.249,0.125,0.56c0,0.311,0,0.498,0,0.684c0,1.181-0.249,2.859-0.87,5.097c-0.56,2.176-0.809,3.854-0.809,5.036
					c0,0.559,0,1.368,0.124,2.486c0.125,1.057,0.125,1.927,0.125,2.487c0,1.305-0.373,3.232-1.119,5.843
					c-0.746,2.549-1.119,4.538-1.119,5.968c0,2.922,1.927,4.414,5.781,4.414l0.311-0.311c0.373,0.373,0.56,0.87,0.56,1.43
					c0,0.497-0.124,1.181-0.435,2.176c-0.249,0.995-0.312,1.865-0.125,2.486c-0.932-0.062-2.362-0.124-4.289-0.124
					c-2.61,0-4.849,0.249-6.651,0.746c-0.373-0.125-0.933-0.187-1.74-0.187c-4.787,0-6.9,0.062-6.217,0.187
					c-0.56,0.249-1.243,0.373-1.989,0.373c-0.497,0-1.182-0.062-2.176-0.249c-0.933-0.187-1.616-0.311-2.113-0.311v-2.673
					c0-1.989,1.181-3.046,3.543-3.17c2.362-0.062,3.729-0.995,3.979-2.797c0.311-1.803,0.56-6.527,0.746-14.111
					c0.187-5.968,0.87-10.443,1.989-13.49c0-2.486-0.933-3.73-2.859-3.73c-0.249,0-0.685,0.125-1.243,0.311
					c-0.622,0.187-1.058,0.311-1.431,0.311c-0.372,0-0.684-0.125-0.808-0.311s-0.187-0.497-0.187-0.995
					c0-0.062,0.249-1.865,0.808-5.284c1.431,0.373,3.047,0.622,4.85,0.622c1.243,0,3.108-0.187,5.532-0.498
					c2.486-0.373,4.352-0.497,5.595-0.497c1.119,0,2.735,0.187,4.787,0.559C1095.649,51.969,1097.203,52.156,1098.26,52.156z"/>
			</g>
		</g>
	</g>
	<polygon fill="#D8AF3B" points="577.478,102.709 602.861,120.839 691.966,105.818 683.675,13.606 659.172,1.525 574.889,13.087 
		571.297,14.891 	"/>
	<polygon fill="#D8AF3B" points="1135.412,110.586 1136.833,20.293 1168.554,2.719 1230.964,8.634 1250.919,8.935 1254.027,23.956 
		1252.862,95.798 1227.554,122.102 	"/>
	<g>
		<path fill="#0C8843" d="M599.596,121.536l-0.569,0.852l-21.466-17.918c-0.574-0.471-1.618-9.856-3.136-28.153
			c-1.043-10.141-2.08-20.285-3.128-30.429c-1.23-12.132-1.848-22.272-1.848-30.43v-0.996l0.569-0.14l0.717,0.568h0.562
			c11.666,5.688,18.582,9.81,20.765,12.372c0-0.095,0.188,1.611,0.565,5.117c1.236,10.904,2.464,25.737,3.703,44.508
			C597.751,98.594,598.839,113.476,599.596,121.536z M686.906,12.332c-1.991,1.044-28.012,4.644-78.068,10.806l-9.241,1.139
			c-3.036,0.379-4.784,0.568-5.258,0.568c-2.754,0-10.526-3.886-23.321-11.66l-0.281-0.709c2.745,0,11.462-0.996,26.158-2.988
			c13.841-2.085,34.596-4.738,62.278-7.962L686.906,12.332z M596.038,107.314c0-5.211-0.849-17.914-2.554-38.105
			c-1.708-21.232-3.037-32.895-3.976-34.979l-14.511-8.815h-0.851l-0.854-0.713h-0.713c-0.096,0.285-0.144,0.807-0.144,1.566v2.559
			l5.404,62.99c0.289,3.128,1.327,5.546,3.131,7.252c4.833,4.55,9.573,8.198,14.218,10.948l0.717-0.281
			C595.99,109.163,596.038,108.358,596.038,107.314z M590.355,77.027c-1.421,0.854-2.938,1.991-4.551,3.416
			c-0.763,0.281-1.274,0.804-1.566,1.562l-1.701,0.852h-0.146c0,0.477-0.047,1.473-0.146,2.988c-0.09,1.231-0.09,2.181,0,2.843
			c-0.752-0.379-1.086-0.571-0.996-0.571l-0.423-0.568c-0.28-2.084-0.945-10.38-1.99-24.884l0.29,0.853h0.566l0.431,0.287
			c0.182,1.42,0.47,3.602,0.849,6.541l0.71,0.14l1.134-1.278l0.858,0.286l3.271-2.562c-0.67-1.706-1.919-4.004-3.77-6.896
			c-1.853-2.89-3.104-5.048-3.771-6.469v0.712c0,0.57,0.047,1.448,0.146,2.63c0.09,1.187,0.142,2.062,0.142,2.629l-0.997-1.279
			l-0.287,0.143c-1.134-5.876-1.708-11.851-1.708-17.918v-1.562h0.434l0.996,0.853c0.091,1.138,0.278,2.892,0.565,5.26
			c0.945,1.231,1.851,3.178,2.699,5.83c0.761,0.665,1.282,1.375,1.569,2.135l0.423,0.281c2.752,4.93,4.553,8.725,5.404,11.376
			C589.833,67.976,590.355,72.101,590.355,77.027z M673.25,12.475l-0.136-0.428c-10.237-5.497-17.497-8.248-21.757-8.248
			c-0.76,0-1.518,0.048-2.271,0.143l-67.404,9.242c3.226,1.803,6.489,3.604,9.808,5.403c4.549,2.371,7.828,3.555,9.819,3.555
			c3.789,0,16.227-1.397,37.325-4.195C659.722,15.152,671.263,13.327,673.25,12.475z M693.305,102.481
			c0,2.747-0.196,5.212-0.573,7.395l-1.142-0.142c-1.515,0.567-2.692,0.852-3.552,0.852l-3.124,0.426l-45.215,6.541
			c-3.327,0.188-8.252,0.901-14.789,2.134l-0.29-0.143c-2.082,0-5.778,0.428-11.088,1.282c-5.309,0.852-8.957,1.609-10.951,2.274
			l-1.707-2.701l-7.252-90.577c0.667-1.707,1.469-3.033,2.415-3.982c2.659,0,6.073-0.376,10.24-1.138
			c5.402-0.944,8.773-1.466,10.096-1.563c3.889-0.376,15.452-2.179,34.696-5.402c14.028-2.277,25.599-3.413,34.695-3.413h0.423
			c1.328,0,2.137,1.327,2.424,3.979c0.188,1.991,0.376,3.937,0.565,5.831l3.841,69.958
			C693.207,97.503,693.305,100.303,693.305,102.481z M683.918,98.643l-2.985-60.292c-0.377-0.852-0.57-2.89-0.57-6.113
			c0-3.885-1.233-6.02-3.694-6.399l-0.29,0.428l-1.421-0.428c-22.179,2.75-44.743,5.831-67.684,9.243
			c-1.8,1.706-2.698,4.647-2.698,8.815c0,7.776,0.471,17.255,1.419,28.438c0.946,9.483,1.853,18.962,2.708,28.439
			c0.475,6.163,1.936,9.858,4.407,11.091l69.245-10.235L683.918,98.643z M657.899,12.332c-3.324,0.947-7.493,1.661-12.518,2.131
			c-4.172,0.382-8.341,0.761-12.514,1.138l-0.137-0.283l-1.419-0.427c2.645-0.568,4.637-0.898,5.966-0.996
			c-1.046-0.286-6.351-1.09-15.925-2.416l-1.143,0.568v0.571l0.573,0.425v0.428l-0.997,0.566l0.718,1.991
			c0.751,0,1.868-0.095,3.339-0.284c1.468-0.189,2.578-0.286,3.34-0.286l0.425,0.57l0.713,0.144
			c-7.392,1.612-14.133,2.416-20.19,2.416l-1.14-0.568c1.14-0.094,2.791-0.378,4.977-0.853l-0.146-0.428l0.997-0.711v-0.284h0.291
			c0.276-0.094,0.423-0.189,0.423-0.286c0-0.282-0.192-0.519-0.568-0.71l0.287-0.285l-0.287-0.282l0.995-0.71l-0.144-1.139
			l0.29-0.71l0.996-0.571l-0.294-0.425l0.426-0.285c5.597-0.854,9.337-1.281,11.239-1.281c2.745,0,6.487,0.427,11.234,1.281
			c5.307,0.949,9.047,1.471,11.231,1.562v0.143h2.268c1.807,0,3.56-0.143,5.271-0.425l1.422,0.425V12.332z"/>
		<g id="XMLID_46_">
			<g>
				<path fill="#050505" d="M668.268,49.048c-0.187,0-0.497,0-0.994,0c-0.498,0-0.871,0-1.119,0c-1.555,0-2.549,0.497-3.171,1.554
					c0.125,0.187,0.187,0.56,0.187,1.119c0,0.87-0.435,2.114-1.367,3.792c-0.87,1.616-1.368,2.859-1.368,3.73
					c-0.808,0.87-1.243,2.3-1.243,4.289s-0.187,3.233-0.56,3.854c-0.311,3.108-1.305,7.273-2.983,12.495
					c-2.673,8.33-3.979,12.557-3.979,12.619c-1.057,0.808-4.165,1.181-9.263,1.181c-0.187,0-0.56-0.062-1.119-0.187
					c-0.497,0-0.87,0-1.181,0c-1.803-4.725-3.605-9.449-5.533-14.173c-2.549-6.279-4.725-10.568-6.527-12.806
					c-0.124-1.057-0.559-2.424-1.43-4.227c-0.87-1.741-1.367-3.108-1.554-4.041l0.249-0.435l-0.436-0.684
					c-1.679-1.057-3.979-1.554-6.776-1.554c0.062-0.187,0.125-0.497,0.125-0.87c0-0.497-0.125-1.119-0.312-1.865
					c-0.187-0.746-0.248-1.306-0.248-1.679c0-0.187,0.062-0.435,0.124-0.746c0-0.249,0-0.435,0-0.559
					c0.373-0.436,1.306-0.684,2.735-0.684c2.735,0,6.59-0.373,11.5-1.119c6.217-0.995,10.133-1.554,11.625-1.741
					c-0.248,0.311-0.373,0.684-0.373,1.305c0,0.436,0.062,1.181,0.249,2.114s0.311,1.678,0.311,2.114l-0.187,0.311
					c-0.435,0.373-0.994,0.435-1.678,0.249c-1.119,0.187-2.674,0.871-4.538,1.989c0,1.43,0.621,3.419,1.989,5.968
					c1.305,2.611,1.989,4.663,1.989,6.154l6.216,14.795c0.684-1.368,1.43-4.165,2.176-8.392c0.622-3.792,1.555-6.403,2.673-7.833
					c0.56-3.419,0.871-6.03,0.871-7.833c0.373-0.56,0.684-1.43,0.87-2.673c0.062-1.74,0.187-2.673,0.248-2.859
					c-0.248-0.373-0.808-0.684-1.554-0.87l-3.419,0.87c-0.187,0-0.684-0.187-1.43-0.56c0-0.373,0.062-0.932,0.248-1.741
					c0.125-0.746,0.187-1.367,0.187-1.803c0-0.684-0.124-1.305-0.435-1.865c1.367-0.187,3.356-0.498,5.968-0.995
					c0.124,0,0.373-0.062,0.808-0.249c0.436-0.125,0.746-0.187,0.933-0.187h1.865c0.746,0,1.865-0.125,3.356-0.435
					c1.555-0.249,2.674-0.436,3.419-0.436c0.312,0,0.746-0.124,1.306-0.311c0.56-0.249,1.057-0.373,1.43-0.373
					c0.062,0,0.249,0.062,0.436,0.125c0.187,0.124,0.311,0.124,0.436,0.124C668.02,44.323,668.082,46.312,668.268,49.048z"/>
			</g>
		</g>
	</g>
	<g>
		<path fill="#3EB54A" d="M1227.267,35.935v2.987l-1.134,68.963c0,3.412-0.423,8.436-1.283,15.071
			c-1.515-0.568-9.666-1.612-24.456-3.126c-14.787-1.518-23.604-2.277-26.444-2.277c-1.617,0-4.179-0.334-7.687-0.995
			c-3.504-0.666-6.203-0.947-8.099-0.853c-1.142-0.381-4.603-0.854-10.383-1.422c-5.401-0.476-9.099-0.709-11.089-0.709
			l-1.281-2.988l-1.143-87.021c0.766-1.611,1.618-2.701,2.564-3.272c2.561,0.571,5.777,0.95,9.67,1.138
			c3.32,0.193,6.587,0.38,9.809,0.568c13.746,1.139,34.368,3.036,61.856,5.688c1.519,0.097,3.696,0.38,6.546,0.854
			C1226.414,28.92,1227.267,31.384,1227.267,35.935z M1253.294,9.202c-1.709,0.762-6.4,4.077-14.084,9.953
			c-6.728,5.121-11.134,7.679-13.222,7.679c-1.325,0-4.032-0.188-8.104-0.567l-67.967-6.259c-3.324-0.091-8.251-0.613-14.789-1.563
			l0.711-0.143c0.854-0.943,5.639-3.698,14.358-8.248c10.529-5.403,16.018-8.247,16.497-8.53c6.066,0,21.188,0.996,45.361,2.985
			C1237.462,6.598,1251.207,8.161,1253.294,9.202z M1218.025,50.865c0-0.188-0.066-0.592-0.211-1.208
			c-0.143-0.616-0.217-1.114-0.217-1.493c0-0.57,0.074-1.424,0.217-2.558c0.145-1.139,0.211-2.041,0.211-2.703
			c0-2.562-1.087-4.312-3.268-5.263l-0.283,0.427h-0.566l-0.854-0.852c-3.893-0.379-13.085-1.706-27.589-3.982
			c-11.283-1.706-20.476-2.559-27.582-2.559c-3.701,0-7.397,0.285-11.094,0.853c-2.184,1.329-3.271,4.975-3.271,10.948
			c0,6.353,0.09,14.931,0.287,25.736c0.185,12.703,0.281,21.33,0.281,25.879c0,5.783,1.139,9.623,3.414,11.517l67.685,6.828
			l1.702-2.56L1218.025,50.865z M1241.201,10.198c-1.699-0.567-5.116-1.09-10.236-1.564l-47.631-4.124
			c-4.361-0.376-6.967-0.568-7.822-0.568c-0.859,0-2.13,0.094-3.838,0.286l-23.463,13.221c1.518,0.381,2.177,0.571,1.987,0.571
			l57.876,5.261c5.213,0.476,8.342,0.709,9.385,0.709c1.896,0,3.273-0.142,4.12-0.425h-0.146c0.195,0,6.734-4.313,19.627-12.94
			L1241.201,10.198z M1224.283,10.908c-0.477,0.19-1.186,0.664-2.131,1.423l-0.145,0.425c-0.764,0.475-1.942,1.043-3.552,1.706
			c-0.188,0.477-0.663,0.905-1.429,1.281v0.428c-0.376,0.094-0.975,0.355-1.772,0.78c-0.809,0.429-1.444,0.69-1.919,0.784
			l-2.413,2.133c-7.495,0-13.276-0.522-17.351-1.566l2.132-0.996c0.853,0,2.039,0,3.556,0c1.606,0.097,2.791,0.142,3.549,0.142
			c3.79,0,6.211-0.424,7.254-1.277l-0.137-0.428l2.985-1.421c-3.417-0.662-7.164-0.996-11.236-0.996
			c-0.854,0-1.801,0.144-2.849,0.425l0.295,0.571c0.564,0.282,1.489,0.45,2.766,0.498c1.283,0.048,2.205,0.213,2.773,0.497
			l-0.71,0.141l-0.993,0.852c-4.359-0.282-10.855-0.852-19.48-1.705c0.561-0.755,1.656-1.134,3.271-1.134
			c0.471,0,1.151,0.049,2.057,0.138c0.906,0.097,1.587,0.144,2.064,0.144c1.895,0,2.981-0.376,3.271-1.135
			c-7.302-0.759-11.473-1.139-12.516-1.139c-0.762,0-1.52,0.191-2.272,0.568c-1.044,0.476-1.761,0.758-2.139,0.853l0.15,0.285
			l-0.573,0.853l0.286,0.286l-0.143,0.425c0.657,0.38,2.108,0.763,4.337,1.139c2.221,0.379,3.763,0.477,4.619,0.285l-0.139,0.425
			c-0.766,0.191-1.42,0.476-1.992,0.853c-2.939-0.09-5.924-0.188-8.959-0.282c-3.605-0.191-6.497-0.665-8.671-1.423h0.565v-0.286
			c1.51-0.662,3.553-1.85,6.112-3.555c1.421-0.282,4.27-1.8,8.534-4.55c2.469,0.191,4.359,0.286,5.686,0.286l-0.279,0.425
			c-0.384,0.097-0.949,0.333-1.714,0.713c0.95,0.282,5.835,0.804,14.651,1.563c8.432,0.758,13.65,1.138,15.643,1.138
			c1.61,0,2.794-0.286,3.553-0.853v-0.143C1222.576,10.769,1224.373,10.908,1224.283,10.908z M1254.993,18.445
			c0-1.042-0.188,5.451-0.569,19.481l-1.562,57.872c0,1.611-0.854,3.223-2.554,4.836l-18.347,18.056
			c-0.848,0.947-2.323,2.085-4.407,3.411c0.09-0.377,0.146-0.899,0.146-1.562c0-0.379,0-0.902,0-1.564
			c-0.1-0.762-0.146-1.329-0.146-1.705c0,0.568,0.188-8.487,0.57-27.161c0.572-28.059,0.852-47.018,0.852-56.876
			c0-1.42,0.326-3.222,0.996-5.403l24.318-17.205C1254.766,11.384,1254.993,13.992,1254.993,18.445z M1252.439,30.816
			c0-4.075-0.236-6.778-0.711-8.104l-0.717-0.284c-3.121,1.329-6.919,3.745-11.371,7.25c-5.311,4.265-7.966,7.586-7.966,9.954
			l-1.279,69.959l0.854,0.854l16.071-15.073c0.182-0.378,0.751-0.997,1.7-1.85c0.666-0.474,1.189-1.894,1.565-4.264v-0.286
			c0-6.542,0.31-16.254,0.922-29.149C1252.128,46.932,1252.439,37.264,1252.439,30.816z M1248.024,37.358
			c0,2.179-0.114,5.497-0.353,9.953c-0.236,4.455-0.351,7.818-0.351,10.095c0,2.653,0.139,4.599,0.425,5.828
			c-0.377,2.276-0.573,8.295-0.573,18.061l-0.71,0.995l-1.277,0.71l-0.57,0.996l-0.565,0.142l-0.995,1.278l-0.572,0.144l0.139-5.261
			c1.807-1.8,2.896-5.261,3.281-10.382c0.09-3.885,0.18-7.771,0.278-11.659l-0.573-0.142c-0.377,0.379-0.992,0.854-1.844,1.421
			l-0.287,0.57l-0.422,0.142l-0.572,1.421v2.134c0,1.799,0.185,3.08,0.572,3.839l0.995-0.996l0.282,0.283
			c-0.095,0.57-0.145,2.37-0.145,5.402l-2.842,1.85c-0.376,0.762-1.234,1.708-2.561,2.844c0-0.376,0-0.898,0-1.563
			c-0.1-0.662-0.138-1.138-0.138-1.42c0-1.138,0.138-2.181,0.425-3.13l0.285,0.144c1.043-1.612,1.564-3.363,1.564-5.261
			c0-0.38,0-0.947,0-1.709c-0.098-0.755-0.144-1.327-0.144-1.706l-3.701,2.844c-0.38,1.423-0.56,3.036-0.56,4.834
			c0,1.139,0.112,2.988,0.348,5.546c0.24,2.558,0.308,4.549,0.212,5.97c0.386,0.95,0.71,1.615,0.997,1.992
			c0.385-0.376,0.855-0.663,1.428-0.854l0.279-0.709c0.098,0.379,0.146,0.901,0.146,1.563c0,0.476-0.048,1.207-0.146,2.203
			c-0.099,0.996-0.141,1.779-0.141,2.347l-4.41,4.407l-0.566-0.14v-0.996c0-4.929,0.138-12.275,0.432-22.04
			c0.28-9.761,0.425-17.064,0.425-21.897c0.946-0.758,1.511-1.469,1.698-2.133c0.1,0.379,0.146,0.946,0.146,1.706
			c0,0.38,0,0.901,0,1.563c-0.099,0.762-0.146,1.33-0.146,1.707c0,0.855,0.1,1.517,0.291,1.991c0.564,0,1.372-0.52,2.417-1.564
			c0.753-0.759,1.511-1.515,2.271-2.277c1.803,0,3.084-1.323,3.842-3.979c0.566-2.085,0.762-4.125,0.566-6.116l0.43-0.568
			l0.711-0.142L1248.024,37.358z"/>
		<g id="XMLID_45_">
			<g>
				<path fill="#050505" d="M1202.821,53.834c0,0.559-0.062,1.43-0.125,2.486c-0.124,1.119-0.187,1.927-0.187,2.487
					c0,1.181,0.125,1.989,0.312,2.549c-0.312,0.684-0.436,1.43-0.436,2.3c0,0.373,0.062,0.995,0.124,1.865
					c0.125,0.871,0.187,1.492,0.187,1.989c0,0.498-0.124,1.057-0.311,1.865l-5.532-0.871c-0.746-6.092-2.425-9.697-4.974-10.941
					c-2.176-1.057-3.916-1.554-5.159-1.554c-0.56,0-1.119,0.187-1.679,0.559l-7.957-1.43c-0.497,0.933-0.746,1.865-0.746,2.86
					c0,0.373,0.062,0.995,0.187,1.927c0.062,0.871,0.124,1.554,0.124,2.052c0,0.932-0.124,1.616-0.311,2.113
					c0.187,1.057,0.373,2.176,0.622,3.357c0.187,1.181,0.87,1.741,2.113,1.741c0.684,0,1.865-0.311,3.668-0.995l1.616-1.554
					l-0.436-0.435l0.436-0.995c-0.312-0.746-0.436-1.492-0.436-2.238l0.684-0.995c1.492,0.622,3.295,0.87,5.408,0.684l-0.684,10.257
					c0.436,1.243,0.622,2.859,0.56,4.849c0,2.424,0,4.103,0.124,4.973c-0.311,0-0.745,0-1.43,0
					c-0.684,0.062-1.181,0.125-1.554,0.125c-1.616,0-2.673-0.498-3.108-1.43c0.187-0.373,0.249-0.684,0.249-0.995
					c0-3.917-1.679-5.844-5.098-5.844c-0.56,0-1.306,0.125-2.3,0.311l-0.436,13.365c0.995,0.87,2.362,1.306,4.165,1.43
					c2.176,0.187,3.605,0.435,4.228,0.684c1.74,0,3.854-0.436,6.402-1.244c1.182,0,2.114-0.497,2.859-1.368
					c0.746-0.932,1.492-1.803,2.114-2.611c0-0.124,0-0.311,0-0.622c-0.062-0.187-0.124-0.311-0.124-0.373
					c0-0.497,0.062-1.119,0.186-1.927c0.187-0.808,0.249-1.43,0.249-1.803c0-0.498-0.124-0.995-0.311-1.554
					c0.187-0.125,0.56-0.125,0.994-0.125c0.56,0,1.43,0.125,2.611,0.311c1.119,0.249,1.989,0.373,2.549,0.373l0.124,16.349
					l-0.684,1.989l-0.622-0.56l-1.367,0.435c-5.72-0.56-14.235-1.616-25.612-3.17c-0.559,0.125-1.491,0.187-2.734,0.187
					c-1.306,0-5.906-0.622-13.801-1.865v-1.554c0-1.989-0.187-3.419-0.684-4.29c0.56-0.187,0.932-0.249,1.118-0.249
					c0.498,0,1.182,0.187,2.114,0.56c0.87,0.373,1.554,0.56,2.051,0.56c1.492,0,2.238-1.554,2.238-4.725
					c0-0.373-0.062-1.181-0.124-2.549c-0.125-0.995-0.125-1.865,0-2.549c-0.312-0.932-0.436-2.424-0.436-4.414
					c0-1.305,0.062-3.232,0.249-5.719c0.124-2.548,0.187-4.414,0.187-5.657c0-4.352-0.684-7.087-2.114-8.206
					c-1.803-0.684-2.983-0.995-3.605-0.995c-0.621,0-1.118,0-1.367,0.124c-0.311-0.497-0.436-0.995-0.436-1.554
					c0-0.311,0.062-0.995,0.249-1.989c0.124-0.87,0.124-1.554,0-1.989c2.673,0.373,4.662,0.56,5.968,0.56
					c1.43,0,2.673-0.187,3.729-0.56c0.746,0.436,2.176,0.746,4.165,0.933c2.052,0.125,3.544,0.498,4.477,1.057
					c0.187,0,0.435-0.062,0.745-0.187c0.249,0,0.436,0,0.56,0c0.498,0,1.182,0.062,2.114,0.187c0.994,0.062,1.74,0.125,2.3,0.125
					c1.119,0,1.989-0.125,2.549-0.435c2.3,0.124,5.284,0.746,8.951,1.989l9.946,0.124
					C1202.696,52.591,1202.821,53.399,1202.821,53.834z"/>
			</g>
		</g>
	</g>
	<g>
		<polygon fill="#D8AF3B" points="1270.101,9.202 1273.802,97.79 1300.539,122.956 1389.971,113.146 1386.643,17.221 
			1355.048,2.715 		"/>
		<g>
			<path fill="#EE2724" d="M1297.549,118.976c0,1.23-0.047,2.132-0.146,2.702l-0.71-0.285l-0.854-0.994
				c-0.279,0-0.523-0.094-0.708-0.287c-2.468-2.084-6.313-5.733-11.519-10.948c-5.779-5.876-9.053-9.667-9.811-11.373
				c0-1.044-0.051-2.511-0.148-4.408l-2.131-42.092c-1.326-26.161-1.985-40-1.985-41.517l0.563-0.571l22.751,16.494
				c0.856,3.13,1.287,6.211,1.287,9.244c0,9.29,0.563,23.295,1.7,42.018C1296.98,95.681,1297.549,109.685,1297.549,118.976z
				 M1388.835,17.592c-1.23,0.285-5.543,0.759-12.935,1.424c-4.842,0.473-12.046,1.135-21.62,1.988
				c-12.414,1.044-24.461,1.945-36.111,2.701c-12.611,0.855-19.482,1.281-20.62,1.281c-0.767,0-1.989-0.095-3.704-0.285
				c-0.66-0.944-1.82-1.848-3.484-2.702c-1.649-0.853-2.767-1.706-3.338-2.558l-15.924-11.377c0.758-0.282,4.74-0.756,11.939-1.421
				c18.967-1.8,34.322-3.077,46.081-3.84c14.022-0.946,24.028-1.42,29.999-1.42v0.282l1.135,0.428
				c0.951,0.76,3.271,2.134,6.965,4.122c3.036,1.709,7.639,4.126,13.789,7.255v0.138
				C1382.339,14.086,1384.944,15.412,1388.835,17.592z M1294.564,106.89v-0.71l-2.708-66.548c-0.188-3.697-1.374-6.351-3.55-7.962
				l-13.366-9.953c-0.38-0.191-0.901-0.379-1.563-0.571l-0.571,0.285c-0.194,0.665-0.286,1.661-0.286,2.988
				c0,5.214,0.475,17.44,1.43,36.685c1.035,20.665,1.844,31.282,2.412,31.851l15.07,14.93c0.378,0.377,1.278,1.042,2.708,1.991
				C1294.417,108.926,1294.564,107.93,1294.564,106.89z M1290.437,88.119l-0.566,0.144l-1.852-1.421
				c-0.099-0.853-0.66-1.518-1.708-1.991l-0.423-0.571l-0.286-5.545l0.852-0.282c1.141-1.233,1.71-3.84,1.71-7.823
				c0-5.591-0.668-9.668-1.99-12.227h-0.855c-0.286,2.086-0.426,4.17-0.426,6.255c0,1.233,0.092,3.081,0.285,5.546l-0.285,0.567
				c0.092,0.477,0.14,1.233,0.14,2.278c0,5.497-0.662,8.957-1.993,10.376l-0.278-0.281v0.281l-0.281-0.71l-0.573,0.143
				c-3.223-3.696-4.838-12.274-4.838-25.736c0-3.697,0.242-6.873,0.718-9.528c-0.949-1.797-1.425-4.408-1.425-7.819l0.571-0.285
				l0.997,1.281h0.566c0.188,0.567,0.804,1.044,1.848,1.421l0.565,0.852c0,0.383,0.05,0.951,0.14,1.708c0,0.76,0,1.328,0,1.706
				v2.416l-0.705-0.284c-1.139,1.615-1.711,4.646-1.711,9.101c0,5.215,0.572,9.481,1.711,12.797l0.565,0.428
				c0.573-0.853,0.997-4.787,1.283-11.802c0.287-7.679,0.568-12.229,0.847-13.65h0.574l0.568-0.286l0.428,0.144l0.709,0.853h0.43
				c2.646,4.741,3.981,12.846,3.981,24.313c0,3.794-0.191,7.206-0.569,10.238c0.378,1.329,0.711,2.277,0.998,2.845v0.57
				c-0.099,0.474-0.076,1.159,0.07,2.062C1290.361,87.101,1290.437,87.743,1290.437,88.119z M1375.901,16.171l-22.615-12.373
				c-1.135-0.188-2.23-0.233-3.274-0.142l-55.734,3.982c-3.033,0.094-6.781,0.568-11.238,1.42c0.098,0,0.197-0.046,0.293-0.139
				c0.084,0,0.135,0.048,0.135,0.139c0,0.098-0.09,0.24-0.278,0.427c3.409,2.56,6.823,5.118,10.234,7.68
				c4.931,3.317,8.628,4.975,11.096,4.975c8.337,0,18.577-0.519,30.706-1.563c10.146-0.947,20.336-1.897,30.572-2.844
				C1368.074,17.641,1371.443,17.119,1375.901,16.171z M1390.689,103.336c0,4.357-0.244,7.627-0.718,9.81c-0.099,0-0.28,0-0.567,0
				c-0.285-0.094-0.524-0.143-0.707-0.143c-0.383,0-0.977,0.118-1.787,0.355c-0.799,0.236-1.346,0.355-1.623,0.355
				c-10.626,1.138-26.458,2.844-47.5,5.121c-3.314,0.094-8.245,0.615-14.789,1.563c-0.098,0-0.277,0-0.57,0
				c-0.276-0.094-0.475-0.144-0.563-0.144c-0.664,0-1.378,0.236-2.131,0.709c-2.849,0-9.249,0.666-19.194,1.992l-1.568-2.558
				l-3.556-90.151c-0.099-1.327,0.757-2.604,2.56-3.84c2.843,0,7.041-0.307,12.576-0.922c5.553-0.617,9.696-0.923,12.447-0.923
				h1.992l61.994-4.834c1.713-0.094,2.562,2.228,2.562,6.965c0,1.33,0.145,2.277,0.425,2.845L1390.689,103.336z M1357.553,14.604
				c-3.794,0.854-9.621,1.282-17.491,1.282l-1.134-0.71l0.14-0.428c1.705-0.188,4.121-0.804,7.256-1.849l0.425-0.567
				c-1.241-1.514-3.696-2.277-7.397-2.277c-1.891,0-3.508,0.24-4.829,0.714l-0.433,0.709l0.287,0.568l-0.428,0.71l0.573,0.427v0.71
				l0.563,0.71c-1.609,1.897-6.352,2.844-14.218,2.844c-9.673,0-15.269-1.183-16.778-3.554l0.283-0.996l0.996-0.853
				c-0.475-0.094-1.843-0.143-4.129-0.143c0.099-0.375-0.188-0.568-0.85-0.568l-0.282-0.285c1.987-0.376,4.853-0.616,8.599-0.71
				c3.748-0.094,6.471-0.286,8.178-0.568l1.562,0.996c-1.984,0.188-3.46,0.424-4.405,0.709c-1.798,0.474-3.037,1.139-3.691,1.992
				l0.994,0.992c1.893,0.571,3.834,0.855,5.828,0.855c2.463,0,4.171-0.378,5.117-1.137l0.139-0.572l-1.135-1.277l0.429-0.144
				l-0.291-0.995c1.331-1.706,3.56-2.559,6.692-2.559l0.141-0.142h2.131c1.143,0,2.841-0.07,5.125-0.212
				c2.268-0.143,3.975-0.215,5.107-0.215c5.125,0,9.01,1.093,11.669,3.271c0.278,0.095,0.468,0.523,0.565,1.282l-1.283,0.853
				C1353.57,13.47,1355.56,13.849,1357.553,14.604z M1381.728,101.912l-0.425-59.008c-0.384-0.758-0.573-1.709-0.573-2.844
				c0-0.57,0.051-1.35,0.143-2.346c0.09-0.996,0.135-1.73,0.135-2.204c0-2.844-1.132-4.501-3.408-4.978l-0.279,0.284l-0.426,0.144
				l-0.993-0.713c-22.001,1.615-44.364,3.554-67.118,5.83c-2.092,1.804-3.135,5.311-3.135,10.521c0,7.303,0.293,16.404,0.855,27.303
				c0.383,9.101,0.808,18.2,1.281,27.3c0.098,2.75,0.287,4.787,0.569,6.113c0.655,2.465,1.751,4.126,3.269,4.979l68.54-7.536
				L1381.728,101.912z"/>
			<g id="XMLID_44_">
				<g>
					<path fill="#050505" d="M1364.883,78.452c0.249,1.057,0.373,1.865,0.373,2.424c0,5.097-2.611,8.889-7.708,11.376
						c-3.108,1.43-7.896,2.486-14.36,3.232c-1.119-0.373-2.673-0.56-4.538-0.56c-1.927,0-3.979-0.808-6.278-2.424
						c-1.243,2.487-3.605,3.979-7.087,4.414c-0.56-0.932-0.809-2.362-0.622-4.289c0.125-1.989,0.062-3.295-0.248-3.917
						c0.187-0.995,0.311-1.616,0.311-1.989c0-0.684-0.124-1.678-0.311-2.922c-0.187-1.305-0.249-2.238-0.249-2.921
						c0-0.498,0.062-1.181,0.249-2.114c0.124,0,0.311,0,0.56,0c0.187,0.062,0.373,0.125,0.435,0.125
						c0.373,0,0.933-0.062,1.616-0.125c0.746-0.125,1.306-0.187,1.679-0.187c1.803,0,2.425,0.995,1.989,2.86
						c2.611,5.222,7.148,7.833,13.489,7.833c2.549,0,4.787-0.622,6.776-1.927c1.927-1.305,2.922-3.17,2.922-5.595
						c-0.995-2.176-2.735-3.481-5.284-3.854c-3.605-0.498-5.781-0.933-6.527-1.43l-1.989,0.124l-0.436-0.249l-0.87,0.125
						c-0.248-0.125-0.746-0.249-1.367-0.436c-0.622-0.187-1.057-0.311-1.306-0.435c-0.373,0.125-0.933,0.187-1.554,0.187
						c-2.86,0-6.154-1.865-9.822-5.595c-0.124-0.373-0.436-1.43-0.995-3.232c-0.372-1.368-0.559-2.425-0.559-3.295
						c0-0.435,0.062-1.057,0.248-1.865c-0.248-0.56-0.435-1.119-0.435-1.679c0-0.746,0.311-1.741,0.932-2.984
						c0.622-1.243,0.995-2.113,1.058-2.549c0.932-0.87,1.927-1.803,2.921-2.859c0.995-1.057,1.989-1.554,2.922-1.554
						c1.119-1.119,2.301-1.865,3.419-2.051c1.119-0.249,1.928-0.56,2.425-0.933c2.425-0.684,4.662-0.995,6.651-0.995
						c3.979,0,8.02,1.057,12.122,3.232c0.56-0.746,1.243-1.989,1.989-3.667c0.062,0,0.249,0,0.56,0
						c0.187,0.062,0.311,0.125,0.436,0.125c0.248,0,0.684-0.062,1.243-0.249c0.621-0.187,1.057-0.311,1.43-0.311h0.746
						c0.621,1.43,0.994,4.352,0.994,8.827c0,1.865-0.124,4.849-0.311,8.828l-5.408,0.435c-0.746-5.036-4.414-8.579-10.941-10.692
						c-2.362,0.311-4.662,0.498-6.962,0.684c-1.989,0.498-3.295,2.425-3.979,5.719c0.497,0.746,0.621,1.554,0.435,2.424l0.436,0.684
						c2.362,1.616,5.408,2.424,9.076,2.424c1.492,0,2.673-0.062,3.419-0.125l0.684,0.56c7.397,0.684,12.495,3.481,15.23,8.517v1.43
						l0.436,0.311l-0.436,0.808C1364.51,76.648,1364.634,77.395,1364.883,78.452z"/>
				</g>
			</g>
		</g>
	</g>
</g>
</svg>
