<?xml version="1.0" encoding="utf-8"?>
<!-- Generator: Adobe Illustrator 16.0.4, SVG Export Plug-In . SVG Version: 6.00 Build 0)  -->
<!DOCTYPE svg PUBLIC "-//W3C//DTD SVG 1.1//EN" "http://www.w3.org/Graphics/SVG/1.1/DTD/svg11.dtd">
<svg version="1.1" id="Layer_1" xmlns="http://www.w3.org/2000/svg" xmlns:xlink="http://www.w3.org/1999/xlink" x="0px" y="0px"
	 width="1035.445px" height="167.919px" viewBox="0 0 1035.445 167.919" enable-background="new 0 0 1035.445 167.919"
	 xml:space="preserve">
<g>
	<g>
		<polygon fill="#D8AF3B" points="108.183,132.245 137.225,159.129 137.225,67.914 108.183,50.631 		"/>
		<g>
			<polygon fill="#D8AF3B" points="112.48,50.631 203.918,43.906 226.51,61.191 137.225,67.914 			"/>
			<polygon fill="#D8AF3B" points="143.677,158.165 232.965,148.569 228.666,65.031 137.225,67.914 			"/>
			<g>
				<g id="XMLID_43_">
					<g>
						<path fill="#050505" d="M212.539,107.333c0,0.72-0.18,1.68-0.479,2.879c-0.42,1.56-0.66,2.58-0.78,2.939
							c-0.12,1.8-0.6,4.559-1.56,8.159c-1.26,2.64-3.359,5.099-6.359,7.379c-2.999,2.279-6.059,3.659-9.118,4.199
							c-1.26,0.96-3.6,1.5-6.959,1.68c-3.419,0.18-5.279,0.36-5.579,0.54c-8.998-2.28-13.798-3.66-14.397-4.02
							c-3.419-1.62-6.059-5.399-7.919-11.338c-0.42-1.26-0.6-2.28-0.6-3c0-0.6,0-1.02,0.12-1.26c-0.3-1.38-0.479-2.76-0.479-4.14
							c0-5.279,1.859-10.198,5.578-14.757c3.72-4.559,8.459-7.379,14.098-8.458c1.44-0.12,3.3-0.42,5.579-0.84
							c0.12,0,0.301,0,0.48,0c0.12,0.06,0.18,0.12,0.3,0.12c0.54,0,1.319-0.12,2.34-0.3c1.02-0.18,1.8-0.24,2.34-0.24
							c5.938,0,11.338,2.04,16.197,6.179C210.14,97.255,212.539,101.994,212.539,107.333z"/>
					</g>
				</g>
				<path fill="#EAEA71" d="M135.982,143.276c0,6.634-0.255,12.396-0.771,17.282l-0.463,0.274l-24.479-21.705
					c-1.136-2.856-1.809-7.282-2.006-13.276c-0.106-4.701-0.211-9.353-0.317-13.962l-3.095-58.626c0-0.275,0.104-0.781,0.307-1.52
					l0.619,0.138l0.775,0.691h0.619c4.238,2.674,8.52,5.302,12.859,7.883c5.888,3.777,9.602,6.684,11.149,8.711
					c0.104,7.742,0.982,20.094,2.636,37.055C135.263,122.259,135.982,134.612,135.982,143.276z M233.889,59.073
					c-0.621,0.463-3.727,0.876-9.298,1.245l-74.663,5.251c-7.85,0.553-13.84,0.829-17.969,0.829v-0.138
					c-0.104-0.09-0.309-0.208-0.623-0.345c-0.309-0.138-0.567-0.251-0.771-0.346c-1.656-1.288-4.751-3.409-9.295-6.359
					c-4.959-3.224-8.051-5.067-9.292-5.53l0.152-0.275c-1.442-0.738-3.51-1.937-6.2-3.598c1.242-0.275,5.789-0.734,13.64-1.382
					c4.23-0.366,11.563-0.873,21.992-1.52l36.556-2.349c11.262-0.645,18.438-0.97,21.535-0.97c0.722,0,1.804,0.094,3.252,0.279
					c3.82,2.486,8.881,5.161,15.18,8.017C223.356,54.281,228.618,56.677,233.889,59.073z M131.959,144.935
					c0-8.85-0.356-21.062-1.078-36.639c-0.826-19.541-1.799-30.558-2.922-33.048l-16.78-11.751l-0.925-0.138l-0.926-0.966h-0.916
					c-0.315,1.104-0.466,2.211-0.466,3.315v0.553l3.256,61.112c0.208,2.86,1.337,5.349,3.411,7.466
					c7.428,7.467,12.799,11.937,16.111,13.414l0.926-0.138C131.854,147.467,131.959,146.407,131.959,144.935z M126.844,117.282
					c0,6.729-1.03,11.061-3.092,12.997l-0.779,0.138l-1.084-0.279l-0.303-0.691c-3-0.55-5.326-5.853-6.973-15.9
					c-1.143-6.913-1.711-13.271-1.711-19.08c0-8.201,1.395-12.809,4.184-13.826l0.771,0.279
					C123.851,87.372,126.844,99.494,126.844,117.282z M124.986,111.335c0-3.225-1.292-7.832-3.869-13.825l-0.471-0.138l-1.234-1.662
					l-0.615,0.138c-0.523-0.642-1.144-0.967-1.864-0.967c-0.104,0-0.282,0.047-0.54,0.138c-0.256,0.095-0.49,0.138-0.701,0.138
					c-0.826,1.202-1.237,2.954-1.237,5.254c0,2.307,0.411,4.796,1.237,7.468c0.932,3.228,2.224,5.345,3.878,6.358
					c0.622,1.478,1.548,2.262,2.788,2.353C124.109,115.759,124.986,114.01,124.986,111.335z M220.098,58.104l-0.771-0.138
					l0.462-0.275l-22.617-11.339c-0.518-0.274-1.96-0.412-4.337-0.412c-8.572,0-19.051,0.458-31.447,1.382
					c-10.533,0.828-21.01,1.657-31.445,2.486c-2.475,0-6.189,0.416-11.145,1.245l21.067,12.86c0.303,0,0.819,0,1.544,0
					c0.622,0.094,1.085,0.137,1.394,0.137c0.208,0,0.412-0.043,0.623-0.137l64.595-4.285
					C211.523,59.443,215.554,58.936,220.098,58.104z M236.831,142.86c0,3.872-0.312,7.003-0.932,9.402c-0.102,0-0.207,0-0.312,0
					c-0.21-0.094-0.36-0.141-0.462-0.141c-0.521,0-1.236,0.117-2.174,0.347c-0.926,0.23-1.6,0.348-2.007,0.348l-46.78,4.148
					c-3.309,0.181-8.319,0.597-15.026,1.242c-1.343,0.279-3.411,0.644-6.2,1.108c-0.932-0.095-1.341-0.138-1.234-0.138
					c-0.834,0-1.605,0.228-2.326,0.691c-3.205,0-10.123,0.645-20.758,1.936c-0.31-0.553-0.878-1.382-1.704-2.489l-4.185-87.798
					c0.518-0.919,1.498-2.164,2.949-3.735c1.13,0,8.564-0.503,22.303-1.52c11.254-0.735,28.137-1.842,50.656-3.319
					c15.278-1.01,23.336-1.52,24.163-1.52c1.445,0,2.323,0.829,2.636,2.49c0.099,0.463,0.149,1.845,0.149,4.147
					c0,0.37,0.055,0.853,0.152,1.453c0.106,0.601,0.16,1.037,0.16,1.312c0.1,1.568,0.157,3.873,0.157,6.913L236.831,142.86z
					 M196.241,54.234c0,1.845-4.591,3.228-13.787,4.148c-6.194,0.643-12.341,0.966-18.432,0.966c-3.714,0-7.251-0.346-10.608-1.037
					c-3.356-0.691-6.738-1.403-10.149-2.141l-0.463-0.692L142.03,55.2l0.152-1.382l0.467-0.691
					c3.922-2.302,13.992-3.457,30.206-3.457c4.336,0,8.673,0.276,13.007,0.829C192.782,51.241,196.241,52.483,196.241,54.234z
					 M227.07,141.305l-0.469-57.579c-0.515-1.11-0.772-2.174-0.772-3.193c0-0.46,0.051-1.154,0.156-2.08
					c0.102-0.926,0.153-1.617,0.153-2.08c0-2.683-1.191-4.256-3.561-4.72l-0.463,0.554l-1.395-0.554
					c-23.961,1.571-48.386,3.457-73.272,5.669c-2.271,1.57-3.404,4.839-3.404,9.819c0,2.765,0.718,20.601,2.17,53.507
					c0.197,5.896,1.696,9.49,4.485,10.782l74.668-7.352L227.07,141.305z M188.348,53.543c-1.037-1.108-4.241-1.661-9.607-1.661
					c-10.226,0-19.779,0.922-28.659,2.765l-0.306,0.416l0.152,0.276c1.137,0.741,3.408,1.106,6.82,1.106
					C176.464,56.445,186.997,55.479,188.348,53.543z"/>
				<g id="XMLID_42_">
					<g>
						<path fill="#D8AF3B" d="M197.002,111.473c0,0.48-0.12,1.14-0.42,2.1c-0.36,0.9-0.48,1.56-0.48,2.04
							c0,0.3,0.12,0.72,0.301,1.26c-1.44,4.14-2.16,6.239-2.16,6.359c-1.14,2.399-2.819,3.959-4.979,4.679
							c-0.479,0-1.38,0.12-2.52,0.3c-1.199,0.18-2.1,0.3-2.759,0.3c-2.88,0-5.159-1.8-6.959-5.399
							c-1.44-2.879-2.16-5.759-2.16-8.759v-4.679c0-10.858,3.659-16.317,10.979-16.317c6.959,0,10.378,5.339,10.378,16.017
							C196.762,110.033,197.002,110.753,197.002,111.473z"/>
					</g>
				</g>
			</g>
		</g>
	</g>
	<g>
		<polygon fill="#D8AF3B" points="220.58,108.328 312.229,83.31 340.428,108.328 255.83,130.452 		"/>
		<polygon fill="#D8AF3B" points="205.477,27.522 299.143,1.544 314.243,89.083 220.58,108.328 		"/>
		<polygon fill="#D8AF3B" points="340.428,108.328 327.33,25.592 299.143,1.544 314.243,89.083 		"/>
		<g>
			<g>
				<path fill="#F26322" d="M295.129,2.818c0.414,1.617,0.825,3.614,1.234,5.996l11.39,65.898c0.456,2.566,0.925,5.167,1.405,7.817
					c0.387,3.049,0.456,5.647,0.221,7.807l-1.268-0.276c-5.174,1.587-10.994,3.144-17.473,4.661
					c-4.503,1.058-11.289,2.548-20.346,4.476c-9.067,1.936-15.853,3.427-20.355,4.485c-3.568,0.834-6.763,1.775-9.579,2.815
					l-1.231-0.141c-9.138,2.422-16.053,4.186-20.74,5.285c-0.561-0.63-1.122-1.449-1.673-2.46l-12.448-82.811l0.635-2.147
					l1.501-1.775c1.448-0.146,3.632-0.562,6.536-1.245c10.711-2.506,28.581-7.164,53.607-13.978
					c14.985-4.077,23.458-6.344,25.424-6.808C293.563,0.041,294.618,0.841,295.129,2.818z M288,15.176
					c-0.531-2.059-1.854-3.128-3.963-3.205l-0.738,0.601l-1.021-0.478c-21.23,5.354-42.893,11.096-65.014,17.218
					c-2.026,1.811-2.544,5.783-1.571,11.925l7.371,48.481c0.292,1.927,0.485,3.075,0.574,3.433c0.973,3.768,2.459,6.075,4.476,6.94
					l69.409-16.966l1.278-3.152l-9.259-57.025c-0.278-0.313-0.527-0.873-0.738-1.678c-0.173-0.724-0.315-1.755-0.422-3.117
					C288.291,16.799,288.163,15.807,288,15.176z M340.442,110.161c-0.521,0.691-2.334,1.397-5.426,2.124
					c-7.886,1.845-19.791,4.561-35.688,8.14c-15.907,3.585-27.852,6.307-35.832,8.176c-4.321,1.013-7.59,1.637-9.818,1.874
					l-0.034-0.137c-2.741-0.976-7.17-3.12-13.299-6.444c-5.706-3.223-9.9-5.196-12.571-5.899l-0.063-0.267l-1.266-0.275
					c-0.932-0.925-3.51-2.223-7.717-3.896c1.241-0.58,5.462-1.801,12.642-3.676c3.925-1.008,12.081-2.97,24.479-5.873
					c5.809-1.362,14.54-3.354,26.154-5.984c11.619-2.624,20.351-4.616,26.173-5.981c1.31-0.304,2.788-0.369,4.429-0.182
					c1.523,0.882,3.762,2.259,6.73,4.125c0.404,0.386,0.99,0.961,1.786,1.725L340.442,110.161z M328.127,110.475l-0.422,0.099
					l0.316-0.504l-21.173-13.295c-1.194-0.77-5.881-0.196-14.048,1.717c-3.479,0.814-8.746,1.977-15.828,3.488
					c-7.078,1.521-12.397,2.692-15.958,3.527c-17.564,4.113-27.077,6.816-28.536,8.111l26.495,13.049
					c2.527,0.167,13.417-1.997,32.669-6.505c3.383-0.791,8.4-1.968,15.066-3.529c6.65-1.652,11.683-2.879,15.115-3.682
					C325.245,112.148,327.348,111.319,328.127,110.475z M312.362,112.452c-0.382,0.087-0.884,0.255-1.518,0.498
					c-0.748,0.175-1.312,0.307-1.687,0.396c-1.97,0.462-3.513,0.254-4.64-0.622c-0.397-0.003-2.098,0.346-5.108,1.052
					c-1.5,0.351-3.797,0.817-6.877,1.394c-3.096,0.586-5.391,1.052-6.891,1.4c-2.436,0.574-3.967,1.022-4.582,1.357
					c-1.85,0.152-3.762,0.453-5.728,0.913c-1.038,0.243-2.555,0.648-4.547,1.21c-1.997,0.559-3.511,0.961-4.548,1.201
					c-0.375-0.29-2.004-1.189-4.873-2.703l25.801-11.175c-4.225,0.603-10.558,1.9-19.01,3.881c-3.102,0.724-5.724,1.573-7.856,2.548
					l1.826,0.715l0.105,0.401c-0.374,0.087-0.942,0.222-1.693,0.397c-0.87,0.105-1.493,0.205-1.867,0.294
					c-0.843,0.195-1.442,0.383-1.792,0.562l-8.074-4.101c0.095-0.021,0.271-0.105,0.527-0.264c0.186-0.041,0.329-0.076,0.421-0.097
					c3.762-0.881,5.367-1.207,4.83-0.99c1.187,1.146,4.18,1.16,8.969,0.038c5.724-1.341,14.288-3.442,25.706-6.3l0.007-0.572
					l-1.442-0.949c0.445-0.196,1.089-0.396,1.932-0.594c3.388-0.791,4.663-1.04,3.844-0.76l5.895,3.185l0.282,0.507l1.329,0.542
					l0.416,0.472c-4.769,2.735-12.762,6.131-23.962,10.182c0.608,0.042,2.415-0.284,5.418-0.987
					c11.268-2.638,17.278-4.238,18.04-4.795l-1.582-0.911l2.389-0.563l3.248-0.759l5.75,3.219
					C310.963,111.828,311.471,112.095,312.362,112.452z M327.953,29.497c0.422,1.618,1.625,8.085,3.637,19.407
					c1.434,8.316,3.24,18.832,5.407,31.538l3.081,18.393c0.5,2.355,0.973,5.568,1.429,9.652l-0.771-0.109l-0.772-0.673
					c-0.211-0.047-0.398-0.1-0.564-0.156c-0.164-0.053-1.674-0.987-4.521-2.792c-4.053-2.572-8.09-5.146-12.138-7.712
					c-5.742-3.787-9.339-6.515-10.759-8.182c0.049-0.196-0.217-1.801-0.785-4.8c-2.19-11.661-5.19-29.169-8.996-52.526
					c-1.466-6.884-3.316-17.195-5.555-30.933L297.393,0c5.838,4.529,11.636,9.066,17.378,13.619
					C322.504,20.08,326.898,25.373,327.953,29.497z M326.276,35.174l-0.245-0.944c-0.715-2.779-4.01-6.717-9.897-11.805
					c-5.021-4.434-9.391-7.686-13.104-9.768l-0.878,0.067c-0.388,1.611,1.17,12.516,4.663,32.707
					c3.326,19.192,5.578,31.07,6.748,35.642c-0.129-0.533,0.259,0.229,1.185,2.291l19.183,13.058
					c0.632,0.513,1.615,1.046,2.951,1.589c0.045-0.961,0.082-2.209,0.085-3.726L326.276,35.174z M322.504,36.765l3.803,20.647
					l-0.452,0.539c-1.021,0.331-2.142,1.547-3.398,3.645c-1.489,2.349-2.624,3.749-3.397,4.221l0.348,0.773
					c0.545,0.162,0.877,0.507,1.014,1.046c1.006,0.811,2.482,1.705,4.414,2.674c0.398,0.381,1.045,0.946,1.936,1.687
					c0.187-0.421,0.034-2.38-0.47-5.881l0.315,0.071c0.562,0.629,1.031,1.093,1.406,1.382c2.401,12.847,3.607,19.31,3.632,19.399
					c-1.17-0.295-1.979-1.291-2.411-3.002c-0.095-0.357-0.189-0.928-0.296-1.71c-0.099-0.782-0.196-1.353-0.285-1.716
					c-0.112-0.448-0.358-1.007-0.731-1.684c-0.211-0.041-0.671-0.457-1.368-1.251l-0.448-0.029l-0.775-1.246l-1.405-0.242
					l-0.843-0.946l-0.527,0.266c-0.504-0.829-1.089-1.362-1.745-1.584c-0.378-0.676-0.949-1.181-1.735-1.52
					c-0.785-0.343-1.278-0.677-1.451-1.02c-0.711-0.021-1.371-0.484-2.004-1.383c-0.177-1.476-0.541-3.653-1.078-6.523
					c-0.533-2.87-0.939-5.032-1.221-6.487c0.833-0.668,1.734-1.784,2.73-3.352l3.537-4.824c0.705-0.352,1.266-0.867,1.701-1.532
					c-0.796-0.764-1.979-1.875-3.537-3.313l-0.738,0.029c-0.422-0.475-1.078-1.077-1.962-1.821c-0.255-0.6-0.793-1.143-1.612-1.617
					l-0.738,0.03l-0.459,0.533c0.272,1.078,0.551,2.728,0.822,4.945c-0.564-0.628-1.033-1.09-1.407-1.389l-0.423,0.1l-3.561-19.703
					l0.456,0.038c0.397,0.762,0.921,1.26,1.581,1.485c0.129,0.54,0.283,1.336,0.46,2.387c0.17,1.055,0.326,1.849,0.466,2.388
					c0.271,1.078,0.621,1.851,1.044,2.325l0.455,0.03l1.257,1.42l0.492,0.167c0.748,0.589,1.922,1.482,3.526,2.668
					c1.593,1.198,2.79,2.135,3.554,2.806l0.423-0.096c-0.017-1.614-0.275-3.407-0.789-5.381l0.327,0.07
					c0.228,0.138,0.517,0.377,0.856,0.724C322.123,36.357,322.361,36.612,322.504,36.765z"/>
				<g id="XMLID_41_">
					<g>
						<path fill="#050505" d="M280.808,33.126l-0.36,0.36c-0.3,0-0.72,0.06-1.319,0.18c-0.36,0.06-0.899,0.24-1.68,0.54
							c-0.78,0.3-1.38,0.48-1.74,0.54l-1.14,1.979c0.12,0.54,0.181,1.32,0.181,2.4c-0.061,1.02,0,1.8,0.119,2.22
							c0.061,0.18,0.24,0.54,0.54,1.02c-0.42,0.78-0.479,1.62-0.239,2.64c0.119,0.42,0.359,1.08,0.72,1.92
							c0.359,0.78,0.6,1.439,0.72,1.859c0.24,1.02,0.3,1.86,0.06,2.58c0.54,0.6,0.9,1.2,1.08,1.74c0.12,0.42,0.12,1.26,0,2.459
							c-0.06,1.26,0.061,2.16,0.42,2.7c-0.42,1.08-0.479,2.16-0.18,3.359c0.12,0.42,0.3,1.08,0.6,1.92
							c0.36,0.84,0.54,1.439,0.66,1.919c0.18,0.78,0.24,1.56,0.18,2.34c0.18,0.36,0.36,0.899,0.54,1.62
							c0.18,0.78,0.36,2.16,0.42,4.019c-2.819,0.48-4.979,0.9-6.419,1.2c-2.34,0.54-4.679,1.26-7.079,2.1
							c-1.14-1.08-3.779-3.839-7.799-8.459c-1.26-1.379-5.278-6.059-12.117-13.978c-0.84-1.32-2.28-3.119-4.38-5.399l-0.359,0.36
							l0.3,1.08c-0.18,1.2-0.12,2.699,0.24,4.499c0.42,2.399,0.659,3.839,0.72,4.439c0.239,0.3,0.479,0.84,0.72,1.68
							c0.12,0.54,0.24,1.5,0.36,2.819c0.06,1.38,0.3,2.399,0.539,3.06c-0.479,1.2-0.539,2.459-0.239,3.779
							c0.479,1.8,1.439,3.419,2.939,4.919c0.06-0.06,0.239-0.06,0.42-0.12c0.18,0.06,0.359,0.06,0.42,0.06
							c0.779-0.18,1.739-0.6,2.999-1.32l1.2,0.18l0.96,5.339l-20.337,5.159c-0.3-0.3-0.479-0.6-0.54-0.96
							c-0.12-0.48-0.18-1.2-0.06-2.22c0.06-1.02,0-1.86-0.24-2.459c1.26-0.36,2.64-0.84,4.02-1.32c1.439-0.48,2.159-1.38,2.22-2.7
							c-0.12-0.24-0.3-0.6-0.42-1.02c-0.12-0.66-0.3-1.62-0.42-2.939c-0.12-1.26-0.3-2.22-0.42-2.88
							c-0.601-2.16-1.08-5.399-1.5-9.718s-0.84-7.499-1.38-9.598c-0.36-1.32-0.72-2.28-1.2-2.82c-0.18-0.06-1.739-0.06-4.619,0.06
							c-0.18,0.36-0.6,0.6-1.26,0.72c-0.3-0.3-0.479-0.66-0.6-1.02c-0.12-0.54-0.18-1.32-0.12-2.34c0-1.08-0.06-1.8-0.18-2.279
							l15.537-4.2c0.54,0.18,1.08,0.18,1.62,0.06c0.479-0.12,1.14-0.36,1.92-0.84c0.779-0.42,1.379-0.66,1.859-0.78
							c0.3-0.06,0.66-0.06,1.08,0.06c1.68,2.339,3.599,5.039,5.759,8.039c3.719,3.6,8.878,9.358,15.537,17.337
							c0.42-0.66,0.48-1.56,0.18-2.639l0.24-0.9c-0.06-0.24-0.12-0.54-0.24-0.9c-0.18-0.42-0.359-0.72-0.359-0.9
							c-0.18-0.66-0.54-3.54-1.08-8.758c-0.359-0.66-0.6-1.14-0.66-1.44c-0.18-0.6-0.239-1.56-0.3-2.939
							c-0.06-1.32-0.12-2.28-0.3-2.879c-0.479-1.92-1.62-2.64-3.419-2.22c-0.42,0.12-1.141,0.3-1.98,0.6
							c-0.899,0.3-1.499,0.54-1.859,0.6c-0.18-0.24-0.3-0.66-0.479-1.2c-0.12-0.42-0.12-1.14-0.12-2.16
							c0.06-1.02-0.061-1.74-0.24-2.28c6.179-1.38,13.138-3.239,20.757-5.579l0.12,0.24c0.119,0.66,0.239,1.56,0.239,2.819
							C280.567,31.686,280.688,32.586,280.808,33.126z"/>
					</g>
				</g>
			</g>
		</g>
	</g>
	<g>
		<polygon fill="#D8AF3B" points="107.209,148.37 121.15,63.165 101.76,36.325 15.448,32.518 2.18,112.432 23.217,138.987 		"/>
		<g>
			<path fill="#0E783D" d="M90.723,116.993c-0.567,2.964-1.295,5.293-2.18,6.986l-0.892-0.448c-7.931,0.064-19.05-0.95-33.368-3.041
				c-2.977-0.48-7.476-1.104-13.469-1.883c-1.024-0.01-2.562-0.021-4.605-0.044c-3.122-0.691-7.867-1.227-14.217-1.605l-0.898-0.451
				l-20.192-1.775l-0.854-2.818l14.597-81.311c0.939-1.497,1.957-2.464,3.069-2.903c2.244,0.432,10.302,1.184,24.161,2.256
				l59.188,4.631c1.167,0.223,1.609,1.567,1.324,4.027c-0.147,1.74-0.341,3.474-0.579,5.196c-0.014,0.091-1.747,12.289-5.194,36.588
				C94.543,95.091,92.58,107.291,90.723,116.993z M107.209,148.37c-0.775,0.135-4.873-0.093-12.31-0.679
				c-10.717-0.935-24.366-2.388-40.943-4.353c-15.924-1.934-26.182-3.336-30.771-4.215l0.031-0.135
				c-1.518-1.315-4.278-4.171-8.279-8.57c-3.472-3.741-6.444-6.454-8.918-8.135l0.048-0.272l-0.997-0.612
				c-1.006-1.588-2.693-3.217-5.07-4.88c1.81-0.217,5.238-0.117,10.282,0.292c2.563,0.211,8.921,0.823,19.067,1.836
				c14.077,1.395,26.434,2.783,37.065,4.166c11.455,1.45,18.53,2.433,21.23,2.95c1.166,0.222,2.058,0.442,2.666,0.649
				c1.659,3.021,4.3,6.744,7.922,11.158C101.257,141.225,104.256,144.823,107.209,148.37z M82.388,110.923
				c0.285-1.992,1.819-12.455,4.608-31.389c1.874-12.681,3.598-23.111,5.162-31.287c0.531-2.786-0.248-4.561-2.333-5.337
				l-0.456,0.193l-1.109-0.771c-11.168-1.022-22.29-2.036-33.367-3.041c-18.514-1.59-28.367-2.173-29.561-1.752
				c-2.221,0.879-3.881,4.195-4.979,9.944c-0.054,0.267-2.911,16.396-8.571,48.374c-1.013,5.768-0.55,9.446,1.374,11.022
				l67.046,6.696L82.388,110.923z M96.521,145.068l-0.516-0.237l0.459-0.193l-13.102-16.205c-0.385-0.442-1.568-0.855-3.538-1.235
				l-1.347-0.259c-7.547-1.443-16.996-2.697-28.342-3.751c-9.54-0.803-19.061-1.646-28.58-2.54c-1.626-0.22-3.32-0.405-5.062-0.553
				c-2.013-0.196-3.614-0.089-4.815,0.336l17.635,17.347c0.27,0.053,0.623,0.167,1.055,0.343c0.445,0.085,0.763,0.146,0.941,0.182
				l0.946,0.178l53.333,6.028c1.905,0.27,3.767,0.493,5.6,0.653C93.832,145.482,95.607,145.452,96.521,145.068z M81.197,140.455
				c-5.134,0.04-10.756-0.521-16.861-1.693l-1.465-1.12l-0.051-0.43c2.477,0.193,4.129,0.325,4.948,0.392
				c2.133,0.036,3.81-0.158,5.004-0.582c-0.27-2.004-4.486-3.791-12.667-5.358c-11.318-2.167-18.523-2.481-21.618-0.929
				l-0.128,0.673c1.213,1.441,3.557,2.59,7.025,3.442c-0.973-0.278,1.691,0.182,7.98,1.389l-0.055,0.27l1.193,1.066
				c-1.667-0.039-4.123-0.369-7.357-0.987c-7.369-1.411-12.525-3.893-15.479-7.44l-0.064-1.127c2.246-1.995,7.402-2.406,15.463-1.23
				c5.604,0.884,11.213,1.774,16.818,2.663l5.935,1.836c2.918,0.837,4.622,1.631,5.132,2.382l0.893,0.448
				c0.465,0.463,1.047,0.85,1.73,1.168l0.388,0.918l-0.293,0.781l-1.792,1.333c0.877,0.257,2.262,0.574,4.146,0.935l0.769,1.122
				L81.197,140.455z M109.797,142.86c-0.397,2.064-0.777,3.577-1.15,4.531c-0.982-2.145-5.246-7.854-12.787-17.122
				c-1.082-1.136-2.524-2.855-4.316-5.158c-0.493-0.838,1.207-14.345,5.108-40.517c3.537-23.82,5.938-39.052,7.218-45.701
				c0.303-1.618,0.585-2.821,0.83-3.612l0.119,0.861l0.51,0.237c0.912,2.039,2.84,5.574,5.792,10.609
				c3.071,5.34,5.156,8.579,6.241,9.719l0.14,0.724l0.381,0.214c0.585,1.324,1.677,3.163,3.269,5.518
				c0.27,2.473-0.537,10.329-2.415,23.565C115.48,110.047,112.498,128.756,109.797,142.86z M109.675,131.103
				c1.306-6.828,2.677-15.417,4.095-25.763c1.102-8.635,2.238-17.268,3.426-25.888c0.394-2.532,0.687-6.249,0.873-11.152
				l-12.781-20.751c-0.527,1.295-0.803,1.989-0.819,2.078l-8.431,55.669c-0.324,2.174-0.658,4.394-0.997,6.655
				c-0.368,2.912-0.399,5.003-0.082,6.271l0.023-0.134l0.252,0.884l12.595,16.664l0.404,0.077
				C108.848,134.436,109.328,132.9,109.675,131.103z M110.99,100.896c-0.326,1.707-0.659,2.946-0.992,3.72
				c-0.021,0.091-0.008,0.278,0.033,0.568c-0.054,0.267-0.095,0.492-0.128,0.671c-0.106,0.539-0.327,1.359-0.681,2.457
				c-0.351,1.096-0.585,1.96-0.704,2.587c-0.409,1.133-1.329,2.774-2.765,4.921l-0.912-0.316l-0.188,0.245l-0.704-0.697l-0.326,0.22
				c-0.582-0.854-1.255-3.638-2.026-8.354l-0.997,3.023l-0.493-0.373l-0.388-0.91l-0.157,0.107
				c0.303-4.505,1.103-10.128,2.396-16.866l0.104-0.542l0.997,0.612l0.275,0.75c-0.245,2.748-0.544,5.486-0.874,8.217
				c-0.062,3.714,0.527,6.207,1.782,7.466l0.81,0.155c0.924-0.94,1.816-3.656,2.684-8.147c0.748-3.953,1.322-8.409,1.714-13.362
				c0.501-6.984,0.152-11.243-1.048-12.774l-0.833-0.024l-0.83,0.684c-0.704,1.727-1.395,4.391-2.085,7.981l-0.143-0.727
				l-0.619-0.398l-0.33-0.48c0.212-1.081,0.646-2.859,1.304-5.34c0.608-2.211,0.999-3.998,1.169-5.366l1.677-2.194l0.911-0.381
				c2.405,1.573,3.654,6.705,3.762,15.387C112.399,90.128,111.939,95.955,110.99,100.896z"/>
			<g id="XMLID_40_">
				<g>
					<path fill="#050505" d="M71.25,82.398c-0.045,0.236-0.091,0.472-0.124,0.648c-0.102,0.53-0.481,1.557-1.188,3.01
						c-0.647,1.464-0.921,2.572-0.879,3.313c-0.7,0.782-1.63,2.131-2.732,4.058c-6.07,2.991-9.481,4.536-10.256,4.754
						c-1.774,0.332-5.602-0.096-11.552-1.236c-9.133-1.75-14.349-8.002-15.529-18.734c0.396-0.474,0.638-1.1,0.773-1.807
						c0.057-0.294,0.018-0.729-0.058-1.293l-0.406-0.75c0.347-0.85,0.735-2.241,1.097-4.126c0.315-1.65,0.788-2.842,1.547-3.613
						l0.237-1.237c0.158-0.825,0.703-1.759,1.706-2.849c1.015-1.15,1.549-2.025,1.695-2.791c0.129-0.037,2.27-1.642,6.409-4.758
						c2.572-1.95,5.037-2.7,7.275-2.271c0.492-0.333,1.432-0.459,2.739-0.27c1.319,0.13,2.318,0.017,2.95-0.412
						c0.553-0.016,1.448,0.094,2.626,0.32c2.239,0.429,5.618,2.237,10.161,5.306c0.523-0.816,1.35-1.94,2.608-3.409
						c0.247-0.014,0.682-0.053,1.234-0.069c0.564-0.075,0.999-0.114,1.305-0.117l1.546,0.541l0.893-0.195
						c0.269,1.151,0.253,2.186,0.062,3.188c-0.091,0.471-0.215,1.119-0.49,1.921c-0.229,0.873-0.412,1.509-0.502,1.981
						c-0.169,0.884-0.21,1.731-0.073,2.612c-0.186,0.331-0.335,0.791-0.459,1.439c-0.09,0.472-0.107,1.201-0.171,2.167
						c-0.062,0.965-0.139,1.684-0.24,2.214c-0.091,0.471-0.263,1.049-0.574,1.722c-2.729,0.21-4.328,0.271-4.799,0.18
						c-0.118-0.022-0.236-0.045-0.39-0.197c-0.236-0.045-0.472-0.09-0.53-0.102c-0.34-2.692-0.68-5.383-1.066-8.145
						c-0.845-2.605-2.858-4.212-6.099-4.833c-3.947-0.756-6.981-0.543-9.042,0.649c-1.348,0.658-2.525,2.021-3.462,4.04
						c-0.937,2.02-1.704,3.155-2.324,3.525c-0.012,0.059,0.014,0.247,0.039,0.435c-0.046,0.236-0.079,0.413-0.102,0.53
						c-0.192,1.002-0.679,1.947-1.541,2.942c0.302,0.974,0.244,2.551-0.174,4.731c-0.429,2.239-0.486,3.816-0.126,4.801
						c-0.258,2.943,0.28,5.551,1.724,7.904c1.395,2.283,3.56,3.736,6.446,4.289c4.184,0.801,7.33,0,9.37-2.358
						c1.729-2.967,3.436-5.816,5.142-8.666c0.648,0.124,1.555,0.175,2.708,0.213c1.153,0.038,1.989,0.137,2.52,0.238
						C71.163,81.894,71.188,82.082,71.25,82.398z"/>
				</g>
			</g>
		</g>
	</g>
	<g>
		<polygon fill="#D8AF3B" points="443.217,138.859 443.76,41.433 355.533,39.24 324.823,49.398 319.035,147.915 414.305,153.382 		
			"/>
		<g>
			<path fill="#2B338F" d="M416.051,64.26l-0.688,75.059c0,4.757-0.044,7.548-0.133,8.372c-0.186,3.198-0.55,5.943-1.102,8.23
				c-0.364-0.272-0.819-0.41-1.371-0.41c-0.275,0-0.711,0.067-1.302,0.205c-0.596,0.138-1.075,0.205-1.438,0.205
				c-5.586,0-14.003-0.521-25.25-1.555c-11.256-1.04-19.722-1.559-25.391-1.559c-1.371,0-3.476-0.213-6.311-0.638
				c-2.836-0.425-4.985-0.639-6.451-0.639c-0.731,0-1.731,0.091-3.017,0.276c-0.367-0.276-7.772-0.732-22.229-1.371
				c-0.272-0.641-0.776-1.649-1.508-3.02l-1.238-93.171c0.459-1.005,1.418-2.24,2.884-3.706c2.474,0.366,5.263,0.551,8.368,0.551
				c1.098,0,2.7-0.046,4.803-0.137c2.107,0,3.662,0,4.67,0c1.095,0,2.629,0.113,4.598,0.343c1.963,0.229,3.405,0.342,4.323,0.342
				l65.041,1.646c1.735,0,2.603,1.508,2.603,4.528c0,0.548,0,1.283,0,2.197c-0.089,0.914-0.131,1.599-0.131,2.057
				C415.781,63.072,415.864,63.804,416.051,64.26z M444.594,40.933c-0.914,0.276-6.269,2.381-16.055,6.313
				c-7.322,2.929-12.488,4.391-15.505,4.391c-10.341,0-25.89-0.414-46.657-1.236c-20.769-0.823-36.362-1.233-46.791-1.233
				c2.473-0.091,6.772-1.328,12.9-3.706c6.678-2.469,11.248-3.931,13.721-4.392c3.105-1.555,6.49-2.331,10.16-2.331
				c3.196,0,22.359,0.367,57.492,1.095l19.486,0.413C436.172,40.247,439.931,40.476,444.594,40.933z M406.442,77.87
				c-0.364-0.826-0.545-1.833-0.545-3.026c0-0.638,0.065-1.579,0.204-2.815c0.14-1.238,0.205-2.132,0.205-2.682
				c0-2.749-1.188-4.579-3.567-5.499l-0.27,0.413l-0.83-0.137l-0.68-0.687c-37.332-1.188-58.823-1.784-64.497-1.784
				c-2.102,0-3.707,0.048-4.803,0.138c-2.197,1.831-3.292,5.773-3.292,11.82c0,7.24,0.181,25.793,0.551,55.667
				c0.088,6.321,1.235,10.398,3.425,12.229l71.218,3.576l1.922-2.75L406.442,77.87z M431.558,41.923
				c-1.56-0.466-5.174-0.741-10.845-0.834c-34.396-0.835-53.786-1.254-58.173-1.254c-3.299,0-8.19,1.056-14.687,3.158
				c-4.848,1.737-9.745,3.477-14.683,5.214c0.275,0,0.639,0,1.095,0c0.551,0.091,0.914,0.138,1.102,0.138
				c36.955,1.28,60.096,1.922,69.437,1.922c1.094,0,2.832-0.091,5.214-0.275l-0.144-0.138h0.144h0.133h0.825l10.564-3.617
				C425.66,44.846,428.995,43.408,431.558,41.923z M412.758,42.716l-1.101,0.138c-0.641,0.547-2.011,1.052-4.112,1.508l-0.276,0.414
				c-1.19,0.367-2.969,0.914-5.351,1.646l-0.139,0.275c-2.561,0.639-3.656,0.961-3.293,0.961l-0.41,0.272
				c-2.014,0-5.008-0.067-8.986-0.205c-3.983-0.138-6.983-0.205-8.986-0.205l1.371-0.138l0.268-0.413
				c0.646-0.182,1.694-0.272,3.161-0.272c0.73,0,1.856,0.047,3.359,0.135c1.507,0.095,2.677,0.138,3.5,0.138
				c3.021,0,4.803-0.319,5.353-0.961c-4.394-0.729-10.158-1.095-17.294-1.095c-1.64,0-4.064,0-7.269,0
				c-3.292,0.091-5.717,0.134-7.271,0.134c-0.826,0-2.108,0.138-3.844,0.414c-1.738,0.275-3.067,0.413-3.982,0.413
				c-0.269,0-0.729-0.046-1.37-0.138c-0.64,0-1.144,0-1.507,0l0.687-0.137c0.275-0.182,2.377-0.87,6.312-2.06v-0.138
				c1.003-0.456,2.334-0.685,3.973-0.685c0.459,0,1.15,0,2.064,0c0.819,0.094,1.463,0.138,1.922,0.138l-1.103,0.41v0.275
				c2.833,0.551,7.137,0.823,12.901,0.823h20.583c0-0.087,0.048-0.225,0.137-0.409c0-0.639-2.197-0.961-6.592-0.961
				c-1.088,0-1.914-0.047-2.466-0.138l1.235-0.138l0.411-0.41c2.017,0,5.034,0.067,9.058,0.205
				C407.725,42.649,410.741,42.716,412.758,42.716z M446.373,47.931c0,18.937-0.316,39.931-0.96,62.983
				c-0.089,8.234-0.545,17.382-1.37,27.444l-26.214,16.877c-0.911-1.007-1.37-3.201-1.37-6.585v-1.098
				c0-5.856,0.322-26.53,0.963-62.023c0-6.588,0.139-16.421,0.407-29.502c0.095-2.285,0.874-3.475,2.341-3.568l0.826-0.823
				l20.856-8.097h1.228c0.826-0.547,1.693-0.823,2.611-0.823c0.273,0,0.5,0.047,0.682,0.138c-0.089,0.367-0.135,0.914-0.135,1.646
				c0,0.366,0.046,0.917,0.135,1.646C446.373,46.97,446.373,47.567,446.373,47.931z M442.396,53.145l-17.621,6.863
				c-0.364,0.548-0.865,0.891-1.497,1.029s-1.218,0.527-1.755,1.166c-1.092,1.189-1.63,26.621-1.63,76.294
				c0,1.28,0.276,2.469,0.819,3.568l0.96,0.275c3.293-1.008,7.322-3.11,12.081-6.312c5.766-3.843,8.643-6.952,8.643-9.333V53.145z
				 M439.379,80.178v6.451c0,2.378-0.095,5.946-0.274,10.7c-0.184,4.76-0.276,8.328-0.276,10.704l-1.646,0.138
				c0.089-0.549,0.132-1.372,0.132-2.47c0-2.56-0.455-3.843-1.371-3.843c-0.635,0-1.573,0.574-2.808,1.716
				c-1.232,1.145-2.497,1.714-3.776,1.714c-1.187,0.734-1.966,1.648-2.329,2.745c0.091,1.558,0.18,3.11,0.274,4.665
				c0.275,2.106,0.732,3.524,1.371,4.254l0.959-0.548h0.545c0.095,0,0.234,0.047,0.418,0.138v0.823
				c0.088,1.555-0.184,3.477-0.826,5.761l-1.514,0.551l-0.82,0.823h-0.55c-0.361,0.184-0.82,0.547-1.372,1.098h-0.55
				c0.369-2.288,0.55-4.895,0.55-7.824c0-1.28-0.044-3.155-0.132-5.625c-0.096-2.469-0.136-4.3-0.136-5.49
				c0-2.469,0.087-6.15,0.268-11.045c0.188-4.892,0.275-8.577,0.275-11.046c0-1.737-0.088-4.344-0.275-7.821
				c0.275-0.185,0.646-0.504,1.103-0.961c0.455-0.457,0.819-0.776,1.095-0.961l0.688-0.137l0.551-0.413l1.371,0.413l0.684-0.824
				c-0.181,0.46-0.275,1.236-0.275,2.332c0,0.367,0.047,0.961,0.143,1.784c0,0.823,0,1.465,0,1.921v0.686h-0.693
				c-2.102,3.844-3.149,7.136-3.149,9.881c0,0.641,0.091,1.512,0.274,2.606l0.408,0.138l0.826-0.823l0.27,0.276l6.455-3.568h0.68
				l0.552-0.276c0.735-1.28,1.103-3.978,1.103-8.097h0.819C439.147,80.363,439.473,80.178,439.379,80.178z"/>
			<g id="XMLID_39_">
				<g>
					<path fill="#050505" d="M390.948,88.137c0,0.54-0.12,1.26-0.3,2.22c0.12,0.24,0.18,0.72,0.18,1.32c0,0.66-0.18,1.62-0.6,2.819
						c-0.359,1.26-0.54,2.22-0.54,2.82c0,0.72,0.181,1.439,0.54,2.1c-0.359-0.6-0.899-0.84-1.62-0.84
						c-0.539,0-1.319,0.12-2.399,0.36c-1.079,0.18-1.859,0.3-2.399,0.3c-0.18-0.18-0.3-0.48-0.3-0.959c0-0.54,0.18-1.2,0.6-1.92
						c-1.919-6.779-5.099-10.138-9.479-10.138c-0.359,0-0.84,0.06-1.379,0.3c-0.181,0.24-0.301,0.72-0.301,1.32
						c0,0.3,0.061,0.72,0.181,1.32c0.06,0.6,0.12,1.08,0.12,1.44c0,0.54-0.12,1.08-0.421,1.5l0.421,22.916
						c0,0.48-0.061,1.14-0.12,2.1c-0.12,0.9-0.181,1.56-0.181,2.04c0,1.62,0.601,2.939,1.8,3.839c1.44,0.479,3.359,0.66,5.64,0.66
						c-0.181,0.66-0.301,2.76-0.301,6.359c-0.72-0.18-1.199-0.3-1.499-0.3c-0.36,0-0.96,0.06-1.8,0.18
						c-0.78,0.18-1.439,0.24-1.92,0.24c-0.779,0-1.56-0.3-2.34-0.84l-11.638-0.84c-0.479,0.48-1.2,0.72-2.22,0.72
						c-0.6,0-1.56-0.18-2.88-0.48c-1.26-0.3-2.279-0.48-2.999-0.48l0.66-5.879c0.42,0,0.899,0,1.56,0c0.6,0.06,1.08,0.12,1.38,0.12
						c2.819,0,4.199-2.58,4.199-7.679c0-1.5-0.12-3.66-0.48-6.479c-0.3-2.819-0.479-4.919-0.479-6.299c0-1.2,0.12-2.939,0.36-5.219
						c0.239-2.28,0.359-3.959,0.359-5.099c0-2.1-0.42-4.079-1.26-5.999c-5.399,1.2-8.578,3.12-9.599,5.879v3.3
						c0,1.439-0.239,2.639-0.659,3.599c-0.96-0.48-1.92-0.72-2.88-0.72c-0.84,0-1.62,0.12-2.34,0.42
						c-0.479-0.9-0.72-2.04-0.72-3.419c0-0.48,0.061-1.2,0.18-2.28c0.061-1.02,0.12-1.859,0.12-2.399c0-1.02-0.12-1.98-0.42-2.879
						c0.3-0.54,0.42-1.2,0.42-1.92c0-0.54-0.12-1.38-0.3-2.399c-0.18-1.08-0.24-1.8-0.24-2.28c0-0.72,0.12-1.38,0.42-1.919
						c0.721,0.36,1.561,0.54,2.46,0.54c0.42,0,1.14-0.06,2.1-0.18c0.96-0.12,1.68-0.24,2.16-0.24c0.899,0,1.739,0.24,2.459,0.6
						c0.72-0.18,1.32-0.3,1.8-0.3c0.6,0,1.5,0.12,2.64,0.3c1.14,0.18,1.979,0.24,2.579,0.24c0.9,0,1.5-0.06,1.92-0.24
						c0.78,0.24,1.68,0.36,2.58,0.36c0.479,0,1.079,0,1.919-0.12c0.84-0.06,1.44-0.12,1.8-0.12c0.9,0,1.8,0.12,2.58,0.42
						c0.72-0.18,1.319-0.3,1.8-0.3c0.539,0,1.38,0.12,2.459,0.3c1.08,0.18,1.92,0.24,2.46,0.24c0.84,0,1.439-0.06,1.8-0.24
						c0.84,0.24,2.399,0.3,4.679,0.12c1.979-0.06,3.479,0.12,4.38,0.66l2.22-0.36c0,0.78,0.18,2.1,0.539,3.839
						C390.769,85.917,390.948,87.237,390.948,88.137z"/>
				</g>
			</g>
		</g>
	</g>
	<g>
		<polygon fill="#D8AF3B" points="760.929,150.856 761.473,53.432 673.245,51.237 642.537,61.396 636.747,159.914 732.019,165.38 		
			"/>
		<g>
			<path fill="#2B338F" d="M733.763,76.259l-0.688,75.058c0,4.757-0.043,7.548-0.132,8.372c-0.188,3.198-0.551,5.943-1.103,8.231
				c-0.363-0.273-0.819-0.411-1.37-0.411c-0.275,0-0.712,0.068-1.303,0.206c-0.596,0.137-1.078,0.205-1.439,0.205
				c-5.584,0-14.002-0.522-25.25-1.556c-11.255-1.04-19.72-1.558-25.391-1.558c-1.37,0-3.475-0.214-6.309-0.638
				c-2.836-0.425-4.986-0.639-6.451-0.639c-0.732,0-1.735,0.091-3.018,0.276c-0.367-0.276-7.771-0.733-22.229-1.372
				c-0.272-0.641-0.775-1.648-1.507-3.02l-1.238-93.172c0.459-1.004,1.418-2.24,2.885-3.706c2.473,0.366,5.262,0.551,8.366,0.551
				c1.099,0,2.7-0.047,4.803-0.138c2.108,0,3.663,0,4.669,0c1.096,0,2.629,0.114,4.599,0.342c1.962,0.229,3.404,0.343,4.323,0.343
				l65.041,1.646c1.734,0,2.599,1.508,2.599,4.528c0,0.548,0,1.283,0,2.197c-0.085,0.914-0.125,1.6-0.125,2.056
				C733.495,75.069,733.576,75.802,733.763,76.259z M762.306,52.931c-0.916,0.275-6.269,2.381-16.054,6.312
				c-7.322,2.929-12.489,4.391-15.506,4.391c-10.34,0-25.891-0.412-46.657-1.236c-20.768-0.823-36.362-1.233-46.791-1.233
				c2.474-0.091,6.771-1.327,12.9-3.706c6.677-2.47,11.249-3.931,13.722-4.391c3.104-1.555,6.489-2.332,10.154-2.332
				c3.202,0,22.363,0.367,57.498,1.096l19.486,0.413C753.884,52.245,757.644,52.474,762.306,52.931z M724.154,89.868
				c-0.364-0.826-0.544-1.834-0.544-3.026c0-0.639,0.065-1.579,0.203-2.814c0.141-1.24,0.206-2.133,0.206-2.684
				c0-2.747-1.188-4.578-3.57-5.498l-0.268,0.413l-0.83-0.138l-0.68-0.686c-37.331-1.189-58.824-1.783-64.496-1.783
				c-2.104,0-3.708,0.046-4.803,0.137c-2.197,1.831-3.293,5.774-3.293,11.819c0,7.242,0.181,25.795,0.551,55.667
				c0.089,6.321,1.234,10.398,3.425,12.229l71.218,3.578l1.922-2.751L724.154,89.868z M749.268,53.921
				c-1.556-0.466-5.172-0.741-10.842-0.835c-34.396-0.835-53.786-1.253-58.175-1.253c-3.299,0-8.189,1.054-14.686,3.157
				c-4.847,1.737-9.744,3.477-14.683,5.215c0.275,0,0.639,0,1.095,0c0.552,0.091,0.915,0.137,1.103,0.137
				c36.954,1.281,60.095,1.922,69.435,1.922c1.096,0,2.834-0.091,5.214-0.276l-0.143-0.138h0.143h0.134h0.827l10.562-3.617
				C743.37,56.844,746.709,55.406,749.268,53.921z M730.471,54.715l-1.104,0.137c-0.639,0.548-2.009,1.052-4.111,1.509l-0.274,0.412
				c-1.191,0.367-2.97,0.914-5.351,1.646l-0.139,0.275c-2.562,0.639-3.657,0.961-3.293,0.961l-0.412,0.272
				c-2.014,0-5.006-0.067-8.985-0.205c-3.982-0.137-6.983-0.205-8.986-0.205l1.371-0.138l0.269-0.412
				c0.646-0.183,1.693-0.274,3.159-0.274c0.731,0,1.856,0.047,3.361,0.136c1.507,0.094,2.677,0.138,3.499,0.138
				c3.021,0,4.803-0.32,5.354-0.961c-4.396-0.729-10.16-1.096-17.296-1.096c-1.639,0-4.064,0-7.268,0
				c-3.293,0.091-5.719,0.135-7.273,0.135c-0.826,0-2.107,0.138-3.843,0.413c-1.737,0.275-3.067,0.414-3.983,0.414
				c-0.268,0-0.727-0.047-1.37-0.138c-0.64,0-1.142,0-1.506,0l0.687-0.138c0.276-0.181,2.378-0.87,6.312-2.059V55.4
				c1.003-0.458,2.333-0.686,3.974-0.686c0.458,0,1.149,0,2.063,0c0.82,0.094,1.463,0.137,1.922,0.137l-1.102,0.411v0.275
				c2.832,0.55,7.136,0.823,12.9,0.823h20.584c0-0.089,0.047-0.226,0.136-0.411c0-0.638-2.196-0.961-6.592-0.961
				c-1.087,0-1.914-0.046-2.464-0.137l1.234-0.137l0.41-0.411c2.018,0,5.034,0.067,9.058,0.206
				C725.438,54.647,728.453,54.715,730.471,54.715z M764.084,59.928c0,18.938-0.316,39.931-0.958,62.984
				c-0.089,8.233-0.545,17.382-1.37,27.443l-26.214,16.878c-0.912-1.007-1.37-3.202-1.37-6.585v-1.098
				c0-5.856,0.322-26.53,0.962-62.023c0-6.587,0.14-16.421,0.408-29.502c0.095-2.285,0.874-3.474,2.339-3.568l0.827-0.823
				l20.853-8.096h1.231c0.827-0.549,1.694-0.823,2.613-0.823c0.271,0,0.499,0.047,0.679,0.137c-0.088,0.367-0.132,0.914-0.132,1.646
				c0,0.366,0.044,0.917,0.132,1.646C764.084,58.969,764.084,59.565,764.084,59.928z M760.107,65.143l-17.621,6.863
				c-0.363,0.548-0.863,0.89-1.496,1.028c-0.633,0.138-1.217,0.527-1.756,1.166c-1.092,1.189-1.628,26.62-1.628,76.293
				c0,1.28,0.274,2.47,0.819,3.568l0.959,0.275c3.293-1.007,7.324-3.111,12.082-6.312c5.764-3.844,8.641-6.951,8.641-9.333V65.143z
				 M757.092,92.176v6.45c0,2.378-0.095,5.946-0.276,10.701c-0.183,4.759-0.274,8.328-0.274,10.703l-1.646,0.138
				c0.088-0.547,0.133-1.371,0.133-2.469c0-2.56-0.456-3.843-1.371-3.843c-0.636,0-1.574,0.573-2.812,1.716
				c-1.228,1.145-2.493,1.713-3.772,1.713c-1.187,0.735-1.97,1.649-2.33,2.745c0.093,1.559,0.182,3.11,0.276,4.667
				c0.275,2.106,0.73,3.524,1.371,4.253l0.959-0.548h0.543c0.096,0,0.236,0.047,0.42,0.138v0.823
				c0.088,1.556-0.184,3.477-0.827,5.762l-1.515,0.55l-0.819,0.823h-0.551c-0.36,0.185-0.819,0.547-1.371,1.099h-0.55
				c0.371-2.287,0.55-4.895,0.55-7.824c0-1.28-0.043-3.154-0.132-5.625c-0.095-2.469-0.136-4.3-0.136-5.489
				c0-2.469,0.089-6.152,0.268-11.046c0.188-4.892,0.276-8.577,0.276-11.046c0-1.738-0.088-4.344-0.276-7.821
				c0.276-0.184,0.646-0.503,1.103-0.961c0.456-0.456,0.819-0.775,1.096-0.96l0.688-0.138l0.55-0.413l1.37,0.413l0.685-0.823
				c-0.181,0.459-0.275,1.236-0.275,2.332c0,0.366,0.048,0.961,0.143,1.784c0,0.823,0,1.464,0,1.921v0.686h-0.694
				c-2.102,3.843-3.149,7.135-3.149,9.88c0,0.642,0.093,1.512,0.276,2.607l0.408,0.138l0.826-0.823l0.269,0.275l6.455-3.567h0.681
				l0.552-0.276c0.731-1.28,1.102-3.978,1.102-8.096h0.819C756.861,92.36,757.183,92.176,757.092,92.176z"/>
			<g id="XMLID_38_">
				<g>
					<path fill="#050505" d="M708.66,100.135c0,0.54-0.119,1.26-0.3,2.22c0.12,0.24,0.181,0.72,0.181,1.32
						c0,0.66-0.181,1.62-0.601,2.819c-0.359,1.26-0.54,2.22-0.54,2.82c0,0.72,0.181,1.439,0.54,2.1
						c-0.359-0.6-0.899-0.84-1.619-0.84c-0.54,0-1.32,0.12-2.4,0.36c-1.079,0.18-1.859,0.3-2.399,0.3c-0.18-0.18-0.3-0.48-0.3-0.96
						c0-0.54,0.18-1.2,0.6-1.919c-1.919-6.779-5.099-10.138-9.478-10.138c-0.36,0-0.84,0.06-1.38,0.3c-0.181,0.24-0.3,0.72-0.3,1.32
						c0,0.3,0.06,0.72,0.18,1.32c0.06,0.6,0.12,1.08,0.12,1.439c0,0.54-0.12,1.08-0.42,1.5l0.42,22.916c0,0.48-0.061,1.14-0.12,2.1
						c-0.12,0.9-0.18,1.56-0.18,2.04c0,1.62,0.6,2.94,1.799,3.839c1.44,0.48,3.359,0.66,5.64,0.66c-0.18,0.66-0.3,2.759-0.3,6.359
						c-0.721-0.18-1.2-0.3-1.5-0.3c-0.36,0-0.96,0.06-1.8,0.18c-0.78,0.18-1.439,0.24-1.92,0.24c-0.779,0-1.56-0.3-2.339-0.84
						l-11.639-0.84c-0.479,0.48-1.199,0.72-2.22,0.72c-0.6,0-1.56-0.18-2.879-0.48c-1.26-0.3-2.28-0.48-3-0.48l0.66-5.879
						c0.42,0,0.899,0,1.56,0c0.6,0.06,1.08,0.12,1.38,0.12c2.819,0,4.199-2.58,4.199-7.679c0-1.5-0.12-3.66-0.479-6.479
						c-0.301-2.819-0.48-4.919-0.48-6.299c0-1.2,0.12-2.939,0.36-5.219c0.239-2.28,0.359-3.959,0.359-5.099
						c0-2.1-0.42-4.08-1.26-5.999c-5.398,1.2-8.578,3.12-9.598,5.879v3.299c0,1.44-0.24,2.64-0.66,3.6
						c-0.96-0.48-1.92-0.72-2.88-0.72c-0.84,0-1.619,0.12-2.34,0.42c-0.479-0.9-0.72-2.04-0.72-3.419c0-0.48,0.061-1.2,0.181-2.28
						c0.06-1.02,0.119-1.86,0.119-2.399c0-1.02-0.119-1.98-0.42-2.88c0.301-0.54,0.42-1.2,0.42-1.919c0-0.54-0.119-1.38-0.3-2.399
						c-0.18-1.08-0.239-1.8-0.239-2.28c0-0.72,0.119-1.38,0.42-1.92c0.72,0.36,1.56,0.54,2.459,0.54c0.42,0,1.14-0.06,2.1-0.18
						c0.96-0.12,1.68-0.24,2.16-0.24c0.899,0,1.739,0.24,2.459,0.6c0.72-0.18,1.32-0.3,1.8-0.3c0.6,0,1.5,0.12,2.64,0.3
						c1.14,0.18,1.979,0.24,2.58,0.24c0.899,0,1.499-0.06,1.919-0.24c0.78,0.24,1.68,0.36,2.58,0.36c0.479,0,1.08,0,1.92-0.12
						c0.84-0.06,1.439-0.12,1.799-0.12c0.9,0,1.8,0.12,2.58,0.42c0.72-0.18,1.319-0.3,1.8-0.3c0.54,0,1.38,0.12,2.459,0.3
						c1.08,0.18,1.92,0.24,2.46,0.24c0.84,0,1.439-0.06,1.8-0.24c0.84,0.24,2.399,0.3,4.679,0.12c1.98-0.06,3.479,0.12,4.38,0.66
						l2.22-0.36c0,0.78,0.18,2.1,0.54,3.839C708.48,97.915,708.66,99.235,708.66,100.135z"/>
				</g>
			</g>
		</g>
	</g>
	<g>
		<g>
			<polygon fill="#D8AF3B" points="420.173,58.476 446.795,34.108 535.327,29.971 550.068,118.914 524.511,139.146 440.873,146.8 
				432.642,140.112 			"/>
		</g>
		<g>
			<g id="XMLID_37_">
				<g>
					<path fill="#C01E62" d="M552.591,114.91c0.315,3.043,0.364,5.27,0.035,6.751c-0.58-0.362-0.963-0.563-1.142-0.545
						c-0.299,0.031-0.764,0.2-1.336,0.5c-0.632,0.307-1.103,0.416-1.461,0.453c-5.668,0.587-14.147,1.404-25.51,2.339
						c-11.356,0.995-19.901,1.758-25.63,2.351c-1.253,0.13-3.175,0.208-5.7,0.289c-2.524,0.08-4.387,0.152-5.699,0.288
						c-2.148,0.223-3.741,0.568-4.718,1.031c-0.396-0.321-0.832-0.457-1.249-0.414c-0.299,0.031-0.71,0.134-1.288,0.375
						s-1.044,0.41-1.401,0.447c-0.358,0.037-0.604,0.002-0.734-0.105c-2.531,0.021-4.453,0.099-5.587,0.216
						c-1.312,0.136-3.223,0.333-5.848,0.605c-2.566,0.265-4.476,0.463-5.788,0.599l-1.79,0.186
						c-0.325-0.811-1.027-1.763-2.058-2.983l-12.272-92.935c-0.143-1.373,0.629-2.659,2.261-3.792
						c2.663,0.086,8.589-0.346,17.778-1.297c1.193-0.124,2.811-0.23,4.798-0.255c2.405-0.068,4.029-0.115,4.983-0.214l63.521-4.523
						c1.623-0.047,2.721,1.226,3.184,3.952c0.43,3.574,0.807,5.465,1.142,5.792c2.005,13.543,4.117,26.955,6.229,40.366
						C549.7,90.482,551.461,103.99,552.591,114.91z M542.34,109.096l-8.534-61.478c-0.589-1.024-0.959-2.856-1.093-5.315
						c-0.2-2.512-0.624-4.277-1.338-5.35c-0.708-1.012-1.743-1.689-3.039-1.977l-0.262,0.389l-0.788-0.039l-0.771-0.463
						c-39.871,2.86-61.241,4.409-64.046,4.699c-1.015,0.105-2.619,0.332-4.743,0.792c-2.071,1.542-2.794,5.054-2.226,10.543
						c0.47,4.535,3.023,23.389,7.657,56.502c0.906,6.42,2.639,10.341,5.204,11.825l72.676-6.979L542.34,109.096z"/>
					<path fill="#C01E62" d="M553.098,123.301c-2.778,1.132-6.537,3.27-11.266,6.534c-4.788,3.27-8.422,5.455-11.026,6.509
						c-2.487,2.188-5.479,3.583-8.803,4.107l-5.608,0.581l-40.517,4.193c-14.023,1.452-23.1,2.331-27.282,2.703
						c-3.634,0.437-8.433,0.692-14.276,0.754c0.68-0.432,2.751-1.974,6.275-4.63c1.947-1.589,4.84-3.939,8.805-7.003
						c3.006-2.422,5.502-3.947,7.362-4.622c1.348-0.381,4.253-0.862,8.848-1.338c9.606-0.995,24.191-2.263,43.628-3.852
						C528.733,125.642,543.312,124.314,553.098,123.301z M519.371,138.914l20.634-12.75c-0.854-0.092-1.576-0.078-2.232-0.01
						c-23.274,1.806-45.854,3.902-67.754,6.168c-3.043,0.315-5.232,0.722-6.688,1.235l0.191,0.101l-0.936,0.278l-16.01,11.97
						c1.839,0.292,5.438,0.101,10.868-0.461l54.212-5.31C516.252,139.659,518.865,139.268,519.371,138.914z"/>
					<path fill="#050505" d="M527.602,91.985l0.418,5.204c-0.798,0.445-2.158,0.706-4.14,0.791s-3.396,0.412-4.234,1.042
						l-1.492,0.154c-1.193,0.124-3.002,0.13-5.426,0.019c-2.483-0.104-4.352-0.092-5.605,0.038
						c-1.551,0.161-2.846,0.475-3.883,0.944c-1.078-2.843-1.603-4.417-1.64-4.775c-0.08-0.776-0.076-1.319,0.006-1.689
						c1.247-0.189,2.488-0.438,3.615-0.615c1.891-0.377,2.79-1.013,2.704-1.848c-0.081-0.775-0.49-1.819-1.282-3.063
						c-0.732-1.251-1.195-2.229-1.276-3.004c-1.173-0.843-4.928-0.998-11.193-0.349c-1.969,0.204-3.515,0.424-4.463,0.583
						c-0.409,0.706-0.634,1.453-0.727,2.307c0.198,0.161,0.295,0.512,0.351,1.049c0.049,0.478-0.068,1.093-0.353,1.846
						c-0.283,0.753-0.467,1.315-0.489,1.679c0.333,1.473,0.957,2.253,1.883,2.459c0.305,0.028,1.391,0.037,3.312-0.042
						c1.081-0.052,1.834,0.232,2.319,0.846l0.358,5.21c-1.463-0.15-3.087-0.103-4.817,0.076c-1.014,0.105-2.5,0.319-4.636,0.661
						c-2.069,0.395-3.615,0.616-4.749,0.733c-2.625,0.271-4.93,0.148-6.92-0.43l-0.411-5.144c2.685-0.278,4.489-1.49,5.604-3.536
						c0.658-1.214,1.212-3.442,1.666-6.625c0.396-3.177,0.889-5.399,1.481-6.667l-0.362-1.168c0.29-0.693,0.663-1.757,1.165-3.317
						c0.055-1.212,0.228-3.039,0.512-5.542c0.74-3.333,1.798-8.268,3.153-14.981l-0.23-1.062l0.451-0.891
						c0.5-0.414,1.078-0.654,1.675-0.716c1.004,0.378,2.162,0.5,3.654,0.345c0.716-0.074,1.718-0.298,3.019-0.554
						c1.3-0.255,2.309-0.419,2.965-0.488c2.268-0.234,3.821,0.208,4.654,1.268c0.563,0.786,0.916,2.438,1.182,5.004
						c0.321,3.103,2.521,7.459,6.605,13.127c0.918,1.292,1.862,3.426,2.966,6.508c1.103,3.082,2.173,5.263,3.223,6.662
						c0.296,2.864,2.251,5.437,5.799,7.663L527.602,91.985z M498.584,77.921c0.836-0.086,1.624-0.047,2.483,0.104
						c-1.08-1.697-2.294-4.104-3.517-7.175c-1.619-3.994-2.654-6.419-3.105-7.277c-0.926,1.543-1.267,2.905-0.965,4.08
						c-0.802,0.988-1.226,2.72-1.396,5.15c-0.146,2.669-0.438,4.508-0.764,5.447c0.819,0.337,1.799,0.477,2.933,0.36
						c0.537-0.056,1.247-0.189,2.195-0.348C497.391,78.044,498.106,77.97,498.584,77.921z"/>
					<path fill="#C01E62" d="M520.05,129.737c0.656-0.068,1.134-0.118,1.373-0.142c-0.327,0.335-0.827,0.749-1.494,1.3
						c-1.264,0.613-2.907,1.628-5.045,3.116l-6.433,0.786l1.019-0.648l-0.024-0.239c-0.92-0.146-1.643-0.132-2.179-0.076
						c-5.729,0.593-9.044,1.78-10.011,3.509c4.089-0.122,6.07-0.206,6.07-0.206c0.656-0.068,1.479-0.273,2.535-0.564
						c0.958-0.642,2.008-0.992,3.201-1.115c0.478-0.049,1.134-0.117,2.101-0.097c0.776-0.081,1.433-0.148,1.91-0.198
						c-1.597,0.889-3.128,1.832-4.712,2.84c-1.145,0.601-3.214,0.996-6.317,1.317c0.173-0.078,0.221-0.204,0.195-0.442l-0.024-0.238
						c-2.718-0.624-6.467-0.718-11.301-0.218c-1.372,0.142-3.395,0.412-6.134,0.755c-2.732,0.403-4.755,0.673-6.127,0.815
						c-4.834,0.5-8.583,0.406-11.36-0.211l-0.138-0.167c0.833-0.689,2.251-1.56,4.146-2.479c0.531-0.115,3.27-0.459,8.163-0.965
						c3.222-0.333,7.977-1.007,14.385-2.032c6.348-1.019,11.162-1.698,14.325-2.025c1.193-0.124,2.898-0.542,5.183-1.2
						c2.284-0.659,3.996-1.017,5.189-1.14C518.904,129.735,519.447,129.739,520.05,129.737z M493.282,136.247l1.223-0.428
						c-4.617,0.84-9.784,1.616-15.513,2.208c1.894,0.227,5.141,0.131,9.914-0.363C491.353,137.412,492.813,136.959,493.282,136.247z
						"/>
					<path fill="#C01E62" d="M454.183,127.327c0.167,1.611,0.137,3.062-0.158,4.298c-0.87,0.331-1.93,1.165-3.257,2.327
						c-1.321,1.222-2.387,1.996-3.257,2.327l-14.3,11.009c-0.996-1.465-3.199-15.168-6.607-41.111
						c-2.711-20.949-4.609-36.373-5.622-46.159c-0.117-1.134-0.165-2.757-0.214-4.983l0.238-0.025
						c0.545-1.142,3.994-5.117,10.357-11.807c0.392-0.885,1.134-1.866,2.282-3.01c1.088-1.138,1.844-2,2.146-2.574l0.251,0.095
						c0.397-0.825,1.188-1.933,2.442-3.208c1.255-1.276,2.058-2.264,2.474-2.91c0.722,1.734,2.251,10.683,4.528,26.852
						C449.144,83.882,452.064,106.86,454.183,127.327z M449.979,114.675c-0.933-9.01-2.462-21.457-4.588-37.34
						c-2.806-20.698-4.665-31.663-5.762-32.936L424.08,61.99c-0.094,2-0.108,3.027-0.09,3.206l7.581,58.681
						c0.216,2.088,0.433,4.177,0.648,6.266c0.5,3.084,1.056,4.957,1.727,5.611l0.076-0.43l0.239-0.024l0.222,0.399l15.156-12.062
						C450.333,122.177,450.448,119.21,449.979,114.675z"/>
					<path fill="#C01E62" d="M439.776,62.718l0.656,5.179c-1.181,1.992-1.281,9.179-0.241,21.556
						c1.093,14.06,1.456,22.225,1.159,24.607l-0.142,0.376c-0.066-0.054-0.191-0.101-0.37-0.083
						c-0.418,0.043-0.805,0.385-1.214,1.091c-0.41,0.706-0.797,1.047-1.095,1.078c-0.537,0.056-0.966-1.167-1.351-3.72
						c-0.22-1.545-0.44-3.09-0.601-4.642c-2.927-16.042-5.24-25.572-6.934-28.533l-0.955,0.099l-0.506-4.893
						c0.541-0.599,1.164-1.568,1.744-2.955c0.877-0.271,2.084-1.422,3.511-3.379c0.439,1.342,0.775,3.418,1.065,6.222l-0.868,0.935
						c-0.284,0.753-0.37,1.667-0.253,2.8c0.056,0.537,0.202,1.366,0.504,2.541c0.303,1.175,0.515,2.058,0.583,2.714l0.323,0.208
						c0.895-0.093,1.948-0.986,3.147-2.798c0.117-0.615,0.072-1.636-0.069-3.008c-0.284-2.745-0.614-4.761-1.055-6.103l-0.707,0.737
						c-0.401-0.381-0.673-1.257-0.815-2.63l-0.327-3.163c0.716-0.074,1.489-0.757,2.255-2.103
						C437.994,63.566,438.821,62.817,439.776,62.718z M438.302,88.683l-0.567-0.243l-1.111,1.502l-0.537,0.056
						c0.673,3.006,1.62,7.492,2.906,13.51c0.132-1.642-0.009-4.16-0.282-7.389C438.43,92.832,438.296,90.373,438.302,88.683z"/>
				</g>
			</g>
		</g>
	</g>
	<g>
		<polygon fill="#D8AF3B" points="639.488,166.059 656.76,81.464 638.425,53.889 552.33,46.706 535.943,126.043 555.933,153.399 		
			"/>
		<g>
			<path fill="#0E783D" d="M624.244,134.061c-0.683,2.941-1.5,5.24-2.449,6.896l-0.877-0.483c-7.922-0.246-19-1.69-33.217-4.341
				c-2.966-0.595-7.428-1.398-13.393-2.408c-1.021-0.05-2.556-0.123-4.592-0.225c-3.098-0.812-7.815-1.533-14.156-2.162
				l-0.867-0.483l-20.119-2.563l-0.741-2.85l17.769-80.679c0.997-1.459,2.051-2.384,3.181-2.78
				c2.227,0.515,10.247,1.584,24.049,3.195l58.964,6.942c1.159,0.27,1.547,1.629,1.166,4.078c-0.21,1.732-0.472,3.459-0.778,5.17
				c-0.018,0.087-2.231,12.208-6.619,36.357C628.921,112.326,626.482,124.439,624.244,134.061z M639.488,166.059
				c-0.778,0.103-4.866-0.287-12.268-1.16c-10.673-1.354-24.254-3.339-40.739-5.95c-15.839-2.554-26.033-4.358-30.581-5.415
				l0.032-0.135c-1.467-1.374-4.113-4.334-7.938-8.887c-3.328-3.873-6.188-6.701-8.59-8.477l0.059-0.269l-0.979-0.65
				c-0.937-1.626-2.558-3.321-4.874-5.076c1.816-0.144,5.23,0.088,10.258,0.694c2.555,0.31,8.887,1.172,18.99,2.581
				c14.004,1.945,26.297,3.814,36.871,5.612c11.395,1.898,18.424,3.158,21.094,3.779c1.161,0.266,2.041,0.521,2.645,0.752
				c1.539,3.085,4.029,6.905,7.482,11.459C633.828,158.687,636.676,162.398,639.488,166.059z M616.15,127.669
				c0.363-1.977,2.309-12.373,5.84-31.184c2.367-12.599,4.492-22.953,6.373-31.062c0.64-2.762-0.065-4.567-2.115-5.425l-0.467,0.176
				l-1.078-0.812c-11.121-1.458-22.192-2.909-33.229-4.344c-18.432-2.314-28.254-3.282-29.469-2.906
				c-2.248,0.792-4.037,4.039-5.366,9.742c-0.059,0.264-3.552,16.269-10.453,48.001c-1.234,5.724-0.918,9.417,0.949,11.07
				l66.729,9.312L616.15,127.669z M628.944,162.342l-0.51-0.258l0.462-0.175l-12.454-16.703c-0.363-0.457-1.53-0.917-3.486-1.374
				l-1.341-0.31c-7.482-1.74-16.872-3.359-28.168-4.857c-9.503-1.174-18.982-2.393-28.454-3.655c-1.623-0.284-3.31-0.536-5.037-0.75
				c-2.003-0.278-3.609-0.228-4.823,0.147l16.945,18.025c0.261,0.062,0.608,0.188,1.029,0.381c0.445,0.103,0.763,0.176,0.937,0.217
				l0.938,0.22l53.055,8.108c1.898,0.343,3.748,0.636,5.574,0.87C626.238,162.649,628.02,162.69,628.944,162.342z M613.807,157.131
				c-5.126-0.158-10.721-0.94-16.778-2.35l-1.419-1.174l-0.034-0.434c2.46,0.293,4.105,0.489,4.933,0.586
				c2.133,0.12,3.81-0.008,5.013-0.383c-0.187-2.016-4.333-3.966-12.441-5.85c-11.224-2.609-18.414-3.204-21.563-1.774l-0.16,0.667
				c1.161,1.488,3.457,2.727,6.891,3.714c-0.963-0.316,1.674,0.249,7.915,1.699l-0.064,0.269l1.153,1.111
				c-1.67-0.103-4.105-0.527-7.312-1.274c-7.303-1.699-12.367-4.379-15.176-8.038l-0.021-1.13c2.319-1.903,7.483-2.112,15.496-0.624
				c5.567,1.104,11.132,2.211,16.703,3.318l5.856,2.065c2.878,0.952,4.556,1.811,5.034,2.581l0.878,0.483
				c0.445,0.48,1.011,0.89,1.688,1.236l0.339,0.929l-0.315,0.77l-1.84,1.263c0.867,0.292,2.237,0.662,4.114,1.098l0.716,1.148
				L613.807,157.131z M642.288,160.655c-0.474,2.047-0.913,3.544-1.323,4.484c-0.901-2.185-4.932-8.055-12.102-17.61
				c-1.044-1.178-2.414-2.953-4.119-5.323c-0.463-0.858,1.775-14.289,6.685-40.285c4.469-23.665,7.475-38.792,9.002-45.386
				c0.371-1.602,0.697-2.797,0.973-3.576l0.083,0.864l0.506,0.257c0.83,2.074,2.622,5.68,5.369,10.827
				c2.861,5.458,4.817,8.776,5.861,9.956l0.106,0.73l0.374,0.228c0.533,1.346,1.547,3.226,3.057,5.642
				c0.171,2.481-0.942,10.302-3.34,23.455C649.249,128.088,645.546,146.665,642.288,160.655z M642.627,148.9
				c1.578-6.769,3.275-15.299,5.107-25.581c1.434-8.588,2.91-17.168,4.434-25.736c0.483-2.513,0.926-6.215,1.311-11.107
				L641.51,65.242c-0.58,1.272-0.878,1.954-0.896,2.042l-10.604,55.296c-0.408,2.159-0.827,4.365-1.251,6.612
				c-0.486,2.894-0.599,4.982-0.331,6.263l0.03-0.135l0.214,0.896l11.937,17.143l0.404,0.093
				C641.676,152.198,642.22,150.684,642.627,148.9z M645.124,118.771c-0.392,1.689-0.771,2.917-1.136,3.676
				c-0.023,0.094-0.017,0.281,0.01,0.568c-0.063,0.267-0.115,0.493-0.156,0.668c-0.123,0.533-0.38,1.344-0.771,2.429
				c-0.396,1.081-0.664,1.936-0.803,2.557c-0.453,1.116-1.436,2.721-2.955,4.811l-0.902-0.353l-0.197,0.237l-0.68-0.724l-0.33,0.205
				c-0.551-0.876-1.112-3.684-1.703-8.424l-1.114,2.979l-0.476-0.39l-0.35-0.925l-0.164,0.102c0.479-4.487,1.5-10.076,3.059-16.761
				l0.114-0.536l0.98,0.653l0.245,0.759c-0.357,2.736-0.755,5.46-1.201,8.176c-0.197,3.708,0.294,6.221,1.494,7.531l0.802,0.187
				c0.963-0.905,1.96-3.582,3.001-8.037c0.907-3.92,1.652-8.352,2.237-13.284c0.776-6.96,0.592-11.228-0.545-12.806l-0.829-0.056
				l-0.857,0.65c-0.771,1.699-1.571,4.332-2.395,7.892l-0.119-0.729l-0.602-0.422l-0.313-0.495c0.253-1.07,0.753-2.83,1.514-5.285
				c0.691-2.182,1.161-3.958,1.381-5.313l1.759-2.127l0.925-0.345c2.333,1.666,3.388,6.842,3.153,15.521
				C646.954,108.064,646.261,113.867,645.124,118.771z"/>
			<g id="XMLID_36_">
				<g>
					<path fill="#050505" d="M606.138,98.732c-0.054,0.234-0.108,0.468-0.148,0.643c-0.123,0.526-0.543,1.537-1.305,2.961
						c-0.704,1.438-1.021,2.534-1.008,3.276c-0.729,0.754-1.712,2.065-2.889,3.948c-6.183,2.751-9.651,4.162-10.435,4.349
						c-1.785,0.263-5.593-0.314-11.494-1.687c-9.058-2.105-14.024-8.557-14.785-19.327c0.414-0.458,0.681-1.074,0.844-1.775
						c0.068-0.292,0.046-0.729-0.007-1.295l-0.377-0.765c0.38-0.835,0.822-2.211,1.257-4.081c0.381-1.636,0.899-2.809,1.688-3.55
						l0.285-1.227c0.19-0.818,0.771-1.729,1.816-2.78c1.059-1.109,1.627-1.962,1.803-2.722c0.131-0.031,2.332-1.552,6.591-4.504
						c2.646-1.849,5.139-2.501,7.359-1.985c0.504-0.314,1.448-0.402,2.747-0.162c1.312,0.182,2.315,0.107,2.964-0.296
						c0.553,0.005,1.443,0.151,2.611,0.422c2.221,0.516,5.527,2.455,9.946,5.699c0.555-0.795,1.424-1.886,2.739-3.305
						c0.247-0.004,0.684-0.026,1.236-0.021c0.566-0.053,1.003-0.075,1.309-0.065l1.523,0.601l0.899-0.161
						c0.223,1.161,0.167,2.195-0.063,3.188c-0.108,0.467-0.258,1.11-0.565,1.901c-0.262,0.863-0.47,1.492-0.578,1.959
						c-0.204,0.876-0.277,1.722-0.176,2.608c-0.198,0.323-0.365,0.777-0.515,1.42c-0.108,0.468-0.154,1.196-0.255,2.158
						c-0.101,0.962-0.205,1.677-0.327,2.203c-0.109,0.467-0.303,1.038-0.642,1.698c-2.733,0.104-4.335,0.101-4.802-0.007
						c-0.117-0.027-0.234-0.055-0.382-0.212c-0.234-0.055-0.468-0.109-0.526-0.123c-0.233-2.703-0.468-5.405-0.747-8.18
						c-0.742-2.636-2.69-4.321-5.904-5.068c-3.915-0.91-6.955-0.816-9.061,0.296c-1.373,0.605-2.603,1.92-3.617,3.901
						c-1.015,1.981-1.826,3.086-2.461,3.432c-0.013,0.058,0.005,0.247,0.022,0.436c-0.055,0.234-0.096,0.409-0.122,0.526
						c-0.231,0.993-0.754,1.919-1.655,2.879c0.264,0.985,0.145,2.559-0.358,4.721c-0.516,2.221-0.636,3.794-0.313,4.793
						c-0.373,2.931,0.063,5.558,1.413,7.965c1.305,2.336,3.411,3.873,6.274,4.538c4.148,0.964,7.324,0.286,9.454-1.99
						c1.844-2.897,3.66-5.678,5.477-8.458c0.644,0.149,1.547,0.236,2.697,0.319c1.151,0.083,1.983,0.214,2.509,0.337
						C606.071,98.224,606.089,98.413,606.138,98.732z"/>
				</g>
			</g>
		</g>
	</g>
	<g>
		<polygon fill="#D8AF3B" points="919.087,56.241 922.654,141.729 948.449,166.015 1034.762,156.548 1031.554,63.979 
			1001.056,49.981 		"/>
		<g>
			<path fill="#EE2724" d="M945.565,162.175c0,1.186-0.045,2.056-0.133,2.607l-0.688-0.275l-0.819-0.961
				c-0.282,0-0.502-0.091-0.69-0.275c-2.38-2.013-6.081-5.533-11.114-10.565c-5.582-5.671-8.734-9.33-9.467-10.976
				c0-1.008-0.047-2.423-0.136-4.254l-2.062-40.618c-1.277-25.247-1.922-38.601-1.922-40.066l0.552-0.55l21.958,15.917
				c0.819,3.021,1.229,5.994,1.229,8.919c0,8.967,0.551,22.482,1.652,40.549C945.021,139.693,945.565,153.209,945.565,162.175z
				 M1033.666,64.336c-1.196,0.276-5.357,0.733-12.491,1.375c-4.663,0.456-11.616,1.095-20.856,1.918
				c-11.986,1.008-23.599,1.878-34.852,2.607c-12.168,0.827-18.8,1.237-19.901,1.237c-0.724,0-1.922-0.091-3.562-0.276
				c-0.643-0.911-1.761-1.784-3.363-2.607c-1.605-0.823-2.677-1.646-3.221-2.469l-15.373-10.978
				c0.734-0.273,4.57-0.729,11.529-1.371c18.292-1.737,33.11-2.971,44.453-3.706c13.54-0.915,23.193-1.371,28.951-1.371v0.272
				l1.102,0.413c0.916,0.732,3.154,2.059,6.729,3.978c2.922,1.649,7.356,3.981,13.309,7.001v0.135
				C1027.398,60.954,1029.915,62.233,1033.666,64.336z M942.684,150.511v-0.686l-2.601-64.22c-0.188-3.568-1.331-6.128-3.433-7.683
				l-12.9-9.605c-0.363-0.185-0.867-0.367-1.51-0.551l-0.549,0.275c-0.18,0.642-0.274,1.603-0.274,2.882
				c0,5.033,0.458,16.831,1.371,35.403c1.009,19.942,1.788,30.188,2.333,30.736l14.554,14.409c0.36,0.363,1.228,1.004,2.599,1.921
				C942.556,152.477,942.684,151.516,942.684,150.511z M938.713,132.397l-0.552,0.138l-1.779-1.371
				c-0.095-0.823-0.646-1.465-1.652-1.921l-0.412-0.551l-0.274-5.352l0.826-0.272c1.095-1.19,1.639-3.706,1.639-7.549
				c0-5.395-0.632-9.33-1.915-11.799h-0.827c-0.268,2.012-0.407,4.024-0.407,6.037c0,1.189,0.092,2.974,0.276,5.352l-0.276,0.548
				c0.092,0.46,0.14,1.189,0.14,2.197c0,5.305-0.644,8.644-1.922,10.015l-0.282-0.271v0.271l-0.27-0.685l-0.551,0.138
				c-3.108-3.568-4.662-11.846-4.662-24.837c0-3.567,0.224-6.631,0.687-9.194c-0.922-1.735-1.377-4.253-1.377-7.545l0.551-0.276
				l0.959,1.237h0.551c0.184,0.547,0.775,1.007,1.783,1.371l0.551,0.823c0,0.369,0.048,0.917,0.139,1.648c0,0.733,0,1.281,0,1.646
				v2.332l-0.689-0.275c-1.097,1.558-1.641,4.485-1.641,8.782c0,5.032,0.544,9.15,1.641,12.349l0.551,0.413
				c0.551-0.823,0.958-4.619,1.234-11.389c0.274-7.41,0.544-11.801,0.826-13.173h0.545l0.551-0.274l0.411,0.138l0.683,0.823h0.412
				c2.565,4.575,3.843,12.396,3.843,23.462c0,3.661-0.183,6.954-0.55,9.881c0.367,1.283,0.69,2.197,0.959,2.744v0.55
				c-0.085,0.458-0.065,1.119,0.071,1.99C938.641,131.416,938.713,132.034,938.713,132.397z M1021.175,62.966l-21.816-11.938
				c-1.095-0.182-2.148-0.226-3.153-0.139l-53.789,3.844c-2.932,0.089-6.54,0.547-10.84,1.371c0.088,0,0.178-0.044,0.268-0.135
				c0.097,0,0.145,0.046,0.145,0.135c0,0.094-0.096,0.231-0.276,0.413c3.293,2.469,6.585,4.938,9.885,7.41
				c4.747,3.201,8.314,4.801,10.696,4.801c8.047,0,17.924-0.501,29.641-1.509c9.786-0.914,19.621-1.83,29.506-2.744
				C1013.629,64.384,1016.875,63.88,1021.175,62.966z M1035.445,147.081c0,4.207-0.229,7.361-0.684,9.468c-0.088,0-0.276,0-0.548,0
				c-0.278-0.091-0.503-0.138-0.69-0.138c-0.363,0-0.936,0.114-1.71,0.343c-0.779,0.229-1.306,0.343-1.583,0.343
				c-10.24,1.099-25.52,2.745-45.83,4.942c-3.204,0.089-7.959,0.594-14.269,1.508c-0.089,0-0.274,0-0.547,0
				c-0.279-0.091-0.463-0.137-0.552-0.137c-0.642,0-1.323,0.229-2.061,0.685c-2.741,0-8.915,0.641-18.523,1.921l-1.506-2.469
				l-3.433-86.997c-0.087-1.28,0.731-2.513,2.473-3.706c2.745,0,6.789-0.296,12.144-0.89c5.35-0.595,9.349-0.89,12.005-0.89h1.922
				l59.831-4.667c1.639-0.091,2.466,2.15,2.466,6.723c0,1.283,0.135,2.197,0.411,2.744L1035.445,147.081z M1003.477,61.455
				c-3.662,0.823-9.285,1.236-16.88,1.236l-1.099-0.686l0.14-0.413c1.646-0.182,3.978-0.776,6.997-1.784l0.415-0.549
				c-1.19-1.461-3.569-2.196-7.136-2.196c-1.834,0-3.389,0.231-4.67,0.688l-0.412,0.686l0.275,0.548l-0.415,0.685l0.552,0.413v0.687
				l0.551,0.685c-1.559,1.831-6.129,2.744-13.721,2.744c-9.332,0-14.728-1.142-16.193-3.429l0.276-0.961l0.962-0.823
				c-0.466-0.091-1.789-0.138-3.979-0.138c0.089-0.364-0.187-0.549-0.826-0.549l-0.275-0.274c1.922-0.364,4.687-0.595,8.303-0.685
				c3.614-0.091,6.243-0.275,7.891-0.549l1.509,0.961c-1.922,0.182-3.335,0.411-4.25,0.686c-1.742,0.457-2.93,1.099-3.576,1.922
				l0.964,0.958c1.825,0.55,3.706,0.825,5.628,0.825c2.379,0,4.023-0.365,4.939-1.098l0.14-0.55l-1.099-1.234l0.408-0.138
				l-0.27-0.96c1.275-1.646,3.429-2.47,6.445-2.47l0.14-0.137h2.058c1.096,0,2.745-0.068,4.938-0.206
				c2.194-0.137,3.839-0.208,4.942-0.208c4.938,0,8.69,1.055,11.248,3.157c0.274,0.091,0.458,0.504,0.551,1.237l-1.234,0.823
				C999.635,60.359,1001.555,60.726,1003.477,61.455z M1026.8,145.707l-0.412-56.944c-0.364-0.732-0.544-1.649-0.544-2.744
				c0-0.551,0.041-1.304,0.137-2.265c0.091-0.961,0.139-1.67,0.139-2.127c0-2.744-1.102-4.344-3.293-4.804l-0.281,0.276
				l-0.408,0.137l-0.962-0.688c-21.218,1.559-42.812,3.43-64.763,5.627c-2.011,1.739-3.018,5.123-3.018,10.152
				c0,7.047,0.27,15.829,0.82,26.348c0.359,8.782,0.771,17.563,1.234,26.345c0.088,2.654,0.275,4.62,0.543,5.899
				c0.646,2.379,1.702,3.981,3.164,4.804l66.137-7.274L1026.8,145.707z"/>
			<g id="XMLID_35_">
				<g>
					<path fill="#050505" d="M1010.555,123.067c0.24,1.02,0.36,1.799,0.36,2.339c0,4.919-2.521,8.579-7.439,10.978
						c-2.999,1.38-7.618,2.4-13.857,3.12c-1.08-0.36-2.579-0.54-4.379-0.54c-1.86,0-3.84-0.78-6.06-2.339
						c-1.199,2.399-3.479,3.839-6.839,4.259c-0.54-0.9-0.779-2.28-0.6-4.139c0.12-1.92,0.06-3.18-0.24-3.78
						c0.181-0.959,0.3-1.56,0.3-1.919c0-0.66-0.119-1.62-0.3-2.819c-0.18-1.26-0.239-2.16-0.239-2.82c0-0.48,0.06-1.14,0.239-2.04
						c0.12,0,0.3,0,0.54,0c0.18,0.06,0.36,0.12,0.42,0.12c0.36,0,0.9-0.06,1.56-0.12c0.72-0.12,1.26-0.18,1.62-0.18
						c1.739,0,2.34,0.96,1.92,2.76c2.52,5.039,6.898,7.559,13.018,7.559c2.46,0,4.619-0.6,6.539-1.859
						c1.859-1.26,2.819-3.06,2.819-5.399c-0.96-2.1-2.64-3.359-5.1-3.719c-3.479-0.48-5.579-0.9-6.299-1.38l-1.919,0.12l-0.42-0.24
						l-0.84,0.12c-0.24-0.12-0.721-0.24-1.32-0.42c-0.6-0.18-1.02-0.3-1.26-0.42c-0.36,0.12-0.899,0.18-1.5,0.18
						c-2.759,0-5.938-1.8-9.479-5.399c-0.119-0.36-0.42-1.379-0.959-3.119c-0.36-1.32-0.54-2.34-0.54-3.18
						c0-0.42,0.06-1.02,0.239-1.8c-0.239-0.54-0.42-1.08-0.42-1.62c0-0.72,0.301-1.68,0.9-2.879s0.96-2.04,1.02-2.459
						c0.9-0.84,1.859-1.74,2.819-2.76c0.96-1.02,1.92-1.5,2.82-1.5c1.079-1.08,2.219-1.8,3.299-1.98c1.08-0.24,1.859-0.54,2.34-0.9
						c2.34-0.66,4.499-0.959,6.419-0.959c3.839,0,7.738,1.02,11.698,3.119c0.54-0.72,1.199-1.919,1.919-3.539c0.061,0,0.24,0,0.54,0
						c0.181,0.06,0.3,0.12,0.42,0.12c0.24,0,0.66-0.06,1.2-0.24c0.6-0.18,1.02-0.3,1.38-0.3h0.72c0.6,1.379,0.96,4.199,0.96,8.519
						c0,1.799-0.12,4.679-0.3,8.519l-5.22,0.42c-0.72-4.859-4.259-8.279-10.558-10.318c-2.28,0.3-4.5,0.48-6.719,0.66
						c-1.92,0.48-3.18,2.34-3.84,5.519c0.479,0.72,0.6,1.5,0.42,2.34l0.42,0.66c2.279,1.56,5.219,2.34,8.759,2.34
						c1.439,0,2.579-0.06,3.299-0.12l0.66,0.54c7.139,0.66,12.058,3.359,14.697,8.219v1.379l0.42,0.3l-0.42,0.78
						C1010.194,121.327,1010.314,122.047,1010.555,123.067z"/>
				</g>
			</g>
		</g>
	</g>
	<g>
		<polygon fill="#D8AF3B" points="822.604,150.851 831.809,71.373 857.539,52.965 937.423,64.604 935.031,122.831 933.358,150.174 
			902.626,166.015 		"/>
		<g>
			<path fill="#19B24B" d="M856.454,51.065c-0.089,0.45-0.269,1.942-0.544,4.466l-3.925,40.619
				c-0.722,6.591-1.489,13.226-2.296,19.904c-0.908,7.853-1.312,14.487-1.222,19.904l-1.088,2.03l-24.101,15.164
				c-0.445-0.724-0.675-1.488-0.675-2.302c0-3.067,0.317-6.948,0.949-11.644c0.99-6.856,1.528-10.697,1.624-11.508l5.554-53.616
				c0.176-1.356,0.536-2.256,1.077-2.71c0.902-0.721,1.493-1.306,1.763-1.76c3.792-3.336,7.587-6.723,11.372-10.152
				C850.451,54.677,854.287,51.876,856.454,51.065z M932.816,151.934c-18.773,9.388-28.837,14.081-30.19,14.081
				c-1.174,0-7.313-0.724-18.415-2.165c-4.153-0.542-14.489-2.033-31.009-4.47c-4.146-0.632-10.284-1.623-18.413-2.976
				c-2.437-0.272-6.004-0.949-10.69-2.033l0.269-0.542l0.948-0.542l0.272-0.405c4.059-2.618,8.167-5.281,12.312-7.988
				c5.966-3.702,9.977-5.822,12.057-6.365c0.445,0.091,1.939,0.316,4.463,0.677c16.696,2.167,36.383,5.238,59.038,9.207
				c4.241,0.542,10.608,1.491,19.091,2.844L932.816,151.934z M852.798,62.437l-0.673-0.947c-3.796,2.891-7.541,5.776-11.241,8.665
				c-5.058,4.153-7.904,7.54-8.531,10.155c-0.089,0.27-0.179,0.768-0.268,1.488c-3.792,20.671-5.69,39.898-5.69,57.682
				c0,1.082,0.048,1.895,0.143,2.438l0.674,0.27c2.887-0.993,6.636-3.113,11.234-6.363c5.326-3.793,8.081-6.772,8.261-8.937
				L852.798,62.437z M846.706,88.975c0,0.996-0.089,2.504-0.274,4.538c-0.178,2.03-0.27,3.588-0.27,4.669
				c-0.633,1.537-1.125,4.604-1.49,9.209c-0.363,3.702-1.438,6.77-3.244,9.207h-0.412c-0.18,0.091-0.488,0.632-0.949,1.625
				l-0.805,0.404c-0.185,0.273-0.542,0.677-1.086,1.218l-0.544-0.134c-0.633,0.181-1.489,0.857-2.568,2.029
				c-1.897,0.996-2.759,3.434-2.574,7.312l-0.809,0.949l-0.817,0.135c0.817-5.235,1.67-13.132,2.574-23.695l1.486-1.083
				c0,0.454-0.047,1.107-0.135,1.964c-0.086,0.859-0.134,1.513-0.134,1.963v1.896l4.875-3.386c0.269-0.542,0.901-0.99,1.897-1.354
				l0.537-0.811l0.681-0.408c0.445-1.804,0.949-3.722,1.489-5.751c0.537-2.034,0.809-3.815,0.809-5.35
				c0-1.625-0.271-2.931-0.809-3.927l-0.411-0.27l-0.538,0.27h-0.411l-1.218,1.219l-0.541,0.138l-0.536,1.08l-1.085,0.138
				l-0.545,0.811l-0.404-0.135c-0.27,0.36-0.861,0.858-1.762,1.488c-0.178,0.364-0.493,1.808-0.943,4.333
				c-0.274,1.716-0.951,2.892-2.034,3.521l1.76-17.467c0-0.451,0.455-0.989,1.356-1.622h0.27c-0.182,1.263-0.27,2.212-0.27,2.841
				c0,1.084,0.088,1.895,0.27,2.438c0.72-0.179,1.537-0.812,2.438-1.895c0.901-1.084,1.669-1.669,2.303-1.761l0.544-0.542
				l0.809-0.27l0.681-0.811l1.486-0.815C846.254,84.146,846.706,86.177,846.706,88.975z M920.224,151.934
				c-2.075-0.811-12.772-2.686-32.087-5.618c-19.315-2.932-30.598-4.399-33.85-4.399c-0.268,0-2.976,1.535-8.125,4.602
				c-3.16,1.895-6.269,3.746-9.34,5.551l-0.407,0.542l-1.222,0.677l-0.404,0.542c1.717,0.814,11.577,2.595,29.586,5.349
				c18.01,2.754,28.408,4.131,31.206,4.131c2.352,0,6.411-1.445,12.187-4.333c4.064-2.077,8.126-4.198,12.186-6.365L920.224,151.934
				z M897.479,153.153l-0.813,0.135l-0.136,0.814l-0.806,0.269c-0.276,0.273-1.854,0.95-4.745,2.033l-0.13,0.539l-1.359,0.679v0.405
				c0.728,0.36,2.303,0.676,4.737,0.949l-0.133,0.27l-1.629,0.676c-9.292-2.255-16.785-3.43-22.472-3.518l1.755-0.814
				c2.262,0.451,4.385,0.677,6.37,0.677c3.252-1.985,5.729-3.339,7.445-4.06l0.948-0.95c-1.896-1.443-5.101-2.167-9.614-2.167
				c-3.067,0-5.592,0.273-7.584,0.814l-0.674,0.811l-0.942,0.135v0.542l-2.041,0.542l-0.129,0.408l-1.218,0.135
				c-0.363,0.36-0.592,0.629-0.68,0.812l-0.812,0.272l0.543,0.811c0.99,0.089,2.437,0.273,4.337,0.543l-1.36,0.949
				c-3.877-0.363-9.748-1.219-17.598-2.575l0.404-0.542l1.218-0.404c1.802,0.36,3.204,0.542,4.201,0.542
				c1.258,0,2.792-0.498,4.599-1.491c2.435-1.354,3.883-2.12,4.335-2.302l0.27-0.404h0.405v-0.273
				c0.901-0.542,3.067-0.811,6.503-0.811c3.97,0,8.663,0.36,14.081,1.084c6.855,0.993,11.098,2.211,12.724,3.655V153.153z
				 M939.32,68.125c0,9.206-0.503,20.489-1.492,33.85c-0.812,11.192-1.671,22.432-2.572,33.712
				c-0.184,2.437-0.316,4.875-0.411,7.312c-0.269,2.8-0.762,5.193-1.486,7.176l-0.949-0.405l-2.163,0.405
				c-0.633-0.273-15.658-2.625-45.093-7.059c-0.633-0.089-2.881-0.543-6.765-1.36c-2.795-0.632-5.103-0.949-6.907-0.949
				c-0.538-0.27-0.854-0.407-0.949-0.407c-1.347-0.091-3.382-0.316-6.093-0.677c-2.976-0.636-7.485-1.315-13.533-2.038l-1.217-2.851
				l7.85-81.869c0.807-1.446,1.67-2.349,2.57-2.715c0.812,0.272,6.681,1.356,17.605,3.251l42.509,7.581
				c4.152,0.815,7.988,1.582,11.513,2.303c1.354,0.181,3.251,0.588,5.687,1.218C938.688,65.145,939.32,66.321,939.32,68.125z
				 M931.062,75.978c0-1.805-0.816-3.204-2.438-4.197c-0.187,0.091-0.455,0.134-0.813,0.134l-0.275-0.134l-0.54-0.677
				c-8.847-1.626-22.067-4.017-39.671-7.177c-3.072-0.63-6.182-1.263-9.34-1.896c-3.609-0.72-6.725-1.083-9.344-1.083
				c-2.255,0-3.703,3.386-4.33,10.155l-4.336,47.658c-0.181,1.989-0.27,3.116-0.27,3.386c0,3.88,0.81,6.546,2.439,7.988
				l63.092,9.613l1.626-2.437l3.929-53.888c-0.276-0.721-0.408-1.397-0.408-2.03c0-0.63,0.107-1.535,0.34-2.709
				C930.943,77.513,931.062,76.611,931.062,75.978z"/>
			<g id="XMLID_34_">
				<g>
					<path fill="#050505" d="M919.7,85.292c0,0.84,0,1.44,0,1.8c0,0.96-0.119,1.74-0.3,2.279c-0.899-0.42-1.739-0.66-2.579-0.66
						c-0.6,0-1.74,0.48-3.359,1.5c-0.48,1.26-0.66,2.82-0.66,4.739c0,0.72,0,1.8,0.12,3.24c0.06,1.439,0.12,2.52,0.12,3.239
						s-0.12,1.68-0.3,2.939c-0.24,1.2-0.36,2.1-0.36,2.64s-0.12,1.26-0.42,2.28c-0.24,1.02-0.42,1.74-0.42,2.279
						c0,0.3,0.12,0.72,0.3,1.26c-0.18,0.06-0.3,0.18-0.3,0.36c0,0.18,0.12,0.36,0.3,0.54c-0.18,3-1.08,5.099-2.699,6.419
						c-1.979,1.32-3.959,2.64-5.819,3.899c-0.359,0.06-0.899,0.12-1.5,0.12c-0.84,0-2.159-0.18-4.019-0.54
						c-1.86-0.36-3.24-0.48-4.26-0.42c-0.54-0.36-1.5-0.54-2.819-0.66c-1.62-0.06-2.88-0.3-3.659-0.66
						c-4.499-1.979-7.379-5.879-8.519-11.638l0.54-1.08c0-0.48-0.12-1.08-0.36-1.86c-0.24-0.78-0.36-1.32-0.36-1.68
						c0.181-0.72,0.301-1.379,0.301-1.919c0-0.24,0-0.72,0-1.44c-0.12-0.72-0.12-1.26-0.12-1.68c0-1.32,0.239-2.339,0.779-2.939
						c0-0.84,0.181-1.919,0.48-3.299c0.3-1.44,0.479-2.459,0.479-3.18c0-0.6-0.18-1.32-0.54-2.22c0-0.42,0.061-1.08,0.12-1.919
						c0.12-0.9,0.18-1.56,0.18-1.979c0-2.28-1.619-3.54-4.738-3.959l-0.96,0.3v-2.58c0-0.72,0.18-1.68,0.54-3
						c0.72,0.48,1.859,0.78,3.419,0.84c1.62,0.12,2.699,0.36,3.359,0.84c1.8,0,4.379,0.36,7.799,1.08
						c1.38,0.42,2.22,0.66,2.579,0.66h0.96c0.66,0,1.5,0.18,2.64,0.54s2.04,0.54,2.64,0.54l-0.54,5.279
						c-1.26-0.54-2.279-0.84-3.119-0.84c-1.08,0-2.1,0.36-3.119,1.08l-1.2,16.557c0.12,0.24,0.12,0.6,0.12,1.08
						c0,0.72-0.061,1.8-0.24,3.18s-0.3,2.459-0.3,3.179c0,5.759,2.939,8.639,8.818,8.639c0.36-0.42,0.9-0.54,1.62-0.36l1.499-0.42
						c2.58-2.64,3.84-4.619,3.66-5.939c0.359-0.48,0.54-1.08,0.54-1.92c0-0.36-0.061-0.899-0.12-1.56
						c-0.12-0.66-0.181-1.14-0.181-1.44c0-0.78,0.181-1.5,0.54-2.159c-0.359-0.72-0.54-1.32-0.54-1.74c0-0.54,0.181-1.32,0.48-2.22
						c0.359-0.96,0.479-1.68,0.479-2.1c0-0.72-0.06-1.26-0.12-1.5c0.54-0.54,0.78-1.32,0.78-2.339c0-0.36,0-0.9-0.12-1.62
						c-0.06-0.72-0.12-1.26-0.12-1.62c0-0.72,0.061-1.26,0.24-1.62c0-1.62-0.36-2.58-1.2-2.939c-0.42-0.3-1.499-0.42-3.239-0.42
						l-1.08-0.42v-2.58c0-1.14,0.061-2.04,0.12-2.58c3.96,0.48,9.839,1.38,17.638,2.7C919.581,84.032,919.581,84.572,919.7,85.292z"
						/>
				</g>
			</g>
		</g>
	</g>
</g>
</svg>
