<?xml version="1.0" encoding="utf-8"?>
<!-- Generator: Adobe Illustrator 16.0.4, SVG Export Plug-In . SVG Version: 6.00 Build 0)  -->
<!DOCTYPE svg PUBLIC "-//W3C//DTD SVG 1.1//EN" "http://www.w3.org/Graphics/SVG/1.1/DTD/svg11.dtd">
<svg version="1.1" id="Layer_1" xmlns="http://www.w3.org/2000/svg" xmlns:xlink="http://www.w3.org/1999/xlink" x="0px" y="0px"
	 width="85.679px" height="118.453px" viewBox="0 0 85.679 118.453" enable-background="new 0 0 85.679 118.453"
	 xml:space="preserve">
<g>
	<path fill="#3D3D3C" d="M84.251,58.948C84,40.274,84.153,21.593,84.636,2.925c0.033-1.286-1.101-1.825-2.079-1.628
		c-0.186-0.771-0.916-1.435-1.971-1.273C55.358,3.908,29.781,0.3,4.368,1.544c-1.631,0.08-1.603,2.381,0,2.514
		C17.706,5.164,31.262,4.996,44.64,5.267c11.79,0.239,25.119,1.72,36.525-2.02c-0.54,18.892-0.648,37.786-0.312,56.683
		c0.321,18.015,0.312,36.429,2.673,54.325c-0.148-0.044-0.308-0.074-0.49-0.07c-13.449,0.246-26.885,0.753-40.339,0.836
		c-13.094,0.079-26.315-0.555-39.389,0.334c0.425-18.561,0.114-37.166,0.208-55.731c0.047-9.224,0.118-18.449,0.126-27.673
		c0.005-4.612,0.027-9.225-0.008-13.836c-0.034-4.483,0.714-9.807-1.03-13.991c-0.163-0.39-0.841-0.658-1.061-0.139
		c-1.598,3.771-1.065,8.106-1.135,12.153c-0.078,4.612-0.088,9.224-0.115,13.836C0.24,39.527,0.255,49.082,0.247,58.635
		c-0.017,19.424-0.475,38.89-0.099,58.31c0.037,1.939,2.849,2.007,3.103,0.21c13.033,1.477,26.359,1.088,39.447,0.998
		c13.436-0.092,26.921-0.188,40.339-0.91c0.87-0.047,1.355-0.668,1.454-1.338c0.53,0.006,1.112-0.354,1.125-0.973
		C86.003,96.311,84.502,77.577,84.251,58.948z"/>
	<path fill="#3D3D3C" d="M23.689,18.875c-0.732-0.028-1.464-0.04-2.195-0.063c0.221-0.766,0.42-1.525,0.566-2.262
		c0.265-1.333-1.395-2.037-2.169-0.914c-0.647,0.939-1.259,1.982-1.832,3.077c-0.604-0.015-1.209-0.039-1.813-0.052
		c-1.421-0.033-3.193-0.33-4.396,0.647c-1.182,0.96-1.155,2.439-1.158,3.825C10,22.754,9.293,22.437,8.572,22.22
		c-0.599-0.18-1.239,0.562-0.854,1.11c0.751,1.069,1.779,2.002,2.888,2.87c-0.021,1.309,0.05,2.618,0.49,3.754
		c-0.562,0.491-0.359,1.63,0.606,1.686c3.723,0.218,7.447,0.413,11.168,0.669c0.797,0.055,1.297-0.677,1.372-1.372
		c0.382-3.521,0.614-7.063,0.915-10.593C25.227,19.531,24.428,18.903,23.689,18.875z M14.384,21.863
		c0.373-0.272,1.329-0.246,2.262-0.167c-0.622,1.46-1.165,2.95-1.619,4.392c-0.349-0.257-0.701-0.517-1.058-0.779
		C13.874,24.158,13.694,22.366,14.384,21.863z M13.962,28.644c0.298,0.217,0.59,0.434,0.868,0.651
		c0.319,0.249,0.698,0.38,1.062,0.374c-0.716,0.009-1.433,0.023-2.149,0.031C13.856,29.347,13.919,28.996,13.962,28.644z
		 M21.574,29.587c-1.856,0.037-3.714,0.058-5.57,0.081c0.385-0.038,0.745-0.24,0.99-0.65c1.264-2.118,2.501-4.628,3.479-7.175
		c0.547-0.006,1.094-0.008,1.64-0.015C21.921,24.413,21.718,26.999,21.574,29.587z"/>
	<path fill="#3D3D3C" d="M28.272,47.186c-0.091-1.565,0.092-3.689-1.278-4.797c-0.576-0.466-1.311-0.636-2.089-0.67
		c1.109-1.56,2.323-3.043,3.259-4.713c0.549-0.98-0.571-2.193-1.575-1.575c-2.345,1.443-4.271,3.871-5.72,6.627
		c-2.599,0.201-5.197,0.401-7.796,0.602c-0.865,0.066-1.758,0.723-1.693,1.693c0.022,0.343,0.05,0.686,0.073,1.028
		c-0.724-0.353-1.556,0.758-0.876,1.314c0.344,0.281,0.686,0.562,1.029,0.843c0.209,2.91,0.428,5.82,0.642,8.729
		c0.009,0.131,0.031,0.253,0.063,0.368c-0.267,0.641,0.016,1.513,0.933,1.479c4.627-0.174,9.219-0.814,13.839-1.062
		c0.846-0.046,1.685-0.713,1.635-1.635C28.569,52.674,28.431,49.929,28.272,47.186z M18.815,45.566
		c0.179-0.015,0.357-0.03,0.536-0.045c-0.539,1.503-0.946,3.024-1.205,4.477c-1.055-0.714-2.109-1.429-3.152-2.16
		c-0.043-0.647-0.081-1.294-0.125-1.942C16.184,45.787,17.5,45.676,18.815,45.566z M15.49,55.553
		c-0.107-1.695-0.22-3.389-0.327-5.084c1.028,0.855,2.058,1.711,3.067,2.589c0.706,0.613,1.819,0.397,2.096-0.553
		c0.736-2.53,1.424-4.988,2.542-7.354c0.753-0.097,1.539-0.172,1.689-0.065c0.646,0.461,0.446,3.214,0.505,4.158
		c0.101,1.602,0.2,3.204,0.3,4.807C22.08,54.597,18.774,55.009,15.49,55.553z"/>
	<path fill="#3D3D3C" d="M28.401,66.779c-0.514-0.088-1.027-0.146-1.541-0.22c0.79-1.511,1.501-3.063,1.831-4.692
		c0.211-1.043-1.09-2.016-1.91-1.112c-1.416,1.56-2.373,3.493-3.285,5.418c-2.757-0.233-5.52-0.284-8.311-0.086
		c-0.904,0.064-1.508,0.667-1.607,1.557c-0.11-0.18-0.225-0.359-0.334-0.54c-0.646-1.065-2.265-0.119-1.67,0.976
		c0.519,0.953,1.07,1.873,1.643,2.775c-0.415,3.272-0.896,6.783-0.253,9.761c0.169,0.783,0.828,1.015,1.44,0.876
		c1.479,1.09,3.699,0.828,5.496,0.978c2.093,0.175,5.69,1.153,7.641,0.058c1.616-0.908,1.594-2.764,1.666-4.41
		c0.143-3.264,0.249-6.529,0.369-9.793C29.599,67.681,29.066,66.893,28.401,66.779z M16.687,69.264
		c1.771-0.084,3.535-0.073,5.295,0.021c-0.963,1.927-1.915,3.859-2.842,5.804c-0.949-0.993-1.835-2.049-2.664-3.151
		C16.546,71.047,16.618,70.156,16.687,69.264z M26.073,78.116c-0.341,1.697-0.36,1.747-2.159,1.686
		c-2.007-0.068-4.014-0.121-6.021-0.171c-0.84-0.021-1.504-0.09-2.119-0.021c0.341-1.408,0.371-2.908,0.455-4.363
		c0.699,0.966,1.406,1.931,2.118,2.905c0.588,0.803,1.857,0.991,2.406,0c1.534-2.768,2.956-5.592,4.401-8.406
		c0.029-0.058,0.062-0.116,0.092-0.173c0.361,0.043,0.724,0.076,1.085,0.127c-0.053,1.717-0.105,3.434-0.158,5.151
		C26.141,75.884,26.278,77.096,26.073,78.116z"/>
	<path fill="#3D3D3C" d="M32.224,89.426c0.797-0.999-0.2-2.657-1.459-1.891c-2.481,1.51-4.658,3.705-6.748,5.89
		c-2.292-0.162-4.583-0.325-6.877-0.455c-1.226-0.069-2.473-0.139-3.547,0.292c-0.639-0.54-1.273-1.084-1.915-1.621
		c-0.948-0.792-2.306,0.502-1.38,1.379c0.557,0.527,1.12,1.045,1.68,1.569c-0.934,1.396-0.911,3.275-1.022,4.882
		c-0.173,2.486-0.855,5.419-0.089,7.817c0.312,0.979,1.871,1.383,2.377,0.311c0.001-0.001,0.001-0.001,0.001-0.001
		c0.064-0.067,0.13-0.132,0.194-0.198c0.036,0.031,0.065,0.068,0.118,0.084c3.756,1.142,8.217,0.672,12.111,0.765
		c0.255,0.006,0.488-0.07,0.688-0.196c0.864,0.725,1.756,1.404,2.696,1.993c1.293,0.812,2.363-0.93,1.522-1.973
		c-1.021-1.267-2.228-2.426-3.503-3.532c0.076-3.145,0.109-6.29,0.121-9.44c0.001-0.238-0.054-0.455-0.146-0.648
		C28.925,92.874,30.765,91.254,32.224,89.426z M19.263,96.371c0.604,0.032,1.21,0.056,1.814,0.083
		c-0.572,0.57-1.143,1.143-1.711,1.716c-0.793-0.677-1.587-1.354-2.38-2.032C17.744,96.18,18.55,96.334,19.263,96.371z
		 M14.445,97.476c0.052-0.153,0.116-0.285,0.187-0.406c1.015,0.941,2.03,1.882,3.046,2.822c-1.243,1.273-2.478,2.556-3.689,3.859
		C14.032,101.631,13.773,99.455,14.445,97.476z M14.657,106.163c1.553-1.585,3.121-3.155,4.699-4.716
		c0.211,0.196,0.423,0.391,0.633,0.586c1.22,1.134,2.421,2.353,3.65,3.543C20.661,105.585,17.502,105.501,14.657,106.163z
		 M24.186,102.166c-1.01-0.805-2.015-1.601-2.961-2.407c-0.025-0.021-0.051-0.043-0.076-0.065c0.451-0.436,0.89-0.885,1.346-1.316
		c0.513-0.485,1.052-0.961,1.6-1.435C24.115,98.685,24.146,100.425,24.186,102.166z"/>
	<path fill="#3D3D3C" d="M67.035,19.568c-11.229-0.857-23.461,0.62-34.678,1.579c-0.991,0.084-1.021,1.531,0,1.564
		c11.244,0.365,23.52,1.184,34.678-0.26C68.844,22.217,68.928,19.713,67.035,19.568z"/>
	<path fill="#3D3D3C" d="M68.547,24.333c-0.142-0.075-0.283-0.149-0.425-0.223c-0.654-0.344-1.546-0.188-1.921,0.503
		c-0.025,0.047-0.051,0.095-0.076,0.142c-2.219,0.747-6.031,0.349-7.992,0.51c-2.862,0.235-5.724,0.471-8.586,0.707
		c-5.729,0.471-11.449,1.02-17.171,1.571c-1.082,0.104-1.127,1.757,0,1.723c7.635-0.236,15.264-0.528,22.895-0.871
		c3.4-0.153,8.189,0.464,11.448-0.506c1.203-0.358,1.704-0.278,2.374-1.475C69.48,25.72,69.287,24.721,68.547,24.333z"/>
	<path fill="#3D3D3C" d="M69.032,42.865c-5.644-0.649-11.612,0.029-17.302,0.088c-5.15,0.054-10.46-0.323-15.553,0.485
		c-0.647,0.103-0.609,1.138,0,1.271c5.342,1.165,11.067,0.941,16.514,1.058c5.496,0.117,11.26,0.609,16.703-0.226
		C71.041,45.288,70.417,43.024,69.032,42.865z"/>
	<path fill="#3D3D3C" d="M72.375,48.75c-1.273-1.306-2.51-0.971-4.302-0.875c-3.559,0.191-7.116,0.472-10.673,0.709
		c-7.429,0.496-14.915,0.741-22.316,1.539c-1.134,0.122-1.192,1.792,0,1.811c6.139,0.094,12.298-0.271,18.436-0.427
		c2.911-0.074,5.821-0.149,8.732-0.225c1.294-0.034,2.587-0.067,3.881-0.101c0.971-0.025,1.94-0.051,2.911-0.076
		c0.189,0.036,0.363,0.044,0.529,0.038c0.358,0.541,0.956,0.789,1.59,0.642c0.738-0.17,1.134-0.443,1.459-1.124
		C72.931,50.014,72.894,49.282,72.375,48.75z"/>
	<path fill="#3D3D3C" d="M70.02,74.453c-4.953-1.129-10.62-0.311-15.693-0.21c-5.762,0.114-11.537,0.202-17.294,0.457
		c-1.176,0.052-1.178,1.776,0,1.828c5.757,0.254,11.533,0.343,17.294,0.457c5.097,0.101,10.719,0.923,15.693-0.21
		C71.167,76.514,71.168,74.715,70.02,74.453z"/>
	<path fill="#3D3D3C" d="M71.031,68.13c-10.909-0.338-22.458,1.101-33.332,2.13c-0.83,0.079-0.864,1.307,0,1.318
		c10.899,0.139,22.505,0.622,33.332-0.601C72.812,70.777,72.907,68.188,71.031,68.13z"/>
	<path fill="#3D3D3C" d="M74.159,96.021c-6.677-0.142-13.353-0.238-20.03-0.292c-5.916-0.047-12.492-0.871-18.278,0.482
		c-0.659,0.154-0.63,1.135,0,1.305c5.737,1.551,12.366,0.934,18.278,1.109c6.679,0.198,13.356,0.423,20.03,0.752
		c-0.001-0.003-0.001-0.006-0.002-0.009C76.154,99.379,76.448,96.069,74.159,96.021z"/>
	<path fill="#3D3D3C" d="M71.267,102.472c-1.065-1.159-1.857-1.042-3.436-1.068c-3.562-0.057-7.148,0.141-10.711,0.208
		c-7.14,0.134-14.284,0.244-21.421,0.479c-1.107,0.037-1.11,1.687,0,1.723c5.515,0.176,11.036,0.272,16.553,0.373
		c2.597,0.047,5.192,0.092,7.789,0.138c1.797,0.032,5.918-0.501,8.237,0.057c0.004,0.01,0.008,0.02,0.011,0.029
		c0.196,0.52,0.668,1.02,1.281,0.975c0.771-0.056,1.214-0.143,1.696-0.766C71.786,103.948,71.88,103.14,71.267,102.472z"/>
</g>
</svg>
