<?xml version="1.0" encoding="utf-8"?>
<!-- Generator: Adobe Illustrator 16.0.4, SVG Export Plug-In . SVG Version: 6.00 Build 0)  -->
<!DOCTYPE svg PUBLIC "-//W3C//DTD SVG 1.1//EN" "http://www.w3.org/Graphics/SVG/1.1/DTD/svg11.dtd">
<svg version="1.1" id="Layer_1" xmlns="http://www.w3.org/2000/svg" xmlns:xlink="http://www.w3.org/1999/xlink" x="0px" y="0px"
	 width="714.28px" height="425.208px" viewBox="0 0 714.28 425.208" enable-background="new 0 0 714.28 425.208"
	 xml:space="preserve">
<g>
	<g>
		<polygon fill="#D9B03A" points="132.121,375.79 130.056,286.887 32.878,274.481 33.914,367.522 		"/>
		<polygon fill="#D9B03A" points="132.121,375.79 160.034,345.812 156.932,271.38 136.259,281.72 		"/>
		<text transform="matrix(1 0 0 1 26.165 363.3906)" fill="#0BA84B" font-family="'P22ToyBoxBlocks'" font-size="148.8649">e</text>
	</g>
	<g>
		<polygon fill="#D8AF3B" points="592.158,249.659 614.902,277.571 612.836,366.479 592.158,334.432 		"/>
		<polygon fill="#D8AF3B" points="621.106,361.307 702.776,353.038 694.502,261.034 610.766,270.338 		"/>
		<polyline fill="#D8AF3B" points="597.33,249.659 681.068,239.324 700.704,270.338 610.766,274.47 592.158,249.659 		"/>
		<text transform="matrix(1 0 0 1 583.8945 349.4277)" fill="#823795" font-family="'P22ToyBoxBlocks'" font-size="148.8649">l</text>
	</g>
	<g>
		<polygon fill="#D8AF3B" points="510.486,371.643 489.812,340.627 491.878,255.862 511.523,280.673 		"/>
		<g>
			<polygon fill="#D8AF3B" points="510.486,371.643 511.523,280.673 598.36,272.404 603.527,365.445 			"/>
			<polygon fill="#D8AF3B" points="577.687,248.623 600.426,277.571 506.356,282.737 491.878,255.862 			"/>
			
				<text transform="matrix(0.9999 0.0159 -0.0159 0.9999 482.811 357.1885)" fill="#C73127" font-family="'P22ToyBoxBlocks'" font-size="148.8649">l</text>
		</g>
	</g>
	<g>
		<polygon fill="#D8AF3B" points="382.302,352.004 410.214,380.951 410.214,282.745 382.302,264.136 		"/>
		<g>
			<polygon fill="#D8AF3B" points="386.438,264.136 474.306,256.896 496.016,275.506 410.214,282.745 			"/>
			<polygon fill="#D8AF3B" points="416.416,379.915 502.218,369.582 498.087,279.643 410.214,282.745 			"/>
			<text transform="matrix(1 0 0 1 372.9971 364.9316)" fill="#EAEA71" font-family="'P22ToyBoxBlocks'" font-size="148.8649">o</text>
		</g>
	</g>
	<g>
		<polygon fill="#D8AF3B" points="267.551,362.356 267.551,282.75 302.695,300.328 301.666,390.268 		"/>
		<polygon fill="#D8AF3B" points="395.736,377.862 301.666,390.268 301.666,291.025 397.808,285.851 		"/>
		<polygon fill="#D8AF3B" points="397.808,285.851 355.419,261.04 273.754,270.345 302.695,300.328 		"/>
		
			<text transform="matrix(0.9972 -0.0749 0.0749 0.9972 259.6694 378.3369)" fill="#F78F20" font-family="'P22ToyBoxBlocks'" font-size="148.8649">r</text>
	</g>
	<g>
		<polygon fill="#D8AF3B" points="159.003,371.659 253.074,344.777 282.022,371.659 195.184,395.434 		"/>
		<polygon fill="#D8AF3B" points="143.498,284.82 239.639,256.909 255.146,350.979 159.003,371.659 		"/>
		<polygon fill="#D8AF3B" points="282.022,371.659 268.581,282.75 239.639,256.909 255.146,350.979 		"/>
		
			<text transform="matrix(0.9712 -0.2381 0.2381 0.9712 151.9219 386.8213)" fill="#F26322" font-family="'P22ToyBoxBlocks'" font-size="148.8649">n</text>
	</g>
	<g>
		<polygon fill="#D8AF3B" points="40.117,178.339 133.158,184.543 174.511,164.898 80.435,156.631 		"/>
		<polygon fill="#D8AF3B" points="43.218,277.584 43.878,169.822 145.562,179.376 143.498,284.82 		"/>
		<polyline fill="#D8AF3B" points="148.663,281.72 172.439,264.143 175.54,172.137 139.36,182.477 143.498,284.82 		"/>
		<text transform="matrix(1 0 0 1 29.2637 270.3438)" fill="#A26AAD" font-family="'P22ToyBoxBlocks'" font-size="148.8649">t</text>
	</g>
	<g>
		<polygon fill="#D8AF3B" points="27.148,82.979 107.322,86.395 103.87,167.54 23.695,164.124 		"/>
		<polyline fill="#D8AF3B" points="20.152,73.845 51.201,53.832 139.845,61.87 113.683,83.101 		"/>
		<polyline fill="#D8AF3B" points="107.638,175.536 109.497,83.101 137.967,71.276 138.197,149.197 		"/>
		<path fill="#ED1750" d="M20.133,163.856c-0.762-10.091-1.157-22.502-1.181-37.229c-0.042-12.344-0.03-24.731,0.012-37.179
			c-0.169-3.567,0.073-8.911,0.727-16.029c0.629,0.455,1.932,0.601,3.913,0.455l0.891-0.067l43.885,3.823
			c3.312,0.351,6.626,0.746,9.945,1.187c3.913,0.4,7.191,0.406,9.856,0c1.035,0.618,4.597,0.994,10.679,1.127
			c6.675,0.097,10.728,0.285,12.139,0.576l1.588,3.167l-1.685,89.85c-0.872,1.659-1.792,2.677-2.762,3.046
			c-0.097,0.007-6.615-0.642-19.56-1.944c-9.934-1.139-24.834-2.744-44.703-4.816l-15.791-1.641
			c-1.31-0.103-3.176-0.358-5.591-0.774C21.079,167.019,20.285,165.837,20.133,163.856z M19.552,71.641l0.746-0.055
			c0.266-0.418,0.642-0.746,1.114-0.981l16.185-9.141c3.623-1.969,8.202-4.707,13.702-8.214c2.374-0.182,9.067,0.116,20.074,0.872
			l38.73,2.732c8.311,0.66,14.877,1.253,19.693,1.786c2.199,0.128,5.311,0.546,9.346,1.23c-1.242,0.691-5.954,4.186-14.137,10.479
			c-7.336,5.633-11.595,8.493-12.782,8.583c-1.187,0.09-4.33-0.067-9.443-0.473l-68.338-5.408
			C31.14,72.803,26.172,72.33,19.552,71.641z M28.523,154.408c0.169,2.181,1.175,3.646,3.029,4.403
			c0.091-0.108,0.23-0.17,0.423-0.188c0.2-0.012,0.624,0.255,1.26,0.812c9.837,1.042,24.533,2.562,44.091,4.556
			c3.514,0.436,6.984,0.867,10.4,1.303c4.12,0.484,7.614,0.624,10.48,0.405c2.277-0.175,3.489-3.997,3.61-11.472l0.951-52.324
			c0.023-1.102-0.024-2.337-0.127-3.725c-0.328-4.258-1.442-7.105-3.344-8.559l-69.671-5.307l-1.587,2.66l0.163,59.252
			c0.02,0.2,0.098,0.539,0.23,1.03c0.14,0.491,0.218,0.824,0.23,1.024c0.055,0.697,0.03,1.72-0.073,3.071
			C28.499,152.694,28.475,153.717,28.523,154.408z M32.6,70.35c0.2-0.011,0.551,0.055,1.054,0.219
			c0.514,0.163,0.872,0.29,1.078,0.369l58.12,4.536c6.512,0.503,10.456,0.703,11.836,0.601c0.496-0.037,1.14-0.182,1.914-0.442
			l-0.163-0.139l1.042-0.08l19.371-14.162c-1.532-0.582-5.008-1.061-10.412-1.448l-48.331-3.5c-5.41-0.382-9.002-0.502-10.783-0.37
			l-1.03,0.224L32.6,70.35z M48.67,69.702c0.944-0.686,2.525-1.473,4.748-2.352l-0.036-0.459l1.43-0.879l0.26-0.478l1.32-0.249
			l1.12-1.006l5.41,0.485l-0.878,0.212l-0.261,0.472l0.321,0.273c3.574,1.217,7.936,1.636,13.085,1.242
			c0.787-0.062,2.458-0.982,5.008-2.768l-0.333-0.425c-1.09-0.018-3.302-0.236-6.614-0.684c-2.715-0.296-4.907-0.381-6.59-0.249
			l-1.285,0.842c-1.478,0.116-3.525-0.03-6.154-0.431c1.538-0.805,3.774-2.125,6.723-3.942c-0.035-0.497,0.291-0.77,0.982-0.825
			c2.575-0.193,4.477-0.042,5.707,0.467l-0.994,0.673l-0.121,0.309c0.922,0.328,5.984,0.836,15.192,1.527
			c9.22,0.702,14.508,0.993,15.894,0.89c0.291-0.024,0.831-0.163,1.605-0.423l0.551-0.636l-0.303-0.122
			c0.098-0.005,2.249,0.127,6.445,0.4c-1.526,0.915-2.483,1.388-2.876,1.418c-0.17,0.411-0.636,0.842-1.395,1.296l0.037,0.448
			c-0.388,0.127-1.042,0.448-1.944,0.969c-0.909,0.516-1.611,0.794-2.102,0.831c0.096-0.006-1.352-0.049-4.338-0.115l0.388-0.781
			l-0.006-0.152c-0.938-0.424-2.368-0.642-4.307-0.642c-1.944-0.007-3.374-0.164-4.294-0.491c-0.394,0.03-0.976-0.005-1.733-0.09
			c-0.739-0.098-1.315-0.128-1.714-0.098c-0.297,0.024-1.102,0.533-2.429,1.533c-1.308,1-2.217,1.575-2.703,1.721
			c7.028,0.842,11.099,1.223,12.183,1.138c0.296-0.018,0.782-0.188,1.453-0.484c0.671-0.298,1.217-0.466,1.611-0.498
			c-0.098,0.007,1.503,0.188,4.81,0.534l-0.254,0.613c-1.339,0.604-3.048,1.779-5.107,3.525c-0.193,0.018-0.508,0.188-0.927,0.526
			c-0.418,0.32-0.781,0.497-1.084,0.521c-0.691,0.049-1.684-0.023-2.999-0.235c-1.308-0.213-2.265-0.291-2.853-0.249
			c0.54-0.667,0.812-1.054,0.799-1.157l-0.629-0.569c-15.477-1.938-26.434-2.665-32.867-2.174c0.06,0.787-0.207,1.21-0.806,1.253
			C53.14,70.283,51.087,70.125,48.67,69.702z M112.096,175.536c0.151-0.606,0.224-2.211,0.23-4.786l1.483-88.648l1.024-2.169
			l25.011-18.626c0.223,0.284,0.356,0.775,0.411,1.465c0.164,2.182,0.036,10.946-0.388,26.308l-1.636,59.088
			c-0.085,1.508-0.351,2.515-0.817,3.053c-0.824,0.859-1.37,1.593-1.624,2.216c-3.877,3.975-7.754,7.954-11.637,11.928
			C118.419,171.077,114.403,174.469,112.096,175.536z M115.991,163.893l16.718-15.623c0.552-0.641,1.411-1.804,2.581-3.487
			c0.703-1.249,1.362-12.163,1.986-32.746c0.679-19.996,0.849-32.074,0.533-36.229c-0.06-0.8-0.266-1.484-0.599-2.048l-0.771-0.242
			c-2.713,0.896-6.596,3.483-11.648,7.766c-5.506,4.701-8.279,8.195-8.311,10.497L115.991,163.893z M119.346,151.1
			c0.175-2.908,0.34-7.244,0.498-13.022c-0.103-1.388-0.158-3.472-0.17-6.257c-0.012-0.201,0.012-0.51,0.078-0.909
			c0.072-0.406,0.098-0.704,0.085-0.896c-0.193-1.278,0.013-3.089,0.631-5.427l1.187-0.091c-0.23,0.914-0.303,1.914-0.218,3.004
			c0.005,0.103,0.199,0.728,0.586,1.903c0.631-0.849,1.848-1.933,3.635-3.271c0.588-4.125,0.661-9.056,0.225-14.798l-0.037-0.441
			c-0.727,0.854-1.586,1.363-2.568,1.543c-0.836,0.759-1.302,1.836-1.399,3.236c-0.012,1.095-0.03,2.247-0.036,3.44
			c-0.363,0.424-0.867,1.06-1.503,1.909c-0.218-0.286-0.357-0.824-0.418-1.611c-0.721-9.505-0.479-17.531,0.709-24.091l0.448-0.036
			l0.962-1.115l0.346,0.714l-0.133,4.041c0.017,0.302,0.163,0.836,0.413,1.61c2.082-1.448,5.04-3.863,8.86-7.238
			c0.363-1.823,0.443-4.017,0.243-6.584l0.539-0.794l0.879-0.21l0.394-0.782c0.431,5.644,0.164,13.974-0.787,24.999l-1.109,1.126
			l-0.047-0.594c-0.012-0.194-0.042-0.544-0.078-1.035c0.066-0.516,0.078-0.909,0.053-1.2c-0.03-0.398-0.163-0.884-0.406-1.465
			l-0.594,0.042l-1.242,1.296l-0.63-0.406l-0.26,0.619l-0.431,0.188c-0.411,1.12-0.624,3.575-0.636,7.354
			c0.043,4.482,0,7.22-0.12,8.227l0.182,0.436l0.417-0.485l0.443-0.03c0.423-0.927,1.072-1.575,1.938-1.938
			c0.551-0.642,0.835-1.78,0.866-3.422c0.018-1.648,0.211-2.786,0.563-3.404l1.156-0.388c0.08,3.58-0.121,11.407-0.604,23.479
			c-0.836,0.673-1.395,1.309-1.643,1.92c-0.036-0.388-0.024-1.017,0.007-1.866c0.036-0.842,0.03-1.521-0.007-2.017
			c-0.012-0.2-0.091-0.582-0.236-1.17c-0.037-0.496-0.067-0.896-0.09-1.192c-0.648,0.647-1.545,1.563-2.702,2.744
			c-1.15,1.188-2.012,2.041-2.562,2.587l-0.769-0.243l-1.188,2.029l-0.593,0.042c-0.915,1.067-1.363,2.32-1.357,3.774
			c0.012,1.436,0.02,2.846,0.024,4.246C120.673,149.598,120.073,150.252,119.346,151.1z"/>
		<g id="XMLID_2_">
			<g>
				<path fill="#ED1750" d="M91.229,101.444l1.241,0.894c-0.249,0.383-0.373,1.917-0.124,4.217c0,1.022-0.249,1.789-0.869,2.172
					c-1.861-0.255-2.977-0.383-3.35-0.383c-1.364,0.128-2.233,0.639-2.729,1.661c0,0-0.124,5.494-0.372,16.227
					c-0.248,6.517-0.248,12.011,0.124,16.355c0.992,1.15,2.853,1.661,5.334,1.406h0.868l0.496-0.128v1.022
					c0,0.383,0,1.022-0.124,2.044c-0.124,0.895-0.124,1.661-0.124,2.172c0,0.639,0.124,1.15,0.372,1.405
					c-1.737,0-4.094-0.511-7.319-1.405c-0.745,0-1.861,0-3.226-0.128s-2.481-0.255-3.102-0.128c-0.496,0-0.992,0.128-1.861,0.383
					c-0.868-0.383-2.481-0.767-4.59-0.894c-2.109-0.256-3.722-0.639-4.838-1.15l0.124-4.6c0.496,0,0.992-0.128,1.861-0.128
					c0.744-0.127,1.364-0.127,1.737-0.255l0.992-0.895c0.372-0.894,0.496-2.3,0.372-4.472c-0.248-2.172,0-3.578,0.745-4.345
					c-0.124-0.255-0.248-1.15-0.373-2.683c0-0.511-0.124-0.767-0.124-1.022c-4.218-0.383-9.056-1.022-14.762-1.789l-0.62,0.767
					l0.372,0.767c-0.372,2.172-0.496,5.367-0.124,9.711c0.124,2.044,1.613,2.811,4.466,2.556c0.124,0.127,0.496,0.894,1.117,2.172
					l-0.745,4.217H60.96c-1.861,0.127-4.962-0.128-9.18-0.767c-3.846-0.639-6.823-0.894-8.932-0.511
					c-0.62-0.383-2.109-0.639-4.466-0.767c0-0.128-0.124-0.511-0.124-1.022c-0.124-0.383,0-1.022,0-1.789
					c0.124-0.767,0.124-1.406,0.124-1.661c0-0.767-0.124-1.15-0.248-1.533c0.372,0,0.993,0,1.737-0.128
					c0.868,0,1.489-0.128,1.861-0.128c1.489-0.127,2.481-0.511,2.977-1.277c-0.124-2.939-0.372-9.583-0.372-19.805
					c0.621-0.767,0.869-1.661,0.869-2.683c0-0.511-0.248-1.278-0.497-2.172c-0.248-1.022-0.372-1.789-0.496-2.3
					c0-0.767,0.124-1.533,0.496-2.3c0-0.127-0.124-0.895-0.496-1.917c-0.124-0.767-0.372-1.278-0.62-1.789
					c-0.248-0.511-0.745-0.895-1.365-1.15c-1.116,0.256-2.109,0.511-2.605,0.511c-0.248,0-0.496,0-0.869-0.128
					c-0.372,0-0.62-0.127-0.868,0c-0.248-0.894-0.372-1.405-0.372-1.917c0-0.511,0-1.277,0-2.3c0-1.15,0-1.917-0.124-2.428
					c2.605,0,6.451,0.639,11.413,1.789c0.372-0.383,0.868-0.639,1.612-0.639c0.497,0,1.241,0.128,2.233,0.256
					c0.993,0.255,1.737,0.383,2.357,0.255c0.372,0,0.868-0.128,1.612-0.383c0.497,0.639,1.613,1.022,3.474,0.895
					c1.985-0.128,2.978,0.383,2.978,1.533c0,0-0.248,1.533-0.621,4.855c-0.62-0.511-1.488-0.639-2.605-0.639
					c-0.868,0.128-1.613,0.383-2.109,0.767c-0.496,0.511-0.744,2.811-0.744,6.9c0,4.855,0,7.411-0.124,7.667
					c0.744,0.511,1.985,0.639,3.597,0.767c1.613,0,2.854,0.255,3.598,0.639c0.372-0.255,0.745-0.383,1.117-0.383
					c0.62,0,1.489,0.128,2.605,0.383c1.117,0.383,1.985,0.511,2.605,0.511c0.621-0.128,1.365-0.383,1.985-1.022
					c-0.124-1.277,0-3.194,0.249-5.622c0.248-2.428,0.372-4.217,0.248-5.495c-0.124-1.533-0.497-2.555-1.241-3.066
					c-0.992,0.128-2.357,0-4.094-0.255c0.124-0.256,0.124-0.639,0.124-1.278c-0.124-0.383-0.124-1.022-0.372-1.789
					c-0.248-0.894-0.372-1.405-0.372-1.917c-0.124-0.894,0.248-1.661,0.992-2.044c3.35,0.511,8.312,0.895,15.135,1.534
					c1.489,0,3.846,0,7.071,0c0.124,0,0.249,0,0.497,0.127C90.857,101.571,91.105,101.444,91.229,101.444z"/>
			</g>
		</g>
	</g>
	<g>
		<polygon fill="#D8AF3B" points="284.87,305.476 256.697,277.564 253.595,195.9 288.485,211.921 		"/>
		<polygon fill="#D8AF3B" points="280.49,202.339 372.24,195.615 378.182,293.054 285.662,302.873 		"/>
		<text transform="matrix(1 0 0 1 246.356 287.9248)" fill="#662774" font-family="'P22ToyBoxBlocks'" font-size="148.8649">o</text>
	</g>
	<g>
		<polygon fill="#D8AF3B" points="273.941,210.904 233.237,180.666 235.369,88.982 279.562,112.63 		"/>
		<polygon fill="#D8AF3B" points="236.531,88.982 278.4,113.405 368.726,104.683 325.89,81.616 		"/>
		<polygon fill="#D8AF3B" points="278.594,119.414 278.788,204.507 361.942,195.785 361.555,110.692 		"/>
		
			<text transform="matrix(0.998 -0.0627 0.0627 0.998 227.4414 195.4556)" fill="#3D53A4" font-family="'P22ToyBoxBlocks'" font-size="148.8649">w</text>
	</g>
	<g>
		<polygon fill="#D8AF3B" points="103.695,109.886 150.772,28.245 163.978,55.455 112.878,145.127 		"/>
		<polygon fill="#D8AF3B" points="114.161,144.934 165.334,64.299 243.837,111.401 198.868,185.638 		"/>
		<polygon fill="#D8AF3B" points="155.449,32.703 231.819,72.373 245.388,108.881 159.519,64.475 		"/>
		
			<text transform="matrix(0.8466 0.5322 -0.5322 0.8466 90.5552 110.8921)" fill="#3D53A4" font-family="'P22ToyBoxBlocks'" font-size="148.8649">o</text>
	</g>
	<path fill="#D8AF3B" d="M277.563,222.273"/>
	<path fill="#D8AF3B" d="M541.5,372.677"/>
</g>
</svg>
